<mxfile host="Electron" modified="2024-01-06T14:10:50.318Z" agent="Mozilla/5.0 (Windows NT 10.0; Win64; x64) AppleWebKit/537.36 (KHTML, like Gecko) draw.io/21.2.8 Chrome/112.0.5615.165 Electron/24.2.0 Safari/537.36" etag="Va7ub5_bgYp57cMEIJ3s" version="21.2.8" type="device">
  <diagram name="Page-1" id="7lHWkSbaVHF35WdE1A0E">
    <mxGraphModel dx="693" dy="473" grid="1" gridSize="10" guides="1" tooltips="1" connect="1" arrows="1" fold="1" page="1" pageScale="1" pageWidth="827" pageHeight="1169" math="1" shadow="0">
      <root>
        <mxCell id="0" />
        <mxCell id="1" parent="0" />
        <mxCell id="lTiDjZVNJuKrlllw1HD_-1" value="" style="shape=image;verticalLabelPosition=bottom;labelBackgroundColor=default;verticalAlign=top;aspect=fixed;imageAspect=0;image=data:image/png,iVBORw0KGgoAAAANSUhEUgAAAyEAAAJwCAYAAACeS24VAAAAAXNSR0IArs4c6QAAAARnQU1BAACxjwv8YQUAAAAJcEhZcwAAFxEAABcRAcom8z8AAP+lSURBVHhe7L0FdBvpsrZ714Xzn3P23sMZZp4wM3MMcRIncZgTh5mZmZmZmZnBzMzMzOy8t6vU8iQZh23JUM9atWR3f5KlttSqt4v+LwiCIAiCIAiCIOgQESGCIAiCIAiCIOgUESGCIAiCIAiCIOgUESGCIAiCIAiCIOgUESGCIAiCIAiCIOgUESGCIAiCIAiCIOgUESGCIAiCIAiCIOgUESGCIAiCIAiCIOgUESGCIAiCIAiCIOgUESGCIAiCIAiCIOiUsilCnj7F05xs5KanIjM8BMnOtoh9eBPRN84h8tIJtqhrZxH74DoS7S2QHuyPnNQU5Gdn42l+vvoggiAIgiAIgiAUB2VGhOSlpyFDERzxT+4geP8meM4dA8dhpnDobwi7Pu1g27M1bHu0hG33FhozU35Wttn1bgv7fgZwGNwJ7tPNEbh9FWLuXEZ6oB9yU5LURxcEQRAEQRAEoago1SKEohbpAT6IvnEB3stmwK5ve9h0aQzrLo1g3akBrEzqw9qkAZtVx/qK1YOVsWr0s2K8X7tWubXu3Eh5jEaKYGkFzzljEHH+KFK8XJGXmaH+VUEQBEEQBEEQ3odSKULyc3ORaPcEgTtWw2GwCayMarPIIAFRIEAUgWFpVAcWBrUUgdEAdj1bw75fBzgO7qiYCRz6G3AUhO5DaywNlccgcUKihB6DHksRJvQYtM5v7TzE3r8u0RFBEARBEARBeE9KnQhJsH4E39VzFGHQBhbtayiCo6EiGhqzaOBohyIiHAYaw3PGMPivnonQXSsReXw7Yi4eQty144i/fQYJt88i7voJxF46gsiTuxC6dw0C1s2B15xRcBrWhR+ToySd/35syw41YWPaBF4LxiPmzhXk52Srz0gQBEEQBEEQhLeh1IiQzNAgBGxdDvu+7RVBQOJDkzpFRilYTkNMELBmNmLO7kfSwytId3yELF8H5IV6IS/CF3lh3op5ITfUk4230zbaF+6NbH9npLs8QfKT6yxOgrcshsvoHiw8WIyof4vEiK1ZC/gsn45kVwf12QmCIAiCIAiC8KaUeBHyNDcX0TcvwnlUT45OaNKuFFHQqSEXmrtPG4KokzuRancPWd72BQIjJ8gdOQEuLC6y/Zxea7Q2J8hNc39FrGT7OiLd6RFiLx6C94KxXNyu/bskgChNy2GAEUIP70Buaor6bAVBEARBEARBeB0lWoRkx0UjYOsK2HRtqooPSrmqx+LDc6Y5Yq4cRaaXHXICXZEbrIgO5bYwgfEuRqKEH1MRJtk+Dki8fxE+SyfBXhEjnKpFYoQK3hXzWjgJaf7e6rMWBEEQBEEQBOFVlFgRkubtDo+ZIzQOP6dCNYSV4vi7ju+LqNO7ke3rgFyOdijC4w2jHe9kymNroyTZym3c9ZPwnD1CI4wUAWJj2hhWxnXhPNIM8Rb31GcvCIIgCIIgCMLLKJEiJNHeEs4jurNzTzUZFAWx7dkKgRvnI83xIfJCPVkQFCoaitMUQZIb4oksLzuEHdgAx8HGmufIkZp6nLIVeeW0+ioEQRAEQRAEQSiMEidCEqwewn4gOfd1VAFSjztWRZ/Zw8IjN9ijcIGgQ+PaEUWMJNw5C4+pg0EzRng+Cd12a46Ic4fVVyMIgiAIgiAIwouUKBGSYPMY9gOMuOibnfpODeA+eQCSHl5mp78oaz7e13L8nbkAPs3xEdeK8POltLGOihDp2hSRl06qr0oQBEEQBEEQhGcpMSIkxd0RjsNMNelNLEAacu1FmsMDRYB4FG/dx7sa1YsEuyPTyx4B6+dp2vl2acSREVuzloi5fVl9dYIgCIIgCIIgaCkRIiQjNAiuEwdw6hUJEO44NXcUz/qgDlWFCoASZLmBbtzSN2jTAlizEFFEVMf6HNWh+hZBEARBEARBEP5G7yIkLysDPstnKE67IkDUInSP6UO5AL0k1H+8qeUoQiTLxx7+K2eoXbM09Syu4/shMyJUfbWCIAiCIAiCIOhdhISfOaS24G0EK+N6cBllhhSrWzw0sDBnvyQbFaxnuFvDe/5oTVSHhIhxXfitX4CnuTnqKxYEQRAEQRCE8o1eRUiyqz0cqROWST2uo3AYYIC4a8eRF0ICpATWgLyBUQF9qs0duI7vw0KEBVbXpoi+dlZ91YIgCIIgCIJQvtGbCMlLS4X3kimwNKjFgwipo1TontWaLljFPAMkV3n8vOLqtEWzREK9EHv5CE9X56nqxnXhMqYnMsKC1VcvCIIgCIIgCOUXvYmQmFuXCrpgUR2I50xzHgLIRd6FOfdFZPk040MRCule9txmt7A17208z8RdU6hu0pBFFgmRoN3r8DQ/Xz0CgiAIgiAIglA+0YsIyY6Pgfv0YbA0qs3pSvb92iP+9hnkBhVfJ6zcAGcg0hcpHjbYvnQ+tiyeyyKkuIQI1YdQe2HXcb051YxSsxwHd1L+vvI8BEEQBEEQBKEcoxcRQvMzuF5CjYQErJ2DbH+XIkvDImFBKVf5ga5AiDsQ5YunwW5wvHoG00YMxeefVkDLRo0UQWBbfGlZilFxfcSx7bDt3pzFlmWHmgjatQ5Pc6RIXRAEQRAEQSi/6FyE5KYmw2P2qIKibYf+Bkh+cp0jB4U58u9iJD5IhMQ4PoLzjXM4vmUtxg7sh4Y1a+LrL75CBUWEGLRsgXhni2IVISSqMj1s4DZ5gCYly6Q+HId0Qpqfl3o0BEEQBEEQBKH8oXMRkuRgBRvTphwFIac8cP08jcNeBGKAIiAkQLYsnocOzZvBqFVLNKtfD5X//BMmbVujTZNG+P6bb/HV51+wCElwsSxWEUIdvkhcRZ3aDZuumiGGVIgfceaQejQEQRAEQRAEofyhUxHyNC8fAZuXwloRHxQFsevVBol3zxfZTBASIXmBLti9cjH6mXbC9FHDsH3JfDw+exiJyv6540fhiwqf48sKuhIhynNSREi68xO4jO7Br5kmqbtPHYqchDj1qAiCIAiCIAhC+UKnIiQ7PhaOQ7vAulMDWBrVhfe8MchwtyrSVCyyTB9HxRyQ5euIvAAXIMQDSArB/Ilj8PlnOhYhyt8ncRSycyV3AaNoiI1pYyS72KtHRRAEQRAEQRDKFzoVIXGPb8PWrKWmLa9JfUQc3YK8MC+erVGYA/+uRp2wKCJCdSHUjpe2IcYf8yaM1rkIIaPZJwl3z8PGrIWmGF957aGHd0i7XkEQBEEQBKFcolMRErBtBackaQq0TZB47wLyQhURUojjXtSmVxES5I50p0dwnzpIk4qmiDCP6ebIy0hXj4wgCIIgCIIglB90JkLyc3PhNmUwD+2zNKoDr9nDkeFqiZxiHk6oNX2KkOwAZ07LCt62FJaGdbhTln3fDsiMDFOPjiAIgiAIgiCUH3QmQtJDAuA4rAu35iVHPHDDfJ1FQcj0KkIUywv3QfTZvbDqpJmgbtu9BeIt7qlHRxAEQRAEQRDKDzoTIeRw2/czYBFi07UZIo5sRV6ET6EOe3GYvkVIriK4Eu6cg8MgY05Hs+naFGHH96hHRxAEQRAEQRDKDzoTIZHnj/HVfyvjenAYaIT46yeKrDXvm5jeRUiwB1JtbsNtQl8+BhQN8d+wSD06giAIgiAIglB+0JkICT6wmR1vqglxHtkNyRbXFMfcvVCHvThM3yKE2hBTDYzX3JHcntjKpB48545Rj44gCIIgCIIglB90JkL81i+ApWFtdsDdJvRDuvPjIpmS/qamdxES4MK3fsunwtKgNosx14n9pU2vIAiCIAiCUO7QmQjxXjIFlh1qcmcsj6mDkeVlV+CY68L0LUJoFgqlZAWumwsLg1qaiNCoHshNT1OPkCAIgiAIgiCUD3QmQrwWTtSIEMM68JxpjmwSIEU8pPBVVhJECA1mDNw4HxYdFBHSsR6cR3RHTlKCeoQEQRAEQRAEoXygExFCKUee88fD0uBvEZIT6C4iRESIIAiCIAiCUA7RXSRkwYS/RciMYcgJUJx/ESEiQgRBEARBEIRyh05rQiwKakIGIdPbvvzVhIR4InD9XI0I4S5hZsiTmhBBEARBEAShnKEzEaLtjmXF3bH6Is2pHHfHouPQsS5cJ/ST7liCIAiCIAhCuUNnIiR432ZYd9LOCemO5CfldE7IHO2ckPrwkDkhgiAIgiAIQjlEZyIk4vxR2HZvziKEJqbH0cT0kPI0Md39hYnpjeC/YbF6dARBEARBEASh/KAzERJvcRf2/TpwQbZNt2aIOLYVeeE+hTrsxWF6FyFhXki8ex6OA42VY1AfNqZNEHZ8t3p0BEEQBEEQBKH8oDMRkh4UAKdhXViEWBrV5i5ReWHehTrsxWH6FiF54d6IPruPU9KsOzfkqFD8k7vq0REEQRAEQRCE8oPORMjTnBy4TRnM6VjUIctz9ghkuFkiV0ciQK8iJMAFOYEuCN6+jIvSSYTY922PzIhQ9egIgiAIgiAIQvlBZyKECNiynGshrDo2gOMQEyTeO8+zMwp13IvY9ClCqB4k3fkRPKYPgbVJfY6GuE8zR15GunpkBEEQBEEQBKH8oFMREvfoFmzNWnIkgOoiIo5uLR8iJMRTEVwXlNfeAtZdGrMQCT20DZD2vIIgCIIgCEI5RKciJDshFo5DO8O6UwNOy/JeMA4Z7tbICXQr1HkvSkNCEBZMHIMKn37GIsSwVUsku9sUuwjh+SD+zgjZuUIRHw1YhNgoluxipx4VQRAEQRAEQShf6FSEPM3PQ8CmJRpnvHMj2PVui4S7F4q2Va+vI54GuwGRPor5AlGKxQYgP9wLI/v1QoVPPsXXX36FZvXrwef+NSA+SFnjp1lLFqY8F+UxCn3sdzCaD5Lu8hguY3rya7Y2qQe3KUOQkxCnHhVBEARBEARBKF/oVIQQSfYW3J6WIgI0LyNo00KNw65OFH9fywtyRZDFbdw9vg83D+/G1QM7cHbHRswZOxLVK1bEN19+je+//ha/fP8jBnbrgmObVuPyvm24oayl9Y7XzhRpdIRESPSZPbDpSq+5ESwNaiH89EFFkD1Vj4ggCIIgCIIglC90LkJyUpLhMWskTwynyIBDfwOkWN5EThFNT6eoxv61y/DHL7/g959+wu8//4Lvv/mWU7B+/+lnVPnjT1T580/89dtv+ParrxVR8hVv//OXX/n3wT26ARHeyPF3LvTx38YoFSvTyxZukwbCiqbFK6/ZcbAJUv081aMhCIIgCIIgCOUPnYsQPH2K6NsXNVPDKRrSqQECN8zXtLEtAsc/N8gN/o9v4PqhXRzZuHNsHx6cPIgnZ4/A4txRWF84DuuLx2F5/piy7SgenjrEUZNbR/bgyv7tsL10ssjaBueGeCDyxE7YdG/BxfgWHWogaOcaPM3NUQ+GIAiCIAiCIJQ/dC9CFLJjo+E+3RxWRnXYOadJ6gl3znIr28Kc+bcyX0dAeRyuBdEa13tQjYhiEappf3+2diTaDwj3KpKaEIrspDs+hOvYXhwBIdHlMNgEKe7K8xMEQRAEQRCEcoxeRAgRfeuSpl0tpyk14OGFmV52yNFBy9ziNkrDIhEStHkxrBSRxS2JjesicNca9dULgiAIgiAIQvlFbyIkJzkJXosnw8qwFhds23RthrC9azmFiVraFubclxaj2SdxV4/Bvl97TTvijnXhPLonMsKC1VcvCIIgCIIgCOUXvYkQIsXVDg4DDHlwIaUsOQwwQPzNU8gNLcKWvTo2ElFpdvfgOr4PLI3rwqYzCawmiLp2Vn3VgiAIgiAIglC+0asIIcJP7dekZSnOuqVxPZ6nkWJ9u1QKEUrByvS0hffC8SysbEwbK7f14LduPvJzpBhdEARBEARBEAi9i5D8rEz4LJ/Bzjo77Sb14TljGNIcHmhSswpx9kuiUVeuLB97BKydzaKKpqJTGpbLuL7IDA9RX60gCIIgCIIgCHoXIURGSCBcx/eDlXEddt6pWN173mikOz4q2mnqxWQUAcnydUTQlkWw6dpUeQ2NWFRRTUii7WP1VQqCIAiCIAiCQJQIEUKkuDtxC1tq20sT1Wm4HwmRNMeHyA31KrHF6hStyfJxQODGBVxcT0X2HNXp3hwxty+rr+5vQoKDcef2baSnp6tbBEEQBEEQBKF8UWJECEFRA4cBRpr5IaaaiIj7tMFIenyVIyLU+rYwIaAXU0QRPad05yfwWzFNeb5NuK6F0slIREVcOKa+qr9JS0vD3FmzUaNyFSxdtBhRUVHqHkEQBEEQBEEoP5QoEUIkWD+Ew0BjNSKiKex2Nu+CmPP7kRPohpygIhho+J5Gs0woApJ4/yLcpw7mOSdcXK/c2nRrhohzR/A0P199RRqysrKwa/t21K5WHbWr10C1SpUx0nw4XJyd1RWCIAiCIAiCUD4ocSKESLS3gNPwbjzgTytE7Hq1QeDGhRx5oMnqOQGuOk/RokhMriKCsrztEH5oExyHdOJJ6NqCervebRF15ZQiQPLUV/I3OTk52Ld7DxrUroNaihCpV6s2C5HOxh1x7epVdZUgCIIgCIIglH1KpAghUn084D51KDv3NHGchv5RtMFtfB/EXDigCAF7jorkBLkVuxjhyIcagYm/fRZes0fApltz9blpakAch3VB/JO76rMvnMzMTFy+eAkdDQxRvXIV1K1ZCzWqVEXTho2wc/t2qRMRBEEQBEEQygUlVoQQ2TGR8N+wCLbk8BvXZYefUp5se7SE15yRiLt2HJke1lybUeQ1I1TzEeyOvFAvbr2b+OAS/FdMh32fdpr0K1V80M+ec8ci1dtNfdavx9nJCUMGDkKNylVRp0ZNTs8imzl9OkJDpJ2vIAiCIAiCULYp0SKEeJqbi+jr5+AyppemYJ2iDzSDo1ND2HZvoYiRUYg+vQep1rdYOOSF+3C9BkUv3jZCwulWwR6axwhyQ6r9PcRePgK/FVNhR+JD+ZsshDo3hKVBLdgPNELI4R3ITUlWn+2bExUZhQVz56F+rdqa9KyatVCzajX07dULNjbW6ipBEARBEARBKHuUeBGiJSPIHwFbl8OuZysWACwGSIwoooTMZZQZAtbNQdSp3Uh6cAkZ7lbc2jcvwgd5YV5qtMSDRUaBKdso0kGigyzLyx7JT64j5twBBG9ZDPfJ/TV/w7iepvBcMUsSQl2a8IDFJGcb9dm9G9lZWdi/dy9aNW/B9SH1a9fh9Ky2rVrj7OnTyMv7Z22JIAiCIAiCIJR2So0IIajjVKLdE/iungPb7s1hZaSmaKlixNKwNrfHdR7eFZ4zzeG3cjpCdq1ExLFtiD6/H3HXTyD+5mmN3TiJmIsHEXViB0L3roX/2tnwnjMKLqN7wNasBT8WpVtpxAelXil/q1NDeM4dg9h715CXkaY+q/fn/r376NbFFNUVIUIF6zWrVEPDOnWxZuUqxMfFq6sEQRAEQRAEoWxQqkSIFhIAFIUI3LYC9v0NWBywUa2GYiQeLA3rwNKgNosUqiGx79sODgON4DjImI1+tu/bniMrNOODRAcLD4p6qI/DxfDK49IanxUzEf/4DnIS4tRnUbT4+/lh7KjRXBvCdSLVqqOmYmNGjIK3t5e6ShAEQRAEQRBKP6VShGjJz8lGRkggIi+f4uJwhwGGsDVryTUbVD/CZlz3eTNS7R/bFNFCqVaK8KBaExIoblOHIPTEHqT6ehZp5ONlJCUlcfSjcf0GXB+i7Z7VtVNn3Lt7F3j6VF0pCIIgCIIgCKWXUi1CnuVpbg4yI0IRc/sSAratgMec0XAZ1xdOw7vyFHaaM0IRkWfNrldrjqQ4DTOFy5jecJ9uzt24Ii+dQHqAD/Kzs9RH1x35+fk4e/oMDNq24za+lJ5FQqRl02bYv2cfT10XBEEQBEEQhNJMmREhhZGTGI80Py8k2DxWxMllRF07g6irf1v0rYtIsLzP7XWzYqNIAaj31D+21jbo37tPwTwRStOqW7M25s2eg4iICHWVIAiCIAiCIJQ+yrQIKe0EBwVh1oyZqFVNM0eEoiIkSgYPGMizRgRBEARBEAShNCIipISTmpqK3Tt3oWmjRjxPhNr4VqtYCcYGhrhw/ry6ShAEQRAEQRBKDyJCSgFPn+bj1s2b6GRkzAXr2jqRZo0aY8O6dVInIgiCIAiCIJQqRISUItzd3DDSfDhHRCg9S2uTJkxAYECgukoQBEEQBEEQSjYiQkoZ8fHxWL50GerXqlMQFaFp6z27dceTx4/VVYIgCIIgCIJQchERUgrJy8vDsSNH0aZFSy5UpzoRSs+i348eOozs7Gx1pSAIgiAIgiCUPESElGIsHj9Bn569OBJCQkTbQWvZ4sWIiYlRVwmCIAiCIAhCyUJESCknMCAAUydP0UxYr1ETdRSj6MgIc3O4urioqwRBEARBEASh5CAipAxAbXw3b9yEJg0aqmKkFkdHOnfsiKtXruDp06fqSkEQBEEQBEHQPyJCyggkNC6eP4+OhkYsQGjKOgmSpg0bYee27dLGVxAEQRAEQSgxiAgpYzg6OGDY4CEFQoSMakXmzJyJkJAQdZUgCIIgCIIg6A8RIWWQyMhILJw3v0CAULE61Yn0690bNtbW6ipBEARBEARB0A8iQsoomZmZOLBvP1o2a44aigDRCpH2rVvjzKnTeJovdSKCIAiCIAiCfhARUsZ5cO8+upt2ZQFCQoTmiTSoUxdrVq1GYmKiukoQBEEQBEEQdIeIkHKAv58fxo4ezalZz9qYkaPg7e2trhIEQRAEQRAE3SAipJyQnJyMNatWoXGDBgVREeqe1bVTZ9y/d09dJQiCIAiCIAjFj4iQcgS18T1z+jQM2rYrmLJO6VnNmzTl+pH09HR1pSAIgiAIgiAUHyJCyiH2dvbo17tPQUSkVrXqPGl9/ty5CA8LU1cJgiAIgiAIQvEgIqScEhoailnTZxS08SURQlGRwQMGwMnRUV0lCIIgCIIgCEWPiJByDE1R37VzJ5o1asz1IdzGt1JlGHcwwKULFzl9SxAEQRAEQRCKGhEh5RwSGrdu3ERn4448T4QiIzWrVEXTho2wcf16pKWmqisFQRAEQRAEoWgQESIwbq5uGGk+nCMi2vQsup00fjyCggLVVYIgCIIgCILw/ogIEQqIjYnBimXLCtr30m21SpXQy8wMTx49UlcJgiAIgiAIwvshIkR4jpycHJw4dhxtWrRkIUJtfKtVrIR2rVrjyKHDyM3NVVcKgiAIgiAIwrshIkQoFMsnFuht1oM7ZmkjIyRIli5ejLi4OHWVIAiCIAiCILw9IkKElxIUGIipkyfzHJFn2/iOHDYcHm7u6ipBEARBEARBeDtEhAivhLpjbdm8CU0aNGQBQt2zaMghddO6fvUa8vPz1ZWCIAiCIAiC8GaICBHeiMuXLsHE0AjVKlYumLLetFFj7Ny+A6nSxlcQBEEQBEF4C0SECG8MTVI3HzIE1SpphAilZ5EYmTNzJkKCg9VVgiAIgiAIgvBqRIQIb0VUZCQWLVjAAoSM0rNIlAzo0xeWFpbqKkEQBEEQBEF4OSJChLcmIyMD+/ftQ6tmzXm6OteJVKqC9q3b4vTJUzyFXRAEQRAEQRBehogQ4Z0goXH/7j2YmXZFNUWAkBChNr4N69bD2tWrkZCQoK4UBEEQBEEQhOcRESK8F74+vhg/ZixqKQKkjtrGl+pExo0eq+zzUVcJgiAIgiAIwt+ICBHem6TERKxZtQqN6jcoGGpI7Xy7duqMB/fuq6sEQRAEQRAEQYOIEKFIyMvLw5nTZ2DQti0XqmuFSIsmzXBw/35kZmWqKwVBEARBEITyjogQoUixt7dD/z59WYBQG1+KjFC9yPy5cxEZEaGuEgRBEARBEMozIkKEIiciPAIzp01jEVK7WvWCOpHBAwbC2clJXSUIgiAIgiCUV0SECMUCtfGlaeotmjRFjcqaqAhFR4wNDHDl0mXk5uaqKwVBEARBEITyhogQoVi5dfMmOnc00UxZV9v4Nq7fAJs2bERSUqK6ShAEQRAEQShPiAgRih03NzeMGGbOkRDtpHVKz5o8cSICAgLUVYIgCIIgCEJ5QUSIoBOio6Oxcvky7ppVu1oNTs+i6EgvMzM8efJYXSUIgiAIgiCUB0SECDojKysLJ4+fQJvmLTkSohUi7Vu3wZFDh5Gfn6+uFARBEARBEMoyIkIEnWPx5Al6m/Xg+hBKzaLbhnXrYeniJUiIj1dXCYIgCIIgCGUVESGCXggKDMTUSZNRu3oNjoqQGKlRpRrXjni4e6irSheZmZmIiYlBWGgYAvz94eXpCScnJzg4OPA+QRAEQRAEQYOIEEFvpKamYuumzWhcvz5qqsMNKT2rS0cT3Lx+Q11VOkhNScHC+fPRvk0btGzaDA3r1Uf1ylXw3Vdfo9IffyIkJERdKQiCIAiCIIgIEfTOlcuX0dHAkJ12Klyn9KxmjRtjx7ZtSE9PV1eVbBITE7Fy+XKeFm/aqTOLqe8VAfLNF1+io6Eh7xcEQRAEQRA0iAgRSgSUtjRs8BAWIjxpvXoNttkzZiK0FEUR0tMzEBoaionjxuPrz7/At19+hfnz5slwRkEQBEEQhGcQESKUGKKiorBo/gLUrVmLBQjViVSvVBkD+vaDtZW1uqrkQ9Pihw8dxiKE7Py5c+oeQRAEQRAEgRARIpQocnJysH/vPrRq3oKjIiRI6LZDm7Y4c+oUcpX9JZ3AgEA0qFOXoyBUD+Lm6qruEQRBEARBEIgyKULyMjORHRuFjGB/pHi6IMnBCvEWdxFz+xKib5xX7Byib11C3KPbSLR7gmQ3J6QH+iIrOgJ56Wnqowj65O7tO+jRtRuqVqxUEBkhx379mjVISEhQV5VMnjx+gu+//gZfVfgc3bqYIioySt0jCIIgCIIgEGVChOTn5iA9wAfxT+4g7PQB+G1YDPeZI+Bk3hU23ZrB0qgOrMiM6z5vtM2wNqw7N4bjkE5wnzoUvmvmIvTYbsTev45UL1cRJXrEx9sbE8eN485ZlJpFYoSK1ieMHQdvZV9J5OnTp9i6eTOLkAoff4KF8+ZxdEcQBEEQBEH4m1ItQlK93RBx/ih8V8+By5jesDZtAot21WGpCAsSGdYmDRSB0QjWXRo/Y8rvL26j3zs1gFXHenxfegwrk/pwGt4V3kunIvT4HiQ52SBfnEmdk5iQgLWr13DL22enrHfrbIp7d++pq0oONBV+8ICB3Jr3i08/w8njx9U9giAIgiAIgpZSJ0LyMtIRe/cqfFbMVERCN0U8NIRlhxoa0aH8zIKis3qrigwbRZxozbZHS9j1ag2brk0Ltj0nRrT3VR6LRUmHmhxJcRjUEZ4LJiDy4nHkJMSpz0bQBTk5uTh7+gwM2rYr6J5VvVIVtGjaDIcOHEB2Vra6Uv/EREejXu3anIpVs1o1WFtZqXsEQRAEQRAELaVGhGQnxiPy8im4Th4E256t/k6vMqEIRn0WDrbdm8O+dxs4j+gKnwXjELxlMSKPb0fs1WNIuHceyRbXkWJ5EylWN5FseQOJDy4h7toJRJ3ejeAdy+GzZBJcx/aCfd/2sDVrycKEH5v/hiZKYtu9GZxH90Lo0Z3IjAhVn52gC+zt7XkOR40qVQtSs0iQzJ87D5GRkeoq/fLg/n38+etvqPDRx+jRvXuJeV6CIAiCIAgliRIvQnJTkhF98yKcx/ZRRUE9NXWqPosQux6t4Dy8C7wXjkf44U1IenQFme7WyPK2R7avI3ICXJAT5IbcYA/khngqRrfqz8o22pcT6IpsPye+T6anDVKsbyPq5C74LZ8K51HdYd+nrebvFfxt5VYRPY5DOyPs1H5kxUWrz1YobsLDwzFr+gwWHyRCSIxQmhalQDk7O6ur9Mfa1avxy/c/4uN//wezZsxUtwqCIAiCIAjPUqJFSJKTNbwWTVTToxooIqRRgfhwHNQR3vPHIPLETqQ5PWIhkROoERRsJD4Uy/Z31pgiMl5qyv4cf836gvurluFmhZiLB+G3TBEkw7vCitK0KPWLaktIkJjUg+vEAVzInp+VqT5zoTjJzMzEzu07OB2rYMp6lWowbN8BVy5fQX5+vrpS9/Tp2atgSOHB/Qd4W1xcHK5dvYpNGzZgxbJlOHniBLy9SmZhvSAIgiAIgi4okSIkOy4GwQe3wa53W8Xhr6Op21CECNVmOJl3QeCG+Ui4c45FQ16ol3Lr+mZi421MfTz6Gxw5CfZA8pNrCNm1Eq7j+mjEkEkDfm4cGVFu/TcsQnqAOJe64tbNm+jcsSMXqpMQoTStxvUbYMumTUhKSlJX6Y6oyEg0btAQn374Ed9SPcjdO3d42GKPbt0wZeJETJk0WXmudfl57tuzF7m50uxAEARBEITyR4kTITTXw2PuGEVwaLpbaZ18+/4GCNq8EEmPrmpEQahn0YqO15nyt3KD3ZEX5oVU23sI3bcOTsO7aASIWtRu0aEmnMf0Qvzj2+qrEYobL09PjBhmzilZ2nkiZFMmTkJgQIC6Sjdcu3IV1SpXweeffIqOhkaYP2cu2rdpi82KKAoN/bt+yNXFlUVKhY8/xfq1a9WtgiAIgiAI5YcSJUJi717hOgsqOien3qqTIkK6NoX3grFIvH+RIx4U+dCp+CjEtDUlKZY3ELBuLux6tubnyjUrynOn38OO75H0LB1B6U4rly3nYYZaMVJDEQO9zHrw4EBdsXTxEvz47Xf44ZtvuS6EhMjdu3fVvc+zc/t2Ttmq+McfuHPnjrpVEARBEAShfFAiRMjTvDxEnDuqOO+t1HoLTVcqx8EdEXFkCzK9bNnp5xqPQkSBPiyHIyMeys/OiL18DK7jexfMJaEZI1QvErBlOXKSSvZ077JCTnY2Thw7jrYtWhV0z6J6kXatWuP40aPIySneNr40pLBf7z4cBSFxUV8RRPdfMcfEysqKnyMVsA8fNkyvdSyCIAiCIAi6Ru8iJC8zAyGHtmnSriiaQEXonRvCY/oQJD68/Fz3qpJoFJ2hNK00+/vwWzGNJ7SzGOEi+nrwWT4DWdER6qsVihuLJ0/Qu0cPFiA0ZZ0iIw3r1sPSxYsRH1d88138/fzQpmUrbs1b8fc/FEF0TN1TOP7+/mjasBE+/s8HaNWsuRSqC4IgCIJQrtCrCMlLT0PQrvUsOsio85RN1ybwXzUDGa4WnPak79SrNzKKiihiKUv5OXTvGtj3accChIWVcV14LRgvQkSHBCgO/rTJU1iAUH0Ip2dVqYqR5ubw9PBUVxUtly5cRJW/KuIzRYQYte+AjIwMdU/h+Pr6ognXhXzCgun6tWvqHkEQBEEQhLKP3kQI1UsEH9ispjApAoSK0Lu3QMjO5Tzfg6ILhTr8Jdi4ra/yvKPO7IXDIOOConXq8OW9ZCp3/RJ0Q3JyMrZu3sJdqGpVrcbds6pWrARTk064ceO6uqroWLV8hSYV66uvMHHceHXry7GwsGBx9OVnFfDHL7/ixPHj6h5BEARBEISyj35EyNN8hJ85qEm9UsQHCRCqB4k4vEnTEjeo9AkQrWlb+tIkdqehJooA0Qw2pPbC1MI3Ny1FPQhCcUN1GlcvX4axgQEPNiQhQlGHFk2aYse27cjMKJrGAenp6TAfMpRTq0hQHDygmQ/yKs6eOcORE5opQulbZ06fVvcIgiAIgiCUffQiQuLuX+eohzUXcDeErVlLhB/cWDAgsDDnvjRZgRC5fhKOgxUhQq+Toj0d6yLkwBZFg0kRsi5xdnLC0EGDWYho60Tq1KjFE81pAvv7QilebVu2RoVPPkWVipXgovy917F86VLuovXN51+iVvUauHNb2joLgiAIglB+0LkISfF0hsOgjpqaiS6NYdutGUL2rOa6irIgQAqMXk+wO2IuHYZ9vw4stnjuSbemiLl9ST0agq6Ijo7GogULUa9mLVWE1OSoyIC+fWFrY6uuejduXLuO33/5laMaNMU9NeXV0S6K0AwZNIjrQb6q8Dnfx8PdQ90rCIIgCIJQ9tGpCMlJjIfHrBEFRdvkmAesm4MsX0fuglWoM1+aLcCFX1f4oY2wNWvBoouiP45DOiPV2009KoKuyMnJxcH9B9CqeXMWIPVq1eaC9Q5t2uLMqdPIVfa/CzTz49MPPuLIxugRI5Gb++rHCQ4KQoe27bge5ItPPkXfXr2RnV28LYQFQRAEQRBKEjoVIcH7NmoGECrOOE1E95xpjgxXS3XeRiFOfBkwnm3i74zAjQtYdGkmwFPHrIncHUzQPffv3UWPrt24UJ2ECHXQoja+69esRULC2811yc/Lx7w5c7grFg0q3LZ5s7rn5VD9B0VOaJ4I3Wf1ypXqHkEQBEEQhPKBzkRIot0T2PVtz/URPIhwWGckPbqCvFDPQp33smTU6SvDzQqes8xZfHFERBEkEecOq0dH0DW+vj7cxYoiISREtG18J4wdBy/PN2/jm56WjvFjx3Jq1U/ffY8H9++rewqHhhJSLQqJlm+++BIN6taFt5eXulcQBEEQBKF8oBMRkpuSDM95Y7lDlKYQvQUijm1HLgmQ0jAHpAgsN9QLCXfOwmGgEXcDs1aEmNMwU6QF+qpHSdA1iYkJWLd6DRrWq891IiREqlWqjO6mXXH3zh111atJSUnBqBEjWIT8+etv8PPzU/cUTlBgEIw6GODLTz/Dd199jTmzZql7BEEQBEEQyg86ESGRl09q2vF2ona89eGzaBzPAilTheivMxpoGOKBkN2ruFMWHQ8aZOi/aQlVKqtHStA1OTk5OHPmNAzbtec6EW1EpGWz5jiwf/9razWysrIwddJkfPrhR3y/kOAQdU/hXLxwgSMmVJDetFFjnrQuCIIgCIJQ3ih2EZIZEQLXiQNgpUZBHAcZI+nBJe4cVaizXoaNXnO6iwXcpwzk4nxKS7Pvb4hEByv1aAn6ws7WFgP79mMhQp2zqE6EbhfNX4CoyEh1VeFsWLceH/3r3/jrt98RGBCgbv0niYmJ6Ne7Dz5TBMsvP/7Es0IEQRAEQRDKI8UrQp4+RcSFYxoBQnUQnRshaMtizTDCcpKG9aJRWhZNVLft0YpFmWWHmvBbvxD5OdIdSd+EhYVh9syZBSKEakVotsjQgYPg4uysrvont27ewK+KqKD0Kns7O3XrP9m1YyenYX3/9TdYtmQpR1EEQRAEQRDKI8UqQrLjY+A2ZRBf9ScB4jS0M1Lt7pbNdrxvaNQtK8vbAZ7Th2qmxXesz3UiyW4O6lET9ElGRjp279yJFk2acFREO2XdqEMHXLl8WV31PIkJCRg8YABPTF+/dq269XkuXbiIv37/A19V+AIL5s9DWpp0RhMEQRAEofxSrCIk9sENrgPhKEinhgjZsVzTspasEAf9TS3H3xl5ga7IV8TMU9XyAl14+4tr85S/lR/k+sw610LX6dKoW1bMhYM8KZ7EmaVBTQTv34yneXnqkRP0za2bN9HFxATVK6nzRCpXReP6DbB54yakpqSqq/7GxsYGdWrWRJW/KsLCwkLdCmRmZmLv7j2oqAgQsl07digC5J/3FwRBEARBKE8UmwjJy0yH95IpBVEQhwGGSLa4/t4zQfJZfLgi1dMWgU9uwfbySfg+vI4Mb3s8DXZDripwSGjQ7xk+9gixugO7K6fhp6xL9bJ7bp0+jIRYpqcN3Cf1V45NQz5GzqN7IjMsWD16QknAy8sLI4aZo7Y6YZ06aFGa1pSJkxEYEKiu+psnjx/BoF17NG3UCNOnTsXCefPRo1t3LlgfPnQYrK2k9kcQBEEQBIEoNhGSHuAD256tWYBYGdeD/+qZyPJxeK+OWAjxQJoiIs7u3IhB3U1h2LIFjFq3QsuGDTCgWxc8OnOIxUVuoAsQ7A7XmxcwedggdGrXBiZtW6NT+7YY3qcn7p04wCJFbxER+tvKcYg4skUTJeLhjXUQe++aevSEkgINL1y+ZCka1avP9SHUPYtue3Y3g9UzEQ8ttP7C+fNc87Fi2XLs37sPri4uyMrMVFcIgiAIgiAIxSZCws8eZgFi3YWsMWIuHeai7EKd8teZr0aAxDo9wczR5ujQohk2LZwNn/tXkehqheuHdqFe9eqo+ldFXNizFYgLxOOzR2CiCJSlUyfA58E1pHvb48r+HWhQsyaqV6yEm4d3c3pWoX9PB0YpWSnWtzlCRMeIhJrvmrnIz8xQj6BQUsjPy8OJo8fQrlVrniPC6VlVqqJty1Y4cewYMjMLLzB/Kq2XBUEQBEEQCqVYRMjTvFy4zxwJK5oL0rE+3Mb3QarNnXdOxaI6jhRPW0wYMhB9unSC170risrx0tR5KM48CZTdKxehwiefwaBlC0Vg7IKZsQE2zJ+l2R/tB/9HN9DVsAO+/vIrfPXFlxg9oC/fT1/REIqEZHrZwnfpZC5Q55S1gUbIjAxTj6JQ0rCytEDvHj0L5olQehYVrlPUIzo6Wl0lCIIgCIIgvI5iESEZYcGwpyv8JvVhaVALgRvma9Kw3sHhz/F3AiK9sWPZfE6povoPhHs/Jx5ITNhdOonffvwJv/zwIyr/8QeG9eyOBBdLINRTub8PR04+/vAT/PDtd/j2q68xceggvYoQ7fDCqFO7WahxxEgRIvGW99WjKJREAgICMHXyZNSqrqkT4eGGlatihLk5PNw91FWCIAiCIAjCqygWERJz+xLserbi6eg23Zoi6vRu5EX4FO6Mv8YQ5gm32xdh2LI514KQIHlWONDPTxVn3urCCfz+08/47qtvONLBa8O9eD+JkB3LFqLCpxXw9edfok61anh85rBe07HI8hSBlPTwCqdkWXXSTFEP3rsBT5/mq0dSKIkkJSVh25YtaNKgIUdDKD2L0rRMO3XGzRs31FWCIAiCIAjCyygWERK4fRW35OWuT+amSLp/EbkhnoU64q8yKjKnVKzZY0aif9cuSPawUQTH85PWSWRQe97jW9ZyFORrRYC0a9aE60VIhNCaPEVsRNk/xM4VC7F48jhYnj/Gj/2mURBNR66iFyw0LyXd6RE8Z5pzTQi1M3afbi6DC0sBeXl5uHb1KjoaGHKhOgkRStNq2bQZdmzbgayX1IkIgiAIgiAIxSFCngIes0bB0rC2YnXgMX0oMtwskRP49k48pUuFWN5Bz45GOLRuOdd2vLhG22p32fRJ+Om77/Hpx59i0rCB3Ir3WeFAYiZXER2Zvo7cOYt+1u57mdEahHpw+994Z4s3Fi1vajwzRXnMwA3z+HhRbYjDQGNkx8WoB1Mo6Tg7OWHooMGKEKnK7XvJKEVr1vQZiIyIUFcJgiAIgiAIz1LkIiQnMQGu4/tzy1lyrP1WTEVuqOc71YOQiIiwe4DL+7Yh1OoO8hXx8OIaGkaYpQiLIT264ftvvsXnn1bA9qXzWbC8KBo4svKKCAhtR4i7Wkfiy2lcVNA+Z+xILJ48nv+OVvQUlVGaWvjhzbA0rsuREPs+7ZDspgglodQQFRWFRQsWoE4NTfteEiEUFRnYtx/sbG3VVYIgCIIgCIKWIhchKV6ucBpmCityqjs3RPCO5e9cD0LG0YgQDxYPhe2nVKlYx8doVq8uvqzwBapXrIibR3YrnqFvoetfZiRA0r3s4KeIDqfr53D94E6smDEZBi2b4z//+gBdOrTjQnf6e4Xd/10tL8wbsZcOF9TQ2PVohZjbl9WjKZQWcrJzcOjAQU7Hova91DWreqXKMGjbDmdOn0Z+vtT5CIIgCIIgaClyERL35A7s+3VgEULDCiOPb3/3+SCvsRzFKLXq0alDqPrXX5yK1bFta0VIXOeIRmH3eZlRcTtNVDft0B5d2rdDj45GGDeoP1o1asgF7WbGhsUiQqhWJvH+BUW4dea6EJtuzRB2fI96NIXSxoP792HWtRt3zCIhQoXrNOhw3Zo1SEpMVFcJgiAIgiCUb4pchERdP6eIj1YsQhz6GyD2ytF3ng/yOuP0qVAPrJ8/E7/++BM+/vBjjO7fB7lBrsgNeLv0L0qzIpFx99g+7pzlee8KDzgcP2QAPvnok+ITIYqISrG+BdfxvWFlVJcHOwbuWK0eTaE04ufri4njxnNqFrXxpToRqhkZP2YMfLy91VWCIAiCIAjllyIXIeGn98PatDFf1Xcc3BEJt8+yo12YA/6+pqnh8MAgs674osIX+P7rb7B+3sxCC9i19qqaEBIiVAeCCMVRVIxa+I5SRE1xihDqkJXm8ADuUwbCkkSISQP4rp6jHk2htJKcnIR1a9aiYd36BWKkeqUqMDPtint376mrBEEQBEEQyidFLkJCD2/j2gYSIU7mXZD0+Co72oU54O9r+UGuCLW+i7ZNGnMqVq0qVXD90K6C1rwvGgmQTB8HLjAvbP+zRoKExEqxixDl8TJcLeA5cxgX89PgQp+lU9WjKZR2qB7EqIMBzxGhgnUSJC2bNcfB/fuRkZGhrhIEQRAEQShfFLkICd6/iVOxSIQ4j+iKFKtb7y1CqDi9sJa6NMjw2sGdqFmlMguFtk2bsCgpbAgh3T/N0xbblszjGSKvm/uhUxHiZgXPWcNVEVIP3ksmq0dTKAvY2NhgcP8BihCpxPNEtJPWFy1YiAhp4ysIgiAIQjmkxIsQqvkgUfE02I1Tr57bF+2HVbOm4Luvv8EXFT7HIDNTZZ17oelWFB25e2I/mtStC8drZ/lxX1zzrOlShGS6W8Nr9ghuaSwipGwSFhqKubNmo7YiQEiEaKesmw8eAidHacksCIIgCEL5oshFSMjBLSxAOB1reFckW9x4JxFCAoDSp+6fPIhhvcwwtGd3PDx9qEAc0PDBFC87DOjWhVOxfvr+eyyZOp6jIy+KEK71ULZPMR+MEf16IcXdhlO5nl3zoukvHUtESFklPS0du3buRPMmTTktSytEjDsY4MplacssCIIgCEL5oehrQo7thnWnhhoRMrQzEh9cQm7Q2xemU0TD8+5lNK1XF58qIuCD/3yI4X16ItHViiMjNEzwkSJKalaujC8++xx//vIr9qxazNGSHP+/H4eEhGbtYZ75QUKGBMmzf6sw05kIUV5LuvNjeEwfohEhJg3gs2KmejSFsgbNC7l96xZMTTrxQENKy6qh3DZu0ABbN21BamqqulIQBEEQBKHsUuQiJPLCMZ51wS16Bxoh/sbJt27RS84/OftHN67Gt19+jR+++RafffIZRzJSPGyACB9eM2HIADSuXRuVfv8DP373PbYsnstdrbQihCMgUb4ItryN7oqIWDZtIkdAKIry4t980XQlQqhzWKrtXbhN7KfpjqUIOP+NipgSyjRenp4YNWIEzxHRtvGl2ykTJyEoKEhdJQiCIAiCUDYpchESc/cK7Hq3ZRFi36ctos/vR+4LtRyvM3L+qQbkyv7t+OqLL3kGSE8TY/jcvwYkhSI/1AMbFszkQYK2l09hztgR+PA/H6FPl07IVu6LWH8WH1QH4nD1DAZ2M8WoAX0Q5/TkjYcY6k6EeCDpyTU4jzLjY2Zt2gTB+zerR1MoyyQmJGDF0qU8zJDSs7Tds3p27w4rS0t1lSAIgiAIQtmjyEVIor0lHAYZs0Nt07UZwvevR164d6EO+KssXxEhsU6PMbC7KX7+/kfMnzCahwhe2rsVU0cMgUGLZrhB7XgjfRBmfZdnhfz8/Q+YOHQgbhzZg6v7d3Dkw7BFc0wfOQxR9o9eW4z+rOlMhIR6Ie7GSdj3N+B6EBuz5oi8dEI9mkJZJy8vD8ePHkO7Vq25PoSmrNeoUhVtWrbEyePHkZOdra4UBEEQBEEoOxS5CMkICYTzqB48/ZuESOCGeciL8CnUAX+dUTQkxuERti2ehxF9e2Fwj67o28UEU8yHwPnGWY50kFAArXN8hL2rlmBIj24Y0LULF7KPHzwAl/duQ6aPo7Lm7epSdCVC8iN8EXVmD6y7NIJ1pwaw690GiTaKYBLKFdaWVujdowcPNKSCdYqIkCBZvmQpYmNi1FWCIAiCIAhlgyIXIfk52XCbMpjbzZJ5zxvDznaOv8s/HPA3MSo0J7FBUREqVPd/fEOz/YWBhJRmRdtIKPg8uIaAxzeR4ePAkZI3qQF50XQiQpTHzw3xROiuVXysSITY9+2A9CA/9WgK5YmQ0BBMmzSZa0PYqtdgMTLS3BweHsrnQBAEQRAEoYxQ5CKE8Fk+A9o2va7jeyPF+hYXYBfqiL+BkRjgOSGhnpxSlRdYuKDhddQ5S1lD4uVdxIfWdCFCeEaIpy18l02GJdWDmDTg2pDc9DT1SArlDeqOtXXzFjRr1LigToS6aFE3rds3b+Hp06fqSkEQBEEQhNJLsYiQ8FP7NR2yOtaHfd/2iLtyDHlhb18Xok/ThQihKAgJNJfRPWBlUp87Y/muno2neXnqkRTKIyQ0rl65go4Ghn+38a1SFS2aNMWu7TuQliYiVRAEQRCE0k2xiJAkZxvY9WnHV/bpCn/YvnXIC3+3uhB9GYkQiqSMGdiPRQh150p2sy5SEZIX6oX46ye5gN+6cyO2yItSlC5ocHZ0wtDBg1GjctXn2vjOmjET4eHh6ipBEARBEITSR7GIkNzUFDiNNOOr+zSAz3vBWGR4WHP6UWHOeEkxinzQnBFu7xsbwDNFqBD+kw8/hnHrVoi0ewAkBGn2R/iwUCnscd7I+L7OCNm5gtPWrLs0hm235kj1dlePoiAAkRERWLxwIUdDaKaIdsp6/z59YWdrq64SBEEQBEEoXRSLCCECNi/l9CIy+34dkHjvAvLCni8mL0lGEY54FwvsXL4QiyaPw7zxo2De2wx//PILT2T/9QeaVWKEOeNGYsHEMdgwfxbCrO8h7x2FCNXIpLs8geuEfnyMrDo1gOukgchJSlSPoCBoyMzMxJGDh9CyaTPUqlqdu2ZVrVgJhu3b48zp01InIgiCIAhCqaPYREiC9UMevEetZ+lKf9iBDRwJyXmf6EExWn4QzSV5gpUzpmDy8MGYNmIo29KpE7BmzjSeOTJjlDmmKtsmDxvEQiTI4va7iRB/Z+QoIiT+5inYdmvGURArw9oIPb4bT/Pz1SMoCM/z8P4DdDc1ZSFSr2ZtrhNp3KAB1q5ajeTkZHWVIAiCIAhCyafYREhOQhycR/bQRENMGsB9ykCkOz9GjuLsF+qYlwDL8nVEiocNW5qnHTK87ZHp48DbadZIhrcD0rzsCtZkKtsLe5zXGQsxRYj4r5oO687K8encCDZmLZDs5qgePQ052TnIyMhQfxMEwN/PDxPGjePOWVQjQkZpWuPGjIGfr6+6ShAEQRAEoWRTbCKEOjyFHNrONSF0pd/GtAliLx9GbtC7t+rVhVExOqVm0a3GXDjawbfqNu1+qiEp7DFeZxQRSrW+DYeBRixCLA1qwXvJVOSmJKlHT8PZ02cwZeJE3L93D5ERkepWobxDUY/1a9eiUb36HA2hehGqE6EoyYN799VVgiAIgiAIJZdiEyFEipcb7Hq31Vzt79QQXrNGINPbDjkBJbtAvVhNTcUK2jAf1qaN+dhYKccm5tYF9ahpiI+Px6jhI/DXb7/z1W4qRN67axfs7eyQnZOjrhLKM+fPnuW6kOqKANFOWW/ZrDkO7tvPdSSCIAiCIAgllWIVIflZmfDftAQWHWpouj+ZtUTslSPvNbiwtBtFgmg2iNPQTpruYQY14T5tGLLjY9WjpuHWzZuoWaUqCxB2MJWfq/5VEe1bt8HM6TNw7sxZREREqKuF8oqdnS0GDRiAahUr8fuEWvjWVWzxgoWIjJTomSAIgiAIJZNiFSFEkoMlR0Oo+xOZ+9TByPS0KZ/REDUKErBuLkc/uF6mcyNEnD2sHq2/8fb2xqxp09GmRUu+wk3OJRnl/1f64080qFMX/Xr3weoVK9kRzX8qBe3llbCwMMybNbtgjghZ9UpVYD5kKBwdHNRVgiAIgiAIJYdiFyFPc3M4GkJX/LkAu2tThB/YwNPCC3XUy7DRcMK4G6fg0N+Qp8lbGtaG25QhyE6MU4/W82RmZMDX1xcH9u1Hv1690aRBQ3Y0SZSQGKE6APq5XavWGDV8OE6fPImY6Bjky8T1ckdGegZ279zJU9UpaqatE6Gp65cvXpQ2voIgCIIglCiKXYQQqZ4ucBzaWXG867Lz7WxuiuQn15EbWn6ECKWgZbpbwXP2cFga1eUoiE335oi+dVE9Sq8mNSUVjx4+xOwZM9ixpEgIzYogEaI1KlQ2MTTGimXL4GBvj8REmTlSniChQWl8XTt3ZgGiHXBI4nXb5i1ITU1VVwqCIAiCIOgXnYgQgjplWZvU1xRiG9eDz+IJyPKxR04J75ZVFEYteUmEhO5ZrSnSV2eneC2dhvycbPUIvTnBwcHYt2cPRgwdhtYtWqLKXxVRvXIVTsOhSAkZCZIRw8w5OuLt5Y18mT9SbvD09MToESNZmGrTs2pXq4HpU6YiMDBQXSUIgiAIgqA/dCZCqPDabdpQWHWsx064dZcmCNu3jkVISR1gWCTm76wIEA/EXz8Bh/4GGhHSqSG3503xdlePzrtBHZDu3b2HFcuWo0fX7tyutepflfgKuPYqOKfkGBphpbLm7u3bSIiPV+8tlGXi4uKwYvlyNKxTl98HNGWd3h+9zHrAytJSXSUIgiAIgqAfdCZCiEQqUu/TVlOQrZh93/aIvXKMnfR3nblR0o0iICnWd+A6phenolGXMBreGF5IMfr74Ovjy1GPSeMnoGmDhgWREeqYRE5o5T//4rScEebm2LVjJzw9PNR7CoWRm5tTbOlL1GJZFzUaOcrfOXHsONq1bsPvB60QadOyFW/Pk9ohQRAEQRD0hE5FCBF2aj93ybJRnHGKijgP74qkR1dZiBTmxJdmoyhPuosFPGePYAFCAxupGN1vzVzkZRXPHIfkpCSuB9myaRO6du7ydzqOmqZFqVskSjobG2P61Gm4duWq1Ao8Q1RUFFYsXYbuXUzRycgYw4eZw+LJE3Xvq6E0uZMnTsDdvfAIF6XEnVL20+OaDx2KoKAgdU/xYm1lhd5mPVFDESIUISMhQoJkxdKlHDERBEEQBEHQNToXIbnpafBbtwBWxnXZKSfn3G1iP56dkRtSdoQIzQPJ9LSF79JJHPlg0WVUB26TByEjrPidT3J4o6Oice3qNYwfPYZb/VJUhK6Ikwghh5Sc0WaNGqNndzNs3bwFPt4+5XrIHb1+s67dMHL4CDx88ABXLl1CTeVYUW3Fvbt31VWFExMTwy2Tv6rwOcy6dUd29j9rfawsrXj45KcffoQvPvkUy5Ys1Vk0IjQkBFMnTWYRohWkZCPNh3MNiSAIgiAIgi7RuQghsiLD4T6DukTVVoSI4pyb1If7pP5Itb2r6ZhVylOzSExlednCb9lUTeoZCRBFdDkO7YJkZ1v1KOgOSsvx8PDAxvXr0adnTzRv3IQ7a5Egqa062SRQaNr2pAkTcfP6DZ49UZ5ISkpCLzMzzJg2Denp6epWoIciKP77//l/lePW65WC4dLFS/jz19/w4b/+DRMj40LTrc6fPYfPFfHx03ff47uvvoZpp85IS0tT9xY/9Lq2bN7M/3/63/MQTOV/37ljR9y+dUva+AqCIAiCoDP0IkKIVG83OI/ppQiROhonXREibhP7q617vUptjQjNP8lws9REQLQCpGM92PVpj7gn99RXrz+Sk5Nx8cJFzJw2ndOCqHCdBMnfXZSqc6TEzLQrtm3ZAlsbG506yvpi/bp1ijNugtjYvyfXZ2dlwdSkE/7zP/+Llk2bISz05cKMCv8rfPwJfvjmW8yeNUvd+jwR4eHo26s3vqzwOb7/+hu0b9MWKSkp6l7dce3qVRZK2inr2ojY3l27JTVPEARBEASdoDcRQqR4OMN5pFlBahbNz3AZZYb422c4mlCqumZRFyxFgFA0x2vuKFgqwoNeE7UltuvVGjG3L6mvuuTg4uyC3Tt3YfjQYdxFiepFni1mp99p+N3UyZNx6sRJBAYEqPcsW0RHR8OgXXt+jc9Cx6ep4px//O//cJQoIjxC3fM8NCiQppN/pKyjaAjVhbwMT08vtFAEDQmW3j16Phd10SX02oYOGswCRJuiRf/72TNmIjQ0VF0lCIIgCIJQPOhVhBApHk5wHtOTowWcmkVpS4OMEXl8u2a+RpBbiU/Pygl0RU6wO09Ddx3fhwWItVaA9G6LmFslT4A8C01Zv3/vHpYvXcbOeI0q1dgpJee0jnJLnbXqVK+JXt27Y9niJTw0Mfsd5puUVPbu3oN2rVohPDxc3aJh+7Zt+PGbb/Hlp5+hf5++L521QoXorVu0wOeKsKDIEk25fxWbNmzgtKwJ48Zzqpy+iIyMxJJFi1C3lkaE0P+7eqUqGNC3H+xsdZ82KAiCIAhC+UHvIoSg1Cwq2NbMEKH0pfqw7dkS/mvnIN3lCRd5k6NfmADQp5FIog5YWd72CNu/Hg4DDWFprL4G5dZhsAniHtxUX2XJhxxif39/nDh+gq+SN67fgK+OU1SEnFRysMlJpRavwwYPwf59+xEeFlaqByHSa6bXOm/2nOdeR0Z6OoYOHoyP//MBfvvpZ+zbvVvd808uXbqEn7//Ad988SUM23dAZsari/tv3rjBwm7T+g16r8PIyMjAkUOH0KpZ84LaIPo/0+s4e/qMukoQBEEQBKFoKREihMgIDYL3oklcG6KZrN6IaypcJ/RB7OWjyPJ1LDkpWpx65YFs5bkk3r8I73mjYdO1KXfBoudMXbBcx/dHkoOV+upKH1SrYGdrh8ULF6GTcUeewE7FzDWrVGVntUblqmhYtx47qwvmzsOTx0+QkJCg3rv0QE747l274OTopG7RQJGABnXqcsSChFjQSyeNP8W6NWvx6Qcfcj3InJmzXivKaFhgvdq1cfvmmwnU2NgYbrl8+WLxRdQePXjAdUD0v6XXS7c0V2bNqtVI1kPdiiAIgiAIZZsSI0KI3KREBO1aB5tuzWBlXEfT1lZx7O16toL/qulIenSFIyJ5oV6KENCDGFHFB800SbW5g6BtS3kKOj1HbQSHRJTP0mlID/ZXX1XpJyoyEsePHMXoESPQngbfVarMV8spOkKF7OS0kiAZ0Kcvjhw+DC8vL2RlZan3Lp3s3LEDX3zyGXexGtS//0uFRVJiIkeFSKyQCLlw7ry65+VcvXoVzZs0hbdynF4kNzeXBSAdcxdnZxw/doy7V9HzmDR+vLqqeKA0sonK3yABQtEvbRRswtix8PfzU1cJgiAIgiC8PyVKhBCUnhJz+zKcR/eApUEtTURE7TDlOLgjgrYuRtKDSxoxEuatm8gIiQ9F+FDhOc0zCd+/Hi5qHQs9PxJL9FztFUESenw3ctPKZochalFraWGBNStXoV+v3qhbo5ZaL6KpJ9CmbHVo0xaLFizAzevXue6gtEEdxEhYUPH4j99+h+NHj6p7/gkJCRJglIpV8Y8/eNbI66CZLNTyNz4+Xt3yN48ePsKYkaPQv08f9OzWHd1Nu6J6lao8f4Sm4Rc31Kp4/dp1aFinHosRGmpI/1Oan/Lg3n11lSAIgiAIwvtR4kSIlrQAH/hvXsJpTpqi9Sac6mRJhetDTOC/egZiLx/heRx5YV5cm8GChIrY36eQXb0/13sEuqlRFyck3D6LoM2L4KKII4p8UMSDhy1SFKRjfXgtnIgkJxv12Zd9aPgdXfWfNX0GWjdvyW1+KSpCNQV0Bb3qXxWVn2th8ICBPJvC3s5OvWfJhybOU/vab7/8CjWqVkXAK7qC3bp5E98qAoTWdu3cuVBh8SwUURk1fAQPKiwsuuLh7oF9e/bi2JGjPOmc5rX0MuvBAw4nT5ioripe6ELAhfPnYchNCjTT1SkVr3XzFjiwb3+hgxgFQRAEQRDehhIrQoj87CzEW96F+/ThGmefrHMjTnsiMWLftz08pg1G8LaliL95BpmeNppOVQXm9vfPAWSKsHjOtOsUC3pmrWJZPg4ccQnduwZes4dzxy4SHtS9i6MzJESU5+E8sgeirp5BTlLpq4coCqiA29nJGXt27UKvHj1Qp2ZNjoiQEGExog5FNO5gwIMQz545g/i4OPXeJZO9u3fzRHMSFiPNzZGRUXgbXYoMrV29hqMUZNRpitKpXkVQYBDX2Fy/dk3d8mpSU1LQvYupTkWIFhKOA/v3LxhsSKlZdLtw/gJuaywIgiAIgvCulGgRoiUnMR7R18/DdXw/2HRtxs4/CwLFaLYIRSSoNoNmjPgsnoCwA+sRf+MkUh0eIMPdGpkeNsj0skWWtx13stKYHW8j4ZKprElzeoyEO+cQcXQr/FZOh+u43nAcaASb7s1Z8Gj+JgkPTftdx2GmCDu2h6e/Cxqio6Jw795dzJg6FW1btuIr6Nr6ArqiTmk9TRs2glnXrli9ciVcXFyQmfnqTlK6hob1jTQfjq8//wJfK8Li1CtmflDaFkV6SKx88elnuHjhgrrn5Zw8fgIdjYwQHBysbnk1iQkJehMhBLUtnjt7NgtKbf0PiRJKVyPxKQiCIAiC8C6UChGiJTclCdG3LsJjziiuv+CIiEEtFgYagaDpqmXTrTkXs1OkxHlEN7hPHQyvOSMVgTIRvssm8zRz3yWT4DVvNDymD1HESw849OvA97FVRAfXoLDI0TympWFtnuxOMz/cpgxG+OkDyIqNUp+V8CI5Odk82HDXjh0Y0LsPTxsnx5VMK0iohoQGIY5SHP4L5y/wNPK83Dz1EfQHpT/R8yJhUfH3P+Dk6Kju+ScUDWjbqjXXg1RVBNar1hJUrD98mDl30HpT9C1CCEq/2rNrNx8X+h/S/66GctvRwBCXL13iiJAgCIIgCMLbUKpEiJanublItLdE4PbViigYAvt+BopQqAXLDjU4XYoEBKdMsTV85ueXGa3RrGPhoTyGpUFNWLSvAdterTkC47dhIeIe3kRuetksOi8uqAXu7Zu3MHfWbJh26swihCaxa1O2uMOWYiZGxtzq1trSUq+tfv18ffHHL79yJIQERmDAy1rzAkFBQZxu9uVnFbhVMaVavQpXF1eevH7rxg11y+spCSJEC8036dqlC79mbXoWtfGlQnuKCgmCIAiCILwppVKEPAvVYiRYPUTYsV3wXT0brhMHwK53O46QWLSvzreWRrVhZaSIExIobPUKfqYIB0c6FAFDZmvWEi5jesF76TQE79uE2Ac3kBUlKVdFAXWOOrh/P8aOHo1mjRqj8h9/sgApKGZXnFuaRzJu9BgcPXwYnh6e6j11h4+3N375/gd8WaECupmaIiIyQt3zT3x9fPDLDz9y/Qh1u4qJenWdxNbNm9CjWzfuQPWmlCQRQnh6ePD/TxvNIqOUu+lTpyLAv+y0pRYEQRAEoXgp9SLkWfJzspEREsBDAmPuXEHY8b0I3LEafmvnw3vJFHjOGwuP2aPhMWsk/+y1aBL81sxFwNYVCD2yA9E3LyDR5jHSA7zLbJvdkkBiYiIePXrEkY8uHU0KBiCSQ0tihDpT0TDErp06Y+H8+bh5/QbSdPT/CAwK4iv8X35aAaadOiEi/OUC9Mrly9zC94vPKqB3j56vLNYOCw2FibExTp18eY1JYZQ0EULExcVh5fLlXPNDx4pEJNX7kBCzePxEXSUIgiAIgvByypQIKYz83BzkpadxxCQ7PhbZcTHIjo3mn6ngPU9xbvOl5aheoFawdPX84vnzGDdqNJo0bMRChAqgKUJC9QeUukU1JYMHDsT2rVvhr6yn+xUXFKUYNGAAzwipoQgjDw8Pdc/zpKenszj46bvvOXWL2te+KhKwYN58DBk4CJmZGeqWN6MkihCC6ltOHDuOdq1aF0RF6P9Fv588flzqRARBEARBeCVlXoQIpQPqSuXm6oq1q1ZzBKRx/Qbs3FKEhIymtNOV9w5t22La5Mm4c/s2R1SKGhI41D735+9/wCcffIitW7aoe/4mJydHERXzMKBvX+zYth3ff/0NT0ynFLIXoaLu7du28dRzb29vdeubU1JFiBZrSyuOgGiFCEVG6tepi5XLlnPERBAEQRAEoTBEhAglChIBNEfkwrlzGD9mDA/MKyhmV27pZ4qS0JRys27duGuTh7s7i5iiIi8vH9u2bOXuWD999wOnjbm6uHAUxtHBATOnT4dRBwOuj6C5IDR48OcffkTlv/7C/r17OXri6+sLK8VBp4J8mjb+6OFD9dHfjpIuQggaXDlt8pSCKJa24QANZfTy9FJXCYIgCIIg/I2IEKFEQ21vN2/YiEH9B6Bhvfqo/OdfLES09SN0BZ7StWZOm44rly4hOOjVHarehvv37mHMyFHoaGjINR+DBwxA185dMHbUaBY+z3Ll0mVOt6J0pG6KaBjYrz+6dTbFnJkzEaI46e9KaRAhRFpaGnfJooYDlJZFdSI1q1RDZ+OOHLUSBEEQBEF4FhEhQqkgJiaGHf0Fc+fBsH17joxQmhY5uyRIqDC6lvJ73169sHH9ejx5/Bh5ea+eXv6mUME5iaF7d+9yRORV+Pr44tHDR3j44EGRCKLSIkK0XL1yhUUb/T/q16rDIpGEyZ6du7iORhAEQRAEgRARIpQqqB6DhMChgwc5MlFfnVdBURGtGCGB0q51G0wYOw5Hjxzhqd+lldImQgg3NzcMGzy4oOMZ3yr/n9kzZ3GXMEEQBEEQBBEhQqmFoiMWTx5j0YIFaN+mbUHLWDJyfEmM0NwRSqGiVr+2NjbIysxU7106KI0ihIiNjcVi5f/SoE7dApFI3caomN/B3k5dJQiCIAhCeUVEiFDqycnJRlhoGA4fPMR1Ga2aN2fHl1O0lFtKCSInuHnjJhgyYCCOHzuGkJBg7lxV0klOSoJZ164sQqZOmqxuLR1Q1OrwwYPK/6NFQfcsuqVmA+fPnkNuTtGkywmCIAiCUPoQESKUKcjxtXjyBIsXLuSuVNQutopazF6neg3u2kTOcPvWbbB08WI8fvgQUVFR6r1LHkmJiehkbIxPP/iQi+RLIw+VY9xD+V9QwTode/pfUAvmdavXICEhQV0lCIIgCEJ5QkSIUGahrlTHjhzFpPET0LpFS1T+48+COgWqUaBIST3lZ/MhQ3Bw/344OzujGOcgvhEJ8fG4fOkSR2sOHjiAqZMn49cff8JH//o3P19y3I8cPswDAanrVGYpSS+jgv2J48bz8SchSJEp+nn8mLHw8/VTVwmCIAiCUF4QESKUeTIyMmDxxAJbNm5CL7Me7Pxq04PI6Ap91YqVuKvTvNlzcOnCRb1doff388OYUaPQt3dvNhoEOGKYOcaNHq2IpaHoaWaG/n36ol+fPpgze3axDGwsLhIS4rlzGc14oXkiVMNTtWJljpI8uHdfXSUIgiAIQnlARIhQrggODsb1q1cxbcoUtGjSlK/Ia6/MkzChOSRNGjRiR3/D2nVwd3NT76kbqE4lOiqKU8RoaGNSUhJSU1KRlpqKlJQUFh1xsbG8n4q/8/Ly1HuWDqht8sXzF2DQth2LQWqxTBGeNi1a4sC+fTz8URAEQRCEso+IEKFcQsP1vLy8sH3bNr4STzUKVKtAjjHNG6lWsTJHSchZHjd6DK5cvsLOf35+vvoIwvvgYGfPAx3peGtTsygyQl3MYmNi1FWCIAiCIJRVRIQI5Z7k5GTcunmLu091NDBk8VH1r0osSmpV1bT8pRSiLiYm2LhhA5ydnDlCIbwfNL+F0t9IhNBx1kajhg0eAhdnZ3WVIAiCIAhlEREhgvAM3l5e2LFtOzvC1NKX0rO09SPsLCuCpEmDhlxkff7cOfj5SVH1+0BzW/bu3oMWjZuiRuUqnJ5FNTodDY1w5fJlPNV3pwBBEARBEIoFESGCUAgpKcm4fv0alixajC4dTbhwXdtiloyECf1OMzzWrl6N+/fuIT09Xb238LbcvnWTh0pSfYh26CSJvW1btiA1JUVdJQiCIAhCWUFEiCC8Bk8PD26ZO3rESDSsV58FCEVFSIxQLQNFS1o2bYaxo0bhwN59CPD3V+8pvA10nMeOGo3qyvGliAg1DKD6nBlTpyIoMFBdJQiCIAhCWUBEiCC8IfFx8bC1scGaVatg3MGgwFFmZ7ladVT5syILE4qczJ4xk9vOSnTk7aDWyCuXr0CDOnULupZRdKRvr9548vixukoQBEEQhNKOiBBBeEuojWxURATOnjnDMzxaN2vOzjKlZ5EYqVG5Kt82b9IU/Xr3wb49exEYEFBqBgvqG5p6f/zoUXRo06YgBY6iT+1atcbJEyeQmyNtfAVBEAShtCMiRBDeAxIkTo6OWLFsOQ9CpDoGSs+iNC2OkihihCImrZu3wJxZs3H3zl3uCiW8HksLC/Tr1RvVVCFCx5PqRVatWMntkgVBEARBKL2ICBGEIiImOgZnTp3CtMlTYNiuPar+VfG5YnbtTIx+vXtjz65dsLe3R1ZWlnpvoTCCg4IwY+q0grQ3bVSE6nM8PTzVVYIgCIIglDZEhAhCEZOf/5RrR3Zs24ZB/QegjuI8U10DOdAUFdEWs7dv3QYzp0/H2dNnEBkZqd5beBGaGL918xY0bdiIj522jW8Xk064c/u2ukoQBEEQhNKEiBBBKEYo9er2rVuYP3ce2rRoybUiJEpIkNDPJEYa1K6Dvj17cZoRiReZjfFPSNhdu3IVJoZGqF5JM0+E5oo0a9QYe3ftlnobQRAEQShliAgRBB2QkZEBP19fHDxwgOscGtdvwOlFdGWfxAjNIaHb9q3bYqT5cJw6cRLR0dHIy8tTH0Eg3FxdMWzwYI2Yq1FTjYzUwpxZsxAREaGuEgRBEAShpCMiRBB0DKUXPX70CHNmzoKJkRG3o6V0LXKotdagTj2eGr586VLY29khMSFBvbcQGxuLRQsWoEHdeqhZpVpBVGlg335wsLdXVwmCIAiCUJIRESIIeiQkOBh79+zlVr+UrlVFLWanq/wUKaHUrYaKsz186DCOjnh7eSM/P1+9d/klJzcHhw4eROsWLf5Oz6pSFR3atMWFc+e5a5kgCIIgCCUXESGCUALIyszE/bv3sHLZcvTo2o2jIS8Ws5M4oZoIio5QQXZ8fLx67/ILRZS6m3blY6U9To0U0bZh3ToefCgIgiAIQslERIgglDD8ff24Y9aUiRO5IxQ52BQZISeb5o5U+uNPrikZMWwYdm7fAXc3N/We5RM/Pz9MHDe+oE5EW2szYew4rsMRBEEQBKHkISJEEEooyUlJcLB3wJbNm2Fq0gn1amoG9mmN5pCQ4011JTSb5OqVK0hJSVHvXb6gqMeG9evRqF59PiYUQaquiDeKKj188EBdJQiCIAhCSUFEiCCUcKgGJDoqCteuXsXEsePQpkWrghoIcrgpTatG5apo3rgJepmZYfPGTVw7Qh25yhNUB3Lh/HkeFEnHhoWIcmzatmzFXclysnPUlYIgCIIg6BsRIYJQiiBH29vLCxvWrUffXr1YeFB7X3K6KVWrVlVNt6gWTZth0vgJuHHtGsJCQ9V7lw/sbe0wsF9/zTGpXoOFWv3adbBo/gLExcaqqwRBEARB0CciQgShlJKUlITLFy9h1vQZ6GRkzFf9KUWL6iLqqrURZN27mGLbli2wtbVFamqqeu+yTXhYGObNnq0RIaowI1FiPngIzxp5U2hOiwyPFARBEISiR0SIIJQBXJydsW/PHm7126B23QIxwsXsiiNe5c+KaN6kKSZPnIgTx44jwN9fvWfZJTMjg48JRYuoUJ2iIVTk38m4I65cuqyuejVBQUEs9gRBEARBKFpEhAhCGSI2Jhb3793D8iVLYdTBoCAliSIBWjFSu1oN9OzeHcsWL8aD+/eRk1O2ayWonTEV9tOxICFCt80aNcbWzVuQnp6uriqc82fPwVc6bAmCIAhCkSMiRBDKINnZ2RztOH3yJIYOGowmDRqyEKH6CBIjFBGg9K02LVth6ODBOLBvH0JDQjj9qCzi5emJMaNGcUTk2UGQM6ZMRXBwsLrqnyxfuoy7jgmCIAiCULSICBGEMk5qSirsbG2xbPESrh2hNrYkQMghJ6OfG9Spy12l5syaBUsLizI56I9e06oVK/i1asUIvfY+PXvxay6MebPnYPSIkcjKylK3CIIgCIJQFIgIEYRyRHR0NI4dOYoxI0ehQ5u2HBGpVrESRwY4OqA45uSkD+jbD4cOHuQIQllywKnI/OTx42jfus1zU9bbtmqtbD/BESQt1Bp5yqRJfEy8vLzUraWLp7m5yE1LQXZ8LDIjw5ARGoiM4ACkB/ryLf1O27MT4pR1qXial6veUxAEQRCKFxEhglAOyc/Pg7WlJdatXoP+ffpwqlaVP//SFLOr9SMUJaAZGwvnzcf1a9cQER6u3rv0Q5GP/n36sgDTFu9TvQhFSqiuhoiNjcXQQYNQ8fc/sHTJEt5WksnPylRERRCSHK0Rc+cywk7uQ+D2VfBdORuec8fCdeIAOI/sDifzrnAY3JFvnUeawXXSAHjOHwffVbMRuHMNwk8dQOy9q0hyskFGWBDynxFmgiAIglBUiAgRhHJOaGgoLl64gNkzZqJ18xYFk9jJOSdRUlkRJ/Tz4AEDsWXTZtjb2an3LN0EBwVhxtRpBRPWySg6MnbUaPj7+cPB3h7tWrXmOSwd2raDj3fJi4Zkx0Qi/vFthB7ZAZ8VM+E2aRDs+7aHpVFtWLSvDkuDWsrPdWBlXBdWHevByqQ+m3WnBgU/83ZlP92H1lu0q86/2/czgNvkQfBZOQuhR3ch3uIusuKi1b8sCIIgCO+HiBBBEJiM9Aw4Ozlhz67dXCehjYiQECHj1C3FjNp3wOQJE3Hm1GnEx8Wp9y6dpKSk8AyVpg0bFYgReo0D+/bDiGHDNJEhipRUq4GF8+ap99IvOcmJiH1wHf6bFnN0w75PO43Y6FATViQ4FFFBIuNvawjrzlprVIgp22kN29/3Y3GiPJ5F+xqwNKytiJIOLEoCNi9F3IObyE1NVp+RIAiCILw9IkIEQfgHMTExuH//PmZOm8YpWdpibnLUqcUtOerkuNMgxJUrVrJ4yczIVO9duqCOYNQBy8TIiFPQSHRou4hRiha99lpVq3OU6NHDh+q9dMvT3Byk+3sjeO9GOI/pBbvebVkgkDhgsaBGM0hQ2HZvDrtebWA/wBAu4/rAa/44+K1bgOB9mxB2bC/CzxxW7RDCju9RHnMD/NbOh+e8sXAZ2xv2/Q2Vx28DG+VxSJgURFEU47+n/E6PT48dvH8z0oP8+PkJgiAIwtsgIkQQhJeSk5ONwIBA7N65k2soWjZtxo46GTnqJEwoetCiSVOMNB+OC+fPIyw0FLm5pa/A2cPdHRPGjEXDuvVYfGgFiNYoLWvU8OEcPdEVeZkZSHa1Z5FAaVYUuWBBQGlUlEJlUAs23ZrBYVBHuE0aCL8NCxF56QSSXeyRHReDvIx05GdnsUh4mp9PlfnqI6sov9N22p+flcXrs2Ojkexsi4jzR1m8ULTFcZAJbLo25b/HokRN47Lp0pgjJH7rFyDF3YkfQxAEQRDeBBEhgiC8ERkZGTz4b/6cuRwBoUgB1Ys8m7JFwsTE0IgL3i2fWCA+Pl69d+mABj22adGShdWzAoSMttFrPXzwEHfZKlaUx092c1BEwHzY9mipOPz1C9KmLA1qsgBwHtEN3kunIeLMIaR4ueKpIhiLAypMT/FwQfip/crfmwonc1NFiFBUpBY/H3pe9Pxse7SC/8YlSPV0Vu8pCIIgCC9HRIggCG+Nr48PDh44gHGjx/D08SovFLNTulajuvW5yPvIoUPw9PBQ71kyoee3c9t2TskqTIBojSI/HQ0M4VGMryc90AdBu9bBTi0wt+7SWLFGnApl07UZp02Fnz6AVG9X9R66JZUEyYl98JgzuiA6ws+xs+Y5UhpYyMFt3KlLEARBEF5GmRQhWbFRSHK25TaTlFIQcmALAratgP/GxfBdM0+xufDfsAgBW5dzPnT4mYOIuXUJifaWyIwIUR9FEITXkZycjEcPH2H92rUw7dSZ60VIjJAjT2KEUpgodatr5y5YOH8+bly/jrS0NPXe+oOet5OTE04cO8YDGk2MjLlFMYknElIvpmI9a/SaqDA/LTVVfbSiIT8nG1FXz8B5dE+OdnCBuOLcc9qTWXP4rp6D+Cd3kZNYMqJLNHsk7tFt7spl062p8jzrap6vSX0WI64T+iP6xgWeVSIIgiAIL1L6RcjTp8iOi0acxV0uvPScPx6u4/vBcUgnLp60Nm3CX4gW7apxy0rq9KIx5WdlG3/Zd24E256t4DDIGC5jesFj9mjurx9z5woyw4OVv5Gv/jFBEAqD0pOCAgNx+eIljn5Q0TqJkNpqgTcJEYqWUO3IwH79sX3rVvj6+hZ/WlMh5ClOcWJCAtzc3Hhw4YJ58zBqxEh0MemExvUbsADRppbR7YuCRLt//9696iO+PzQ4kFrh0vmKCs65a1XH+hxpoBSoREdr5KUXregpKnKV55Vg8xjeCyfy87c2UcQTRUWU10H1KlTPIhd3BEFFOedxHVZ+3gtWSM2WIJRxSqUIoQ9sTnwM4h7dgs+KGXAa1oW7xdBVOO7eQm0qqXiSTe0cQ1awTbWC7c/sUzvOUK6zXc/WcBxsAs954xB1/RyyosL4aqUgCC+HCrddXVywbo0mOtKkQUOOkJBROhNFG8iRp9kbNJH87p07SFBEga4ECf0dNuVnmoqek5PD0RkaTuihCBNqPTxz+gx07miC5o2bFIgoEh5aIULbqFvWk8ePNQ/6rih/n+Z8OI/uxechbo1roqn/cJk0gCMNeen6jxy9CXlpqYi5exWuE/rx8+fXobweEiOu4/oi3uq+OFlCuYGGh1I77fRAP8Qpn3GqqQrcsQrey6bDfcZwuE4ayE0fNDaQL376rpyFwF1rEX7uMBKsHvKw0NzkJPE7hDJLqRIh1OUl1ced06ucRnTjq4TcQpKKNk00fe3pC4+MrsjZ92kLx0HGcBpuCpfRZsoXYW+4je+rWB82lzE94TyiqyI0OsK+bzu+amepCBFLQxIxijChDjD0RUpX9pTHcxhoBP9NS5HkZIvcFOmRX1aheoezp0/jyOHDsLOzQ9ZbdPwhZzov7+XpJzRX49rVq3jy5AnycvPUrWUXOh4Xzl/AxHHjeb4IRRconYlutZEGcup7duuOnTt2cHQitYjTnN6F/Lx8JCYmciH+wrnz0MusB9e+0HMnIUUiim57KM87OPjdah9IXIQd280F3VYmigDp0ogvgnBNxeHtyE5MUFeWLnISYhFycCsPO9RGdejcTBeKwk8fZOdMEMoilCpJPkrU1dOc+u00yowbS1DbbJuuTfgzzj4L+RaK31JwIZR+Jj+DGj10acy+Dd3HtmdruIzto/gdSxBz5zLSA3yQm6q77nyCUNyUChFCVy2TXewQsGUZ7BRhQR9aTVcW5cuNrrRR9EP5AFPUwmPqYPgtm4KQ3asQfWYv4m+dRrLlTaQ7P0amlz2yfB2R5UPmgHRXS6Ta3EbC3XOIOb8fYfvWwX/VTHjONIfz8K6wUVO5NJ1pNEO96G+TWKEUiXiLe9xCUygb0Pvs8KFDfPV+QN9+ioPZDVUrVcacmbMUh/TVDiHNmiDR0tPMjIffFdailmZvDOo/ABU+/gR//vqbIkau8d8sL7g4O2PThg08eZ2K1iv98edz9SMUKaHIA00xv3zpEqd3lRTi4+K5/fCsGTO4+xdFc0iQ0HOeNnky15i8DVRPQXVpfB7jc5lybjGuC/eZw5HoYKmuKt1Qipb7dHNNcT2dP9VzduD2lchNTlRXCULphs7hqd5uiDh/DF7zx8PWrAV/lvnipfqep1sWG3SR1LAWp4FbdtCmhtfgQaO8jfwNyshQo6Fs9Bh0kdWoLrfp9lk+A1HXzrEgEYTSTokXIXRVIWDbStj11UwFpg809abXRD7qw3GICfyWTEb4wY2Iv30WGYqwyA31RF6YN3JDPJAb7I6cQDfkBLgq5oIcf2fFlFv6mSzQFblB7ryW7kOW6WWHpAeXEHlsO4sSl1Hd+e+y+KG/raZ92XRrDp+Vs5Fo90R9tkJpZs/u3WjTshUuXrjAv2dnZcGwfQf853/+FyuXL+dtL8PZ2Ymd6f/6v/8ftGjarFARcv7sOXz64Uf48dvv8O0XX8J86NC3irKUFWKio3H18hWuxTBs174gukAF4XQMycEncUJT2zeuXw+LJ0+Qnf1+6QjkKGRlZnI9yPvi5ODINS19e/Xm5171r4rYsnHTG89GyYwMg/eiyer5RHNeoSufgTtWIysmUl1VNsiKjuCLR3zOJmeKzp2KI+azarbyWqPUVYJQ+qC08ASbR9zghmpQtTN0WHTw+13xUZTfLRSBQWKC1rhNHgwv5bPvu3ouAjYv49rTQMW/oUgHNZ7wWjABrhP7w2GgMZ8XCh5T/ezQ45Cop2wN51E9ELR7Hc8EEoTSSokVIZSqQG0onYZ35SsEHKpUPoQU+aAIhfvUQYg4vBlJD68gy9sB+RG+LD5IVGQrQiPbz+mdjcRJbrAiSiJ8WLSkWN5E1Knd8Jo3RtOzn65SaE8IygmGrk6wAxEVrj57obRhaWGBZo0bc/emZ+nZ3Qz/+q//g/at2yAl+eVh8D27duOHb77FVxU+x9DBg9Wtz0P1AzRX4/uvv2GjmghdDr4raVD0yNXFlaNPQwYOKphUTlERMqrDoOPVrlVrjB89GocPHERERIR677eH0uyKslVwSEgIzp87z4X2lFJ25vRpdc/LyQwLhsesUZo0JTqfKY6GfZ/2iLpyusxOHac5I9Sl0K5PO1jzuVPTypeEmJwzhdIIiQ/qCmenfHYposEXFNSIhyYC0oib3PhvWozISyeRYPsYaT7u3KAhJymBMyhIxGihDnI0KDQnMY5bW6d6uXANVcTZwyxYnIaZah6XH1v5G3RRVBEn5BtRBkjAxsVI8ZD5PELpo0SKkDRvd3gtnMRfVgVXFkh8dGsOz1nDEXPxEKdXUZQjL8yLoxyFiYmiMBYkIZ5sme5WnN7lu2wybHu1ZkGkiZBocjupIDPe4i5ddlVfiVBaoKjEjGnT1d800BV7g3bt8eG//s1pQjQ5/GVQCtFH//4Pfv3xJ2zcsFHd+jxUAL1z+w789N33+OaLL7ktbEmofygJxMbEwEoRgosWLICBIs6o5kJbN1KzSjWOODSqVx9dO3XGovkLYGVp+dZRJH8/P+zdvQeR7yFkCiOO6nyuXcXM6dNhZ2v70hS7rMhQeM5WBIjx3wLEaWhnzTmjHBD78AYclddraUTn9IawYiEyiaMlglAaSA/2h9/6hVxDShE9TtWmrAzFKE3bZWwvhBzYjGRnOxbY+UWQrk1d8TLDQzRRl20r4WhuypFTvhhK0RblPEIXNRwGd+SRA9QtVBBKCyVKhDxVnLToa+eUL6oumi9q+qKiD7dpE7hN7Ifos/uQ6WmDHEV8UArV+0Y83soojSvIjYUP1ZOQGPGaO1qT/6nWjFgqz5naAlPhfGnpaCNQFMSSRYa9nZ26RcP1q9f4avynH3zEaVkvi1pERkaiu2lXfPLBh6j4x594+OCBuuefkONM7WBp7dBBg5GZKUW6z5KTk42wsDAcPXwYgwcO5A5UJES0KVpUg0GdqajVL9XXHDt6DEFBQW8kSKgT1kJFwCxesJB/LmqoCN/L06vQ/2lWXAw8549jh4FSk+jiCqVTJLs+/54r6yTaWfDr5uYhdM5UhIjPsunISSpdk/WF8gVFLqjY3HGYKX/fc2E5mfI5tu/bAV4LJ3Inu5zkpOciHEUNRUuzlXMJPRePmSO5cJ2jqiSE1OflMr4v4h7eRH4ZjawKZYsSI0KovWPwng2qwqfUK4qC1IPjoI4I3bUSGW6WnCJVFOlW72sUeSExku3riMiTO+EyusffYVK6MqGYz/JpyIoMU1+dUFKhq9azZsxE7x49/hGVmDdnDheRU+rUzGnT1K3/hDpd1apeHV9+VgH169TlK+Ov4sTx41wXMm/OXE5JEgqHIkcWTyywZNEibhJA0RFKz6pVtRqna5EYIevQpi2vefToEaKjXl1nQKlfVH9y7MgRdUvxQ91sKHWDnAQSINSBz2mkGVI8XdQV5YtkNwceyEgXmvh4KE5UwOal0jVLKJHQ97jv2vmaGT4UfVDFM3V7810+g4W1PhqM0EXb2Ac34Dl3rKazJ4kR8puU52jTvTmC9qznBhiCUJIpESKElL3fugXqVcJG/CGnD5LnLHMk3j3/d61HIYJAn0YF7rmhXki1vQv/ldNZQHHamKnyxWpQC+7ThiHNt+hy0IWiJyMjA2NGjsKRQ4fVLRrCw8J4TgQVklMXp/v37ql7/smhg4fwxaef4buvvuar8+Q8v4rHirNcWxEtxw6/2hEOCAjgtVRL4uPjU67rR0JDQ1g4TJowgZsHkBihqAgXs6udtaiofdjgITiwbx+cHR3Vez7P7Vu3eCAhGbVKLm6ov3/w3o18XuDzmuIoOJp3RYp7+c7fTna2hZO5KV9o4tQ05XwfcnCb4lnJYFih5JDkaMVzPMjB1zTEUUSI4qd4zh3Nsz94wKCeyc9IR/T1s3CbNIjFEZ1nNNHWOjzjLNXbXV0pCCUPvYsQusrgtWiSquI1HVRszFogcON8TfRDcfL1Hfl4nWmiIk4IP7wZDgMMOJJjY9oUVoa1eBYJtRcWSiYkGDzc3XkmxLNcvngRv/30Mxeat1Wc3tSXCIBsxcmcPWNmQderrZs3v/aq2KOHD9Ggbj2uHygMKpKfOG4czLp25Q5RlOrVrnVrnkmxaMFCuLm6qSvLH5TqRPUgdJx7m/UoSNEiAUJG6XNUP2JsYIC5s2bj4vnziIv/OzJlbWnFNSc0vb1tq9a4ef2Guqd4oCGnNt2asvNCDrfDoI5IUhxwAVx4a9+fzpeaq8t0NTf61kV1ryDol+gb55Xvc0N27GnGB10kpSY0Ycd38yyckgbVjQTuWgdbs5aaqCtdDFWeO81Ui7d6eYqwIOgTvYoQFiDzJygflFoaAaI47/b9OiDiyBbkBDhr6j4KcfpLonGr32APxF8/yelZ2loWOglw7rebg/qqhZIOpUgtnD+f6zao49Ui5eeXoY2YkFihgnOqL3kdx48dg1EHA4SGhKhb/ubQgYOK4GiDBfPm48H9+3B3c4ezkzPOnTmL1i1a4uP/fIBG9Rvg5PET6j3KLyFBwbhx7TqmT5nKNSIkSCg9i1K1KOWKoiU0rb1/375Yv2Yt/Pz8YPH4CbcF5oJ3ZQ0JzKtXrqiPWLQkuznx4EFKv6KLK7ZmrRB795q6VyCirp7hoWx0fMhxosL18h4lEvQLXUMKP30Itj1babIzFGeebmnCeZKDlbqqZEJdtuIe3ITzSLOC6A1FX0k8xdwtnvOcILwPehMhWbFRmgiIOvuDroY5DemEmAsH/679KMTZL8lGnbSoW1fy46twnzKIv1S17ShdxvaWsGgpISQ4mB1VqvGgblc0p+Jl2Nna4c9ffsW3X36Fxg0aIDz89S1HFyoCY8yo0f8oYL565Spfpb9y+UqhhdOUkkTpXtSF6w/lb165fFndU75JS0uDt5cXdmzbxpPXmzZsVBAhoVsqaq9boxY6GhpyNIkEC9WXUFtdEiLNmzTByRMnijSvm3KxPeaM+TvCq1jooe0aD0cogIp4qZGHJhrSkM+VlEIiU6EFffA0Lw9hx/YowrhFwXuSajx9V81BZkSouqrkk+bvDY95Y1k88WswrsdNc6JvamZgCUJJQS8ihNrW+a2Zy1849OVMzrqzuSnib57mVrjkzBfm5JcK83dGXqgn14l4zhimOQmwEKkFjxnm0he/FECzQr7/6muu8Wjfps0rC82PHTnKYoVa7o4aMZwd4ldBxe99evTE/r371C0a0tPT0VvZPsp8xCsfw8bahp3qzz/5lOeMRL2mELu8QXUzt27ewrQpU2HcwYBrRig9i8QIFbRTpITEx7NG+6hGZOeOHVwjVBSEHNoGa06JaAKadOy9ZIo41i+BmpJ4LZ7M3QXZYVKOW+ix3dTOTF0hCMUPCeKwk/tg07WZptGMYladGyF436ZS2e0yJyFOU1CvrUdTRJVdz9aIvVf8tXCC8KboXITQBz308HZW5hwqVD7ojoM7Iv7acRYgJb3+402NJrCTEHGfPJCFCHeBUUSXz7Jp4oyUYGjq9eKFi1hYfP35Fzwp/WWTsCmSQalA3yjrqDB9186d6p6XY21lze1+X6wHod+pTuSX73/A9KnTXlrcTiJmpLk5ixBKFXtVO+Dyjo+3D7Zv3YZhQ4byFPvCBIjWtAMSFy9ciOio9+uzT6mXNMRMewXSeUQ3pAf5q3uFwqAGHjSYlmtnlPMlTYxOcZUUVkF3xNy6qGl5SxEQNZ2a6j/yX9NopCSTqwh8muiu7TjKKe8DjZBo+/LoviDoEp2LkJg7l2HbrTkrc/qSpqE/MecPaFKwyogA0VqeIkSSHl+Fy2gz9STQhJ2S4H0bS/WJrSwTGxuLbp27cHoVRUMevKIrVnxcHLqqa99UEKxcsQL9+/T9Rztg6oJVo2o1fPg//8vduOLjC5+bQClD1I5WWwh/6OBBdY/wMlKSk3HzxnVO1arzCiGiLWwfMcwcbq6u6r3fjvysDHUeSH3Y0DlOcWRi7kgu9psQde0MO358wcagFnyWTuVBbYJQ3CQ5WnMRujZzgfwTioqUhfTJvIw0+G9crL42TX2L8ygzpPl5qSsEQX/oVIRkBPlq2jLSlQblw0DdUMIPbmABkl2aU7BeYdTdK+7GKTgMNFSFVyMecBj35I56VISSRGBgINcJUHoV1Q1QrcHLiAgPR8O69bgovWmjxq9cS9AVdipi37Vjh7rlb2jQ3Yxp0/hqPE0Ez87OVvc8DxXNz587D58pIoSEz/lz59Q9wqtwsLdHJ+OOfHwLEyBao/QtEiKdjIxx+eIl9d5vTjQ50tSquzPVN9SC75q5POjsXaE2zQvmzcOEceMwZeIkTJk0CZMnTsTE8eMxcVwRGj0e2wRMUmzyhIn8d/hvvsRGjxjJTRaKavBjflYWvJdO4+8HEiJ0DKWYVihuqNbDZXw/5fNap2AWSNC+TVzkXVbITU3WzCoyrqt8thrxrdf88chOkCGhgn7RmQjJy8qEz/IZ6oegMSyN6yFg/VzNJPJAt0Id+DJhNEskxAORJ3aw6OLczI71uFA9U4YZljh8vL3x8/c/sLAgpzU09OXFiP5+fvj951/w5aefcUQkPOzV9T7UyalV8xbw9Ch8dkxSUiJ8fX1fWZdAYmVAv36cjkVF825u5bdd75ty//59rg+pVrFSQStfbfqV9ncyEiAkPMlIiFCdyKoVKxAT82bpWdnxMXCdNIjPcVYd68JxaCekerxfp6ebN27gC+V//Z//+V/u1vbJfz5AhY8+wVeffc7vgfe2jz/hgZyfffQxC1uKsFEHtg//9W/8+7//B//6r/+D//z3/+Ij5Xf++8/Y//y//x9aNG2qCKWiSzVL9XLlTj7a8yR1JMpJSlD3CkLRkp+dBd/VczV+CQkQ5T1HdRSlsQbkdVCzDM85YzW1uFx7RVkZm9W9gqAfdCZCIq+cUof5UZ50XXhMG4x058fsoBfqvJch03b68l8ziz/4mpZ/9RGwbUWZCPeWJfwUEUCdp6gmxKxbN0RFRap7/omrswt++eFHduYoxYpSuV4GRTbGjx2LWTNmvFcXJmtra1T84092GmkwX3keYPg6YmNisG3rVm7TS8XpFLWin6l7VvPGTdjoZ9rWqF59Fh9UN0KF/7S+4u9/oMpff3EjgSePlHNV3qun24efPcznNz7HmdRH8N5N6p53JyIighsWfPlpBX6vffflV9yi+fSp07C3t4eFhcW7m6UlHiuv686t27hy6TLOnD7NQzs3bdjAhf29zHrw36LjoRXm1KyBngcZbfvm8y9x7uxZ9dm+P/TZCDm4lduKUrScxEjUtaJ7fEF4FvJLrMkvUaMDbpMHIzOyZHTBykhPR3xcPDctKSqo9ora95IfQuco2x6tEP/krrpXEHSPTkQIfahdxvXhdpVUG2Hfrz3ir5/gdrYvOuxl1ajoPsXmDlzH9tJcKe3UAHZ92iHRTgrEShLk9LVu0YILzdu2asXtel/GssVLeB0VsJt26vzK9ry3b97i+R8e7u8eucjKysKEcePx8b8/4PazLxt2WN7JysrkKNW61asxqH9/TFDE3+qVK7Fn1y4cP3ocZxUHntobX1XszKlTnFK0b89ebN6wkVPhxo8Zg2GDBqNf7z7oZNSRW/rSe2HdmjUsUgsTkVkxUXCbNpSvMtLnm77oM8Ne/t55G2jAIgkkcvhpFg0JgXlz576XmH0TKPWPOsPRvJoVy5bB1KQTD3mk9zylApIQ+UoR6xPGjitSRykjJICL1MlRokJ1t8mDuMBWEIqSjNDAgvcZmX3fDlwbom8SExJxWjkvTZowEaNHjuI03bOnTyP9NZ0X35TYe9c5JVyTMlob7tPNkR33fs04BOFdKXYRUtAHntsvamoiAjcu4EGEZa0Q/ZWmvNbcMG9En97NE03paimJMq8FE8tk6Le0Qo7+siVLOC3lp+9/wKNHj9Q9z2OrCIBWzVrw0EGKhFD6jpND4d18goKC0FURKW/SPetV7Nq5i//WX7/9josXpN/7y6C0NicnJwQGBLxXvUJycjK8vLx4wv2pkyexVhE1dFtY9Cn6xjlNK0yKhHRpxOe8ouTg/gP4+fsf8f3X37AAoGn+x48eU/fqhrTUNH7fjRg2DL/++COLb2qOQDVUXp6e6qqiIfToLk3aiHI8aWZDzG2ZiSMUHU9zc+C/aalG6FJqkiJ26T2nb/x9/dC3V2+Oxs+dM4dr/nZs345mjZtg+uQpfE56X+jiRcCmJbBWXjunxit+CBXh04wUQdA1xS5CUn084DikkyJC6KpWA54mnub4sGzXgbzM1OJ7n0UTlJNffXZaaFqwfMGWLIJpWGH7DpyHT18IL9aFUJEzzQ+h4Xhenl5clP6v//PfGDtq1D+6WtFaGpA3Z9Ys5LxHoePtW7fw28+/cF3DxQsX1a2CriFR82LNDhV9etOcCxq8qpzjHId1KfJ5QNSymQrFqRMbp0F98SUa1qsHF2fdTxcnoX786FG0bt6C0xYpTevg/v3q3qIhzd8LTsO7aaLGilERrXQUFIqKRDsLzkSg72Fywt1njuC5GvqEZj5RbSHVYK1asZK3UTRy/969aN2iJb789FPcu1M0DW2oGN95ZHf2QawUoe8wqCPSg3zVvYKgO4pVhDzNy0Xw/s3Kl3NNWHduzDUhEUe2lIs6kJcZpWXF3zkL+/4dOCWLjo33oknITXn/KxxC0eHj44NRw4fjh6+/RYc27Xh2CM2cmDVjJk81X75kaUEHKydHJ07doSvUlJa1fOkybN60iVOnKAKyZfPm96rduKt88VDhNNUvUCtfoWSR5GRT0HSCrtwH7Vit7ilawsLCYKSIYxIilApFAoBEMjUr0AeeHp7o07Mn1yd1NzUt0pSsp4rYC9i+UiPsKFWmvyGSnG3UvYLw7uRlpnMxOr23OC26V1vEPXl5K3ZdQLOoVq1cyc0haHiqu7s7b9+9cyd/3inqSA0pirIle/S1sxwB4ra9itAP3ruBM1cEQZcUqwihnEu6KshvdOXL2W18H2S4WRYUapdL425grvBbPpnDwBwNMWuBBMv76lETSgo0udzG2ho7t2/HooULMW3KFCxasBD37937xwDDpKQk3k7iZPLESZgxdRo2rF0He1s7dcW7Qd2RSIB06tgRnkWc8iK8P5TCEHJwm9pxRtN+O9Xz3WaMvAlUn0F1GVQXQhERuqV6DX1BdVCmnTtzWpa9/fu9118k0eYx7Pt10FytVpykwJ1r1D2C8O5QHaZtz1aKAKGhhPXhvXw6i159EhISwud5EiE9zcy4FosY2K8fi3y64ED1YPfvFZ2fkJMYD4/ZI2FlVJd9EfsBRsgICVL3CoJuKD4R8vQpIi8cY4Wt7XISeXw7coPcimwqOtWU5AW4IPc1j6ddV1JqUHKUY5B49zzs+7Tl42LZoSbnaOa/ZDaEoH9yc3M4DYfC46+C8m1pkjrZ+3LtyhXUq10HI8yHIzLyn126KFrzqhbCQvFDbS9dxvbhiwmUiuU1f1yxD9jbsmkTXx0lp4RqRCr/8SeuX7um7tU9jo4OPO1/3pw56paiIT8rE56zRykCr45aQDuM2yALwrtC37H+W5fzdy453na92yDZWf8NPo4eOcKfZ2qPPXvmTHUruGFGHUWc1KpeA2tWreJUyKIk9u5VPg4cxVUs5NB2dY8g6IZiEyGUXkTt7vjLWXmTU/5hqt19zWDCQhzzt7F8xYlHlB8Q4YNcRVwgzBOI9EX+CxEWEieI9GHTrPNS7qesC9JvJCaHakN8HeE9b7TmBNCpIacbpPrJlW5Bw+VLl9Cofn0sWbjopWkug/oP4Jaqgv5ItLfUfIF3acS55VFXTqt7ig+qOzIfMpSvjlJa1tcVvuCcceoIpi/Wr13LM3BeNun/XQk7sZfTeKmA2K53W4kYC+8FTQm3H2DI37nkm3gvnlIihhLSwFC6oECf6X2796hbNTUhbq5u8Pb2VrcULdlxMfCYNRKWBrX5M+Y8phdyEmUuj6A7ik2EpLg5aOaCqN0XQnas4MF97IAX4pi/iVEkg4REgoslzuzYgPkTxmDc4P7K7WhcO7gTaV62QIg7O/gkVEhs3Dm2F0unTcT4wQMwT1l3cc9WpHjY4GmwfgvjqTA/5uIhWJs21hwjg1qIvHii2NtuCiWf61ev8qDEE8eOq1v+SVRkJNq3aQtLCwt1i6Bz8vMRvG+jxqGhdIa+7ZGqODm6gKbzN2/cVJOm8f0PnDM+cviIIume8y5ERUahc0cTnD1zRt1SNFBjE4cBRrA2qQeLDjURcmibukcQ3o6nT/MRcf6oJnWSszMaI95Cv7UgBDWdMGzXnjsfUqe5e3d1O7cj/MyhgsZBtj1bS6McQacUmwgJ3qt8OXfRhPh4IM7N08h9j7kgGgHiicdnD6Nvl07oZtgBc8aNxIb5szCwuykq/fY7JpsPRojVHeVT5Y1kd2ssV8RHz46GLD62LJ6jrB+F1o0bsSAJs7mHPD3WpuQGuyPN4QGcR3TVXEk1qQ+veWORlyrD58oz169f59SWUSNG4M7t27imCBKaZ6E1ipBQD/lxY8bykL1XzTERipf8rCy4TdFEe+lCC11VzUlOUvcWP+fPnuN2zTTAkJoikFHHNn3hYO/AxepFCV2ldps6hOtCrAxqwWvhBOQmJ6p7BeHNyUtLhcec0exsU0G667i+nE6pb6iFO9WDfPLBhyxG/Px026Uqzc9T8UO6c+o8ncd8VxdtWqUgvIpiESH05ewyvi8XpNMb23PmMJ6OnhPkXqhD/iZGAuTyvu0waNEcy6dPQsDjm0CoBxAXyIJjRN+e+PjDjzF9pPK3fOyxZOp4mBkbwuHqGSDCm9O3di5fiN9//hlfVPgcq2ZN5aiJvupEKCKU5eOAwA3z+QuWBBsVy2UE+atHUShPUATsiiIwalarzi1PKQeYpnZX/vOv56zSH39xD/kvPvmMC4KLOv1FeHOo8QYVTlMkxKJ9dU4dolo4XZGnOOgL5s3DD19/w/nk1LaX5tXQdPeyRNCe9TzPgM6T1O491fvdB34KJYPbN2/i1IkTOj1/kbNNF0Tpoh9N5A85vIOjmfrm2pWrqKKc6z/+938woF+/IqknfBuouYbv6tkcIaLj4jK2N7fwFcCp0HSx5+b1G+/VYl94OcUiQuhLQvPl3AAWyhs7ZMdy5IV6vXNBOsK9YHflFDo0b469q5ZwmhVtyw1wLoiQ3Dqyh3Mqq1WsyILEpE1r2Fw6AUT7sV3YswV//PwLvv3qa3ytfFkP7dldESEeei1Wzwv1ROzlw9ynW1u8H3P7knoUhfKEu7sbOrRtywXHvyvvU8r1p+5HhRnto/f69KnTdP6FJfxN7O0rmsGjJg1gY9oE8U90m0ZBkBPX3bQrp2P9orw3SMB2MjZGWBlqWJBg9ZAHFtL5kYrU4x7dVvcIpZWN69aj4u9/oHWLFtiwfj0C/P2RnV28c2AiLx5XszMacqp4kpP+p6MT69as5XP6Jx98wB0Y9QHVstG5jOpCbHu0RMzdK+qe8g2JkEkTJvC5tUd3M5w4fhyxsfqPnhUF1P2TZqI9efSI07opxVsfFIsIodoG+tKgSAjnGF44iLxwn0Id8ddZniI4MnwcMLx3D8waMxxZyjYEPx9RITHhdP0cfv/pZ05JqPBZBaycMQW5gS6aIvZIH6ycNQX//X/+F1989jm+Uxy4LYvn8uPoU4TQzJAUixtwNjdlwUYnR//NS/XeLlDQPeQ0HjtyBPv37eNe8K+zfXv3wsHBQWqI9EjQbvUKvXFdONMQVh3Vg7yIvb09d9ChtCwSqRQRmTV9xj/aSJdWaPCjfZ92fH6krkY03VmXESeh6NmycRO3dSbR/ON336NOjZp8UcXiyRMkFsPcG/pO9V46jd9DVh3rctOcoh4o+q5Q90OqB6HP7t5nitJ1SUawP5wUP4TOZRYdanD0UVCOS0YGD4n95D8fFsxnatG0GTau3wB3N7ci71amCxITE3kSf4/u3dGyWXN0MekEU8VophkNxszL0/ifbq6usLWxYbFSnBSLCPFbt0CTw6uoapdRZkh+fPWdu2JRKtXxzWs5Dcvr7mX+/dn9JCKoyPzG4d347ceflDfKN6j611+wunCMxQeteRruhfsnD8CgZXM0qVMH00YMRYzT41fWhHC0hbppRfhwjQmlfr3Yfet9jeaF0NwU7wXj+MNPQsRlXF/kydVtQXhr4mJji/2E+Syec0Yrn9t63FTCa+FEvQ4cPXTgABeoU1oWXYj5WfmyPH5UOQeWAXLTUuE6aQCnvdF5kr5f8jKKbjCioHu2btqM3376mYWI9j1LTh5tGzxgAE6dOImgwKKbWZGXkQYnqnswqc9OdsCWZXqZwE9Da708PeHq4sJdrxzs7dGuVWtU+PgTnv+zbctmdm7JAaQ11BWrKIeAvgwaUug+w1z5fNVhoe+9dKpyzDLUveUXEiFTJk3Cl59WYJFI71fKQqDIc40qVXkeGNVuJpSStGg35b01oG8/Fv/9evfmQcj0GumCFaWDt2/dRhEi+/DkyWNUq1yZX+fZ00XbbORFilyEUH6h2/RhnF9IoXPPOSOQ5WWH7HfoikVRjCRXKy5Epw5Y+aGenIL17BoSIbRt29L5/CahSEf/rp0RafcAT9XJ7DmKkeDwf3wD9ldPI4u6Z71EUNA6Eh3xzhZ4dOYQLuzegttH98L99kWuPSER9FR5XoXd961Nee5UJxO8bSksaDKwSQPY9zdAZkSYejQFQXhTaJbK+XPn4eHhoW4pPvLS0+AypjfnUFu0q644Ncv1enWevkgmTZhY8GVJUZGGdevByclJXVF6odkOfuvma6LFihPpPt0c2XHR6l6hNPKsCKGry9r0UxIk1PGNBElHQyNOVaJI3/tCXdY4RVz5jrU0qMkzzPTBnl27ULdWbVSrVJk7YdF09D9++YVf+y8//IBKf/zB22hf5T8rop3iFDoWwet/EwK2r9KkPCrnNNfx/ZAu9anPiRDt+1T7Xv1REc5ffPIpp0+TY09ZDEFBgeo9Sx40TJna/lPt0fRp05Ca+s95VrSmcf0GMGzfAd98/iW++PQzvsBVnBS5CKEQJxU20RUrK0WE+K+ZhTzFqS/UCX+NUZqV/+ObmDHKHBbnjnBU4sU1NISQRAVFN+iE9slHH2Pp1AnIU+5Ls0GeXUuF6FQ/8uL2v/d7IFERPZsXzkY3ow7obmzIAojqS1o2bIDuyrbVs6dyZy2KjBRFKldeuC8iT+7kbh1WygmSeuHT7AFBEN4eym0dOmgwdu3YwWHn4iIjJABO5l35PEeRkNCju9Q9+oMGVxp1MOAvDvqSpKtYfXv3Rrw6fbnUooi7sJN72YGkaIjjkM7IDJPJzqWZwkTIi04eXa0lQdK4QQOeo3Hj+nVkv2P0Ivr2JS5K55qHnq2QYPVA3aNbnBwdcfjgIRzYvx/Hjx/HBOV1/fnrb/xamzVqgiOHDytO30Ec3H+AndoL58/rrAYh+vq5groQnslj90TdU355mQh51ug9TOl033/9Ndd1Lpq/APZ2uhGObwpN2q9fuw7+9V//ByOHD39pxgCldw8ZOEjT+v277/lzaGVZvP5okYuQZBc77mBCX842po0Rumf1O9eDkJOf6mmLKIdHyPC2L9Tpp4hGmpcdOrVtjW++/Ao/ffs9TmxZC8T4/2Ptq4zqQ8Ks72Fw967obtgBp7avh9vti/B7eB0edy5hx9IFqPzb7/hKUYcdlb9ldeFEkRS254V5Ie7qMc55phQ2OglEUUcvQRDeCbraSFcTe/foiYMHDhRLBx6asuwwyJgjIVSUXlI+szdv3OAOWXQlmb4cqT5kxbJl6t7SS8ytS5xKQ4XFdLyp05FQenmdCNGaVkyTE0jRA7Ou3diBf1vHnObL2Jg25c+r80gzpHq7q3v0y949e/gY0IWDUcNHqFv1Q7Kznab2Sm0oJE1y3kyEaI2cdvo/0rmXHP7hw8xx/do1fgx94uvrixZNmuKjf/9HEfQN4ezkrO4pHKpN5fRI5bujbavW3EK6OClyERL38CYP7SIRYterDaLO7EFuqGehDvibGDn5VPPxsugFpUZ537uCOlWrooLyRmlWvx5sL5/k7lmFrS/M8gJdWMhMHDoI5r17cCoXT2FXHoPbANNthDcenjqEhrVq4YN/f4h2TZvA9/619x56mKsImaRHl3leCOWXU9eOUBnIJQjvDBW2jjQfzmHyhnXqolvnLhwZ8ffzV74Qiia/Ovb+db5ayOc55Tbu0S11j36hK1k0vZy+RMi+++pr/PX7H7h8sXQ7FEkOVqoIoVa99dhhEkovbypCtEZihFIMSZDQ/ag4eMWy5fBw93gjJ89/42KOolka1oL7jOHIitZPJ6AXoW5YH//nA/zy/Y9Ys2q1ulU/ZEVHqINBFRHSrhoizh5S95Rf3kaEaI3ECF38Ifvr999hYmyMg4pwDg0O5gn4uoQK54cPHYavPqvAAmnNqlXqnpdz6MB+/u6gOiXqDJZezCKqyEVIpCIAbLo35y9nh4GGiLt+gh3twhzw9zWq9aAIxsmt61Dxt9/w8YefcPpUvKslF5YXdp/CjITMg5MHUa96dRzesIKFD6V5PbuGa0UifXm+yPdff8sRkZmjh3OK1/tEQ2hoYYrtHbhO6AtLo7rcvYOK5gRBeHeuXr6CerVro3b1GqhdrTp332ndvAXmzJyJWzdvckvQ9+keFXn5lCZ1wagOHAZ1RKJDyUmhTE9L55Q0SvHQXklu07IVfLy91RWlj1Qf979FiHKrj3bIQtHxtiLkWdOKayoQpllKk8ZP4ALbmJgY9dH/ideiSfxZpXoQ7yVTSkTRdVpaKgb06csihGZAXbxwQd2jH/IyMzQdspTPl2WHGgg+sAUo503o3kWEaI3OvfQe1b5XG9Wrj2WLl8DO1lZnDVSOHT3KF+Norlijeg24EcKroO/ECePG8fP97KOPsXfXbnVP8VHkIoQGdvEwION6cBxigoR759nRLswBf18j558iFjSg8DtSbsqBnjN2ZEFXrDcxbaRl9expioL9DlX+/BOH168sNJKCUE/YXDyBRrVr4aMPP0aHFs0R6/j4vbpm5SgCKN3pETymDdaIkE4N4LNqtno0/4a6atAVXspzFxMTe7klJyXDw90dfXr24g4mDerU5fA4TSWmgk/aRi0Jly9dylPoacp31lt2pAs/cxA23ZqxY0Ndd1K9StYAPS8vLzRr3JhTA+jLkK6CjR4xUu+pAe9Kmr83X9yy7tJQI0LuXlX3CKWRHVu3vbMI0Rq9r+n+WrHdp2dvrqfw9fFR/8rfuE1Tm+UozrUfTQQvAS2evTy9uBsROXuUPuqpg4Yar4KGTLuO71tQvB+04/VXzcs65JRTtOpdRMizpu0AR+/VSorgHDt6NC6eP4+Y6OJrsJGUmASzrl2Vc38FrlkZNngIcl5TU5WUlITmTZriq8+/4Of54N59dU/xUeQiJOTgVg6Xkwih+RfJFtfZ0S7MAX9fo2hFurc9urRvi88UAfLnr7/iyAblg/MKEUIdt56NXGhFyLJpEznC8V//339j7MB+ymN4/yPCQRGTUKu7nIpF09mb168Hl5vnORry7Lq3MW7T62rBU+WpKwUdO++lzw8sohDequUrMXLYcIwdNVpMTOwVNn70GL41aNeeIyAkQp41EiQUIaGWmLUUUULpWlMnTca2LVu5+DUgIOC1FwDDTuyBtWkTdmyoS1ZGkJ+6p+RAveBpQCs5auSk0WT1rVu2IL8UziFKV46vnTorhC7U+J46iMioKO6IJlZ6jAaikeO1Yumy9xYhzxo5eeTgfaM4T+TYL1648LmCWrfJg/izSp3s/DcsUrfqF2rtSvVb1GGJHD9dthcvjPzsLLhPG8qfLyvlWHmsnoeIkOBy+zmLVt6ngcp3weiRI/m9Vdj77l2MxAjPhfnuB3RXRMKWTZvh7VX0M6Zo0nvF337ntDAatrhl8yZ1z8uxt7Pj9N0KijDu3NGEhxkWN0UuQoL3beRULBYhI7oixepWsYkQcv4drp5G4zq18clHn6BJ3Tr8OxWMF7aeRAsVmSe4WDwnMCiS4XjtDLobGcKoVUvcOryHa0GevS8ZiRDfh9fQqnFDfPTBx2jTpDGCLG+/V10IiZBMdyt4zR7OLY1ZhCyZrB5NDaTGe3Tthj9++ZUdJzExsVcbpWlQ5IPa1L4oQp41EiQUHan0x5/cErNpw0Yw7dSJ82iXKI7M2TNn4Ofry7UWzxJ8cIuaY16b21lmhJa8bk0kNhYtWMjpWPTlR7eUolYaJ/5qRYhNl0Zw6NoEywb2QgcDI7Rv04Y70oiVFmvHFwfq1aqNX38s3El7HyOxTZ19Kij+AEUXhg4diivnz8NxXD/YKN+tLEI2L1XfVfqFojaUq0+1LgP79f/HOUbXsAiZYc4ixEn5nB0Y1ANdOpuirSLqCv9flm2j9ykJWoqck8gt7P32PkaPSXUXXysCh753pk2ewgOIi4pZM2ZwlI1ECH3P0eDB17Fj23aet0dF7JMnTtJJDUvRi5D9m4pUhJDjT2lQZBTFeHYfRTz2r12GP3/5BZ9+/ClHRNK87f9Rz0GWrwgFmhPSo6MRbC+d/IdQocL3CNv7bPT7i1EQMipOv3FoN2pVqYJPPvwEPU2MuKi9sLVvahwJUUSI52tESJ8ePTlvlK7ciomJvdqoDoROvIUJD63RfoqU0JcMCRHaRj3SaXgYiZDNG5VzmaUVp3e9SMgBRYTQBO8SLEIIypPv26u3ZvbCV19h+pSppXLKb4EI6dwI9ixCeqsihByGdmKlyAwUIxFCjhiJhheds/cxuspM0RCKsFT56y8MHz4cdhZP4D55EKwVv6QkiZBlS5bg439/wM7o8iX6f07Pi5CGODhYFSGtSIQU/r8sy0bvU5rTUhwihN73VCtCHagoSkHfQwvnL0BYWNHMiIuMiEC3Ll04yvZlhQowat8B2W9w3h82ZEhBUf2O7dvVrcVL0adjKV/O2nQsKnJKfvLu6VhUDE4DAi3OHcWTs0eQ4GpZ0CUrx18RKOFemDJ8MD7/lL5gv8Zk80GgKeeFCogoX+xYvgAdWjZHsOUdjqI8u5/uw3NEFHGSW8j9aT/9vdljR/Df+1V5Ix3bvJrX03N5cf2b2pumY1HnjDEjRmLC2LFiYmKvMUrJMnxJOhZto3af1StV4daFXUxMMFZZf2DfPjjYO3BebHZ29ivTlkKP7+YiaRIhzmN6IT3QV91T8pg3ew7+/d//g949e3KKQWnkuXQskwYIu3iC61vESqdtWLuuSNOxyKGjuqc/fv2Vr16vXrmSW5NyDnxuDosQ+n61aF8y0rFSU1Iw0tycr1TT86eIq75hETJ9GIsQ6iLms24h0hITCv3/lRdLiE/AxPHj+SLOi++5dzESHxSR/uqzzzla362LqfK9s58vFhVl1IEK0Js0bMSCnD4blJ78OhISEtCyWXN89uFH/B1Jgwt1gQ4K0y8gN+jtayZ4WroiQKgDFZ2ovvvqG6yZPQ2ZPg4cfaDISMDjmzBo0ZwL0umEtmnhbE6jelGE0OT0BBdLdDcywKZFs5Gr3P/FyeuvMxqUaHnuGOrXqIGPPvgII/r2RLpX4VGXtzESaGlOD+E+VXOSpKJLn9X/LEwXBOHNCQ8LR78+fTjnmoSHNu2q8h9/okmDhujXqzcWzJuHSxcvvZNjHn72ELfTJhGiKUx3VfeULI4fPYrvlS8hKlL39Cy9szXSqTC9W3PNd4tyjoyTwvRSzfYtW4tEhNAV288//pSvVvfv2xeHDh5kZ+pF3NXCdIsONeC7Sv+F6dSdz6hDB3ZuqXuRq4v+zx/5WZnPFKbXQvB2KkzXfwG/PiERWxSF6do0wa8qVECj+g0UUTBKM3wzO1v9S0ULCQj67qPPx+8//cJpVq/j/v37nML4yX8+gLGB4T+6zb2uqP1dKXIREnXlNGzNWnBKlsMAQ8RdO4Hc4Ldv0fs02B03Du3ik9T333yLLyp8gQHduiDO6YkmYhHpi/1rlvI/mATKn7/8ir2rl/wjMkGtekmwrJgxBb06GSPa4RGeFlLv8Sqj6EqE3QN0NeyAf//vf9C7c0eEUDSlCLp+kUBLtbkDN+XDr2nR20ha9ArCe3Lh/DnUrVmT60LIQaHIRxeTTlywSjMzqED2fYi6omnRSxcOqEVvkr2FuqfkYPHkCSr/+Scq/vYH7t0t3S1tU73dQMNcKfrEIkRa9JZq3qdFLzl0LD4++RRNGzXG7BkzcfvmrVe23PZeNAmWik9i2aEmvBdPRl4RzQt6Vyg/n2rX6HXQLKPi7JL0puQrx8RpmLZFb02EHNyi7im/UDTkXVv0klEal3aAYUfFsacIHRV/Fzc3rl3DX7/9xu8vSuO/fev1c6zWr1mHn6lO5aOPMcJ8uLpVA6V3UTZOXFycuqXoKHIRwsMK+zwzrPD0buQpIqAwB/xlRpEMSsU6vGEVvvv6GxYhPygnK6r/yFccf0T7weveZbRv3gzzxo2CYcvm+FxRmfMmjOY6EbovRSg06VWeOLpxFdo0bYL7Jw4U2nr3VUaiJtXLHhOHDuTi9yE9uiHIQvmHFhJxeRfjYYUP1WGFHTXDCkMO71CPpiAIbwtNSDcfPAR//fobalergUH9B+DI4cPctreoiHtwA/bPDitUznslicDAQLRu0YK//Pbu3qtuLb0kKiKPnCMWIcp5MtlFhhWWZt5lWCGtpfczpZeYGBphx9atcHF+9fRnLf6blhQ0kqC6BxrMp08uX7qkqdNSXk+/3n2QkvzPujNdkxUZDvv+hpyORcMKI88dUfeUX95FhJDwoNokSrv69cefMGjAQJw4dgyBAYHqoxY/dNGpWqUq3NWrepWqcHVR/OHXQPUglIr1s/IaNm3YqG7VQJ0W27VuzaMiipoiFyEpbg5wHNKZv5zpCyN09yrkhXsX6oC/ykhAOF0/i4q//47ff/kFa+dMR5KbNadS2V07zUXo4wf3R1aAM67u384hzbo1qnP9SLYiQDJ8HDhda/740TzP49yuTSwo3iYNi55DiqctZowaxm+sqSOGIs7ZoqDuhIYlFna/t7G8MG/EXT2mCDfFoVG+ZOnqavT1c+rRFAThbaAOM7t37uJQdN+evXDx/AVut1jUkBPsOMhYc57r2hTR1/Sf060lWXFoBg0YgE+VL5Q5M2chO6t4Qv66JPrWRU4ToUixdbemSPMvvallwpuLENpP3aNoeBpNnx4ycBAuXbiI0NBQ9ZHejNAjO/gCH31eOX3SW39zfegcRU4eXSGnK9UL581/ZRRHVyQ522rqrigdy7gOYu5cVveUX95UhJBI1g7RpNta1WtgxrTpePzoUaHpgcUNXXBr06JlwQyaoKBXN05xd/dA88ZNCta/GDmnTltTJz/fMKmoKHIRQlcYXMb25g87XXXwXz1TESFvPjxQa1SATrUfJB5aN2oEM2NDLgof1ssMHZo3w9KpE5CsiBKKSOT6u+D87i1o36wZWjZsgHGD+ivWD8atW2FYz+4sTCi9iwRMYX+rMKPHTfG0weRhg1Dpt9+xZs40ZPk48nbaTyKE0rHeNxqSF+GLyBM7FAGifMEqZqeIkSRH5XUJgvBW0Je7pYUFBvbrh4P7DyA+Ll7dU/RkhAXDaXg3Ps9ZdKiF0KM71T36hYob58+ZywKkb+8+hXb2KnUo/9cwagRA58hODeA4tJNy/EtmNzLhzXidCCHRoZ3N0LBOPXaC7OzskJqaqj7C2xFz+zJse7biKBpd6Iu30F86X3paGsaPHaspUFZe49HDJSPiEH39LB8bOkYkRhLtSl6Kqa55nQgh8UHRLPpf0oXwNi1bYeO69fDz8y+2eo83ITMzE8OHDcOH//svviDn6vrySEhiYhKGDhrM70V6Hc0UMfKsyKdGLZ2MjLl+sjgochHyND8f7tPNWYCQec0ZgUwvO+S8QwE3dakiRz/S9gEu7d2KLYvmYNeKhbC9dIqdf23LXhIsNKuD6j0oKrJ96XzsW7OUxUeap61GgLzp3/dVhEaYJ1I8bDFhSH/UrV4dRzau5r9F7YJpDT0WRWUenT6EWKfHb/7YLxpFU5THDN66BJYGtfkL1r6/ATIj3u4qjyAIypdoVBTOnj792qs+RUFuehoPKWQR0q66po5Lz8Wu9Nf37dnLXyQtmzaDv7+/Zkcph7r2+K2dy+dHihZ7zBiO7LjniyaF0sXLRAg5dFTrUfH3P2BibIwN69cjNCSULzC8D2m+nrDv10Fzlb9DDUSeP6ru0T1RkVFc+EuvlZpGUO1WSSBg2wpN4wejOnCd0A8ZwQHqnvLLy0QIiQ9y2skockCNTk4eP4FEPUQ9XsYZ5buQPl9k1LChMEhgTJ44kTtEUgMXunhFERSKpmuhx2nfum2x1IMQRS5CCL/1C5UPe33+gnYZZYakx9feqTidTCM2XFkAsClig25fdPx5XaCyTt2vNc0cj+cf86WmCpAkDxuMHdQPbZo2xt3j+zn6QXUm2nX0u8PVMxyRodkj7zqskARIhpslvBeMhaVRPT5Buk7or3zpZqpHUhCEN4WKO3UxXEmL17xxfNWQ2ll6LZiA3OREdY9+oBB6RRq6+NdfePLokbq19JOnCD5yiliEKA6Sv/L9kpeZoe4VSiPPihDt1WQa3Fa7eg2MMDfH6ZOnijT/nN5DlIbFRdcGNXlWyNPc4un28zp8fHx4OCrNiGhUrz58vH3UPfrjaV4u3KYPUyO7NeCzbJp8xhReFCGUlv/lp5/xgMFWzZpj1oyZeECtbEtgEzGKhpDA+PBf/2ZB/+KQWhcXFwwZOJBTHKnwfOXyFbyWBvxq55VQNkFHQyOsWLrsvS8EvIxiESFRV6lDVksWInQbc24/8sJ9C3XE38ZIaLxJ+tObrnvRSFwkullj6vAhGNDNFP6Pbij/hSAeUkh1IGz0c5Qf9q5agm6GHfh+b9vuV2t5IZ5IfnINTkM78xcs9cAP2LqcwknqkRQEoaQSvHcDrE2bcNcd51E9kObroe7RPb6KY9O8SRN8ozhzx47q7ypvcZAVGVYwI4S69oSf2q/3qJPwfpAIIaeOHDq6mkwO3ZJFi/Do4UPkF8f/Nj8fPitm8nuILhy4Th6ILD1lHNDFAqod+PKzz7lpRnGmjb4pNOeI5rrxRRXlMxa87/nC5PIKiRBy5GkCP71PqUlS1y6m2LZlC9yLsNFJcREVFYVJEyby+61Ht+44fvQYTp86xSm7nYw7Ys6s2QU1k2GhYRjYtx/XYE1W7nPi2HGO8FDjhNgX2vUWJcUiQp4LfRrWRvD2pchVHO53EQa6Mkr7SnSzwsQhA3giOtWAnN+9Gcc2rebuWkc3rcIR5fbg+hXYuGAWWjZsiLED+7EweafXpdyHREjspUOKAGnIRfzWXRohVvrfC0KpIObeNdj20Fxsoc9v3OM76h7dEh8Xh17dzfDxfz7A0sVL9JqLXBxQ/r5t9xYFDmS8hW6GaAnFB+XNUwSE2mbTkFBPj+IX8JEXT8DaVPmeVd5HNqZNkORgpe7RLTSzgYqXqRPR8qVLXzkUVVdoWo7TaIV6yjmtFWKVc5ugESHjxozh/9dI8+G4dPEiwsPD1b2lg7S0NO7GRhGdYYOGYNTwEZg3ezbu3P7n9xVFRHbt3ImRw4dzRHL1ihUIL6Ip7i+jWEQI5fC6ThzAIoTCex7ThyDd6RFyFUe/UIdcz0apVrFOT7jb1leff8Enxyp//onff/75efvpZ265RtPZv/3qG+7YpZlL8vYihCalZ1EHr3VzlS9WxYnp3Ah2PVsjI0TyMAWhNJAZHqy52NKpASzb10DosV3qHt1B6WfTp0zFx//+AMOGDEV6un7mH1B3n40bNuLq5SvqlqIjcNdavkBD50nHoZ2R5qO/iJNQNFADCZpdoMsJ/ukBvvwdy3UPhrURcnArnuowfZOggW+Tx09QIyEV+Kq0vqG4k/eKmZxWyvUg4/ty9FHQiBCKXFk8sSiW9rS6hC5O0eeNjGq3XwXVhLw4rLC4KBYRQtAHnNspKkYKO/7GKW5HW5hDrk8jAUG1I7tXLuZpyn/88isq/f47Dz98mf2mCJHaVavi4u4t7zywkARZmsMDOA031Rwn5QuW8srz0t6t+4cgCLqFLra4TRtWUKvgtXCSzutCtm/dyoXoBm3bITg4WN2qe548fsyT6CmdpijJV8SN25TBmjQRg1rKMZ6I3KSSU/wpvBvFlV/+KqguxHPeOE3kUvnMuozrg+x43TY4oKvSPCn9U5qcrYhqBwd1j/5IVUS9k3lXvmBMqaW+a+aqewR9vE/LG8UmQlLcnWDTvbnmCpbyxg7etkRxvp15hkdhTrm+jIrWqQuX7eWTOLFlLU5tXY/T215tJ7auwwVFgETY3uP7Fva4rzOKhFCtDOWUUyoHpa3RtHlBEEoHdDUp5MAWUHoHGdUt0Be6rqCpuH/++htqVK0GG2v9tfXOzcnhQVfGHQyKPBUs1csVDgONuKCYCmZDDm1T9wjC2xNx8Tgsjerwdy59ZuOe6DaFMiw0lFumUgEwFQQnJ+v/6nr4qQPso1HmCrUxjr0nKeGC7ig2EZKbmgK3qUMKCq6dh3dFKjntJTQlizprUWH6GxsPPnw3QUUCJNvHEV6zR2qiIMoxsh9ghDR/L/XoCYJQGqC88oILCUbqhQQdXD2josjGDRpyaugZPad07Nu9m3vkU55/URN6dJdybJtwJIREXrzlfXWPILw9aQHesB9krLlwoHzvei6cgHwddsmi1J4/fv2Vh8JtWLtO3ao/smOj4U5dsQxrc7qjy7i+yE1JUvcKQvFTbCKEOjxRsRNN3uQvkU4NEXF0KzvgJblAvfhNMxsk4c452PVuyyLEon0NBGxdwekdgiCUHrIT4jiH2ooutpgoTs2cMZz2UZxQ8SB1aPnkPx9gzapVr83vLU6uXLqEv379jdutenkV7UWUvIw0eMwexQ4SpWLRfBBJxRLeB/qODdi+iqNqHL3s+f+3dxfgUZ1fu/DP+c77/rVGW2hL3VsKLRQI7u7u7u7uXqRocSvu7u4ST4gQAZIQw0NwYnB/e63ZEwIkkEASIvev174CMzuTZGiSfc/zrLXKpshw4ICAACxftgx7du9+anVw2pQpun2yYH4bODs7m7e+OdcO7DBfKJat80URvCptDF2lzCPlQojhoUwV7mzpzS3/k7t3a4QH7qctKwHxXqBngsMIYDK48dyYnhrM7GsWhGPjsrjpeNJ81ogovZAAIL+4ZTulbD2V+rfbZ13Ne5OfFJ736dkL7/znv9q15eGDN9PLXwpslyxerFtLZL6DTGeXvvTJ6abDCTg3r6yrIHIELk7+lRbKfMKN0CGranpdIrWYY/sma4G6rFLWr1NXp77LzJ7169aZ9wCN6tfXrVgd23fQZg5vUtTNGzg7qAPs5IVi41rEpU1NDkqmVJeiIUS2JcgeXuk7LdsVpC1e6IqZli1ZmXQ1JDrIS4v0XbSrjqXvve8f/RDzhi4miOj13HZ3MlvIWrZWBsybZN6T/GbPnKkX/dLaVPaXpzbpxnX+/HkNQtIpUF7VlUFz8qpvsjJ+d/jNHq+D5SSAuLSuhtseb76Il9I/Gcx3YdpIy2qI1EE0LosbJ/ab976+0aNG6eRpmSshbbMnjB+vt/v7+ekwRlk1PHDggN72Jl3eud4IYoXgYFybyVaswGWzWIhNqS5lQ4jhvp8PXKXzQlUb2NUsCLdO9XDP5SiiL77alPH0fFhrQXxHdre8ulejIBwalMb1o3vNZ4uI0puo2+HwHddPtwxJCHFpWwMPQ4PMe5PPzu3bdcCbTFl2dkq9rRxyYXLj+nXt5DNq+Ajky5NHX+WV3vky8VpWQ5J7zoO04dXhadWM3xvGIZ0DZeAcUXKQLVjOLSyrbFKofnZAO0SG3zDvfT1dO3XW8PGl8T1SvnQZONhZtntNNMKItOXt16ev/v1NehhyUTti6RgF4zrEtX1tPAgOMO8lSj0pHkJE0Mp5lu4LUgxWuwgCZowwLsiNEJLJVkOiQ3xwZf1CyzR547mQehnfMX0R85CrIETp2bUD2y0/32SLZa0iyT5x2NXVFTZ58yHH9z/o4KnkJKsbERER2j40PPymDqeSUGFna2cEnx34c+JENGvcBDl/+gmfZvtYL65klpIEok+Mi6ouHTvi7t3kay3++FEMglfM01UQeT4d6pfCjWP7zHuJkkfA3Em6AiDft3Y1CuiuDfl/73Ut+XuJrg7WqVkLnh7uepudnR1y5fgFNatXT9XZKPGRr9Fv+mhLq2JZBalWAJc2r+QqCL0RqRJCIq5egkfvFtpLX5b/ZD/mjT3r0uTckJQ6ZDr6HfuDcO/aQHtxSyGrU/NKuH3GwXyWiCi9igq7rvurT1fOq7/Uz3SqrzVxySHwYiBqVa+BbO9/gIL58mPUiBF6jBg67LWPYYOH6LDDXj16okunzmjXujUa1K2LMiVK4tdfciJ71mz46IMP8dlHH+uqhzV8yCF/lld216xaZX6myeP+xQs4076O/q6QV2o9+7VN8WJ/ynxkNcCtSwPYVy+g/585N6uI8GSozQwPD9fvz6aNGmP0yJEYOWw4ypYqhQ7t2sLPz8886825dnAHHOqVsLwQKg0fBndCVHiYeS9R6kqVECKu7ttq2Tdds7D+kvbs3Rz3nI8i2rg4j++iPSMduupzzgUXJg4wAojxA69OMf0FG7DwzbfoI6LkcXnbGn1lUbZkyRaHi4tev5D65s2b6N6lq7b0lCnLEgbee+ttLW5NrkMeT7aPvP/2u/jgnfeQ9b338bERPKTeQz6mbL2K75AAUriA8bPc09P8bF/f4+hoBC6Zqe2O7evIc1lYO/gQpYQrxnWJ1KrKDg3ZliUtapOjOFuaNOzft0+3YI0YNgwb1q3TlcY37a63O1zb1bJsB69eUF8QvumQvANGiZIi1ULIo8hIncQp//NbCqEKwH/KEESed8nQ3bKi/Nw1hFxaNQcOdUtYlj+Nb36PXs0Rce2S+ewQUXontSEy3Vs6ZdlVt9Fiahna+jo8PT1Qu2ZNFC1UCKVLlEhTR4G8eTFm1Cg8jEi+1uJ3zroaF0aW1uXyO+LswA6IYlteSiGPoqLgP3OcbseSMCLbxs9NGIioDDgrI+JyCLyGdNYdKdato0Er5mmhPtGbkmohREjhk7bsrWZ8w9cyu2Utn6FzM9LaJPXkOmSlR7aeOTevqN/02o2jYWnctD9hPitElFFIbYhD/ZL6vS5h5NyEQYi5/+r1EpGREbhx40aaPK5du6Ytg5OLdAj0HdPHfKFK5hYUwY3jb76LEGVsEVdC4NG3lQYQeYFUvnf952asuV2y3UrClWVavGXVR5ppcJsjvWmpGkJE2MlDcGxU1nJBbqRxedXr6tZllm1ZGaxQPSbYG7dP7NZp8RI+5JtfisFCVi98owPGiChlyIqvj3khra82Gt/zV/dtMe+lF7m0bY25Naao7lU/N3Ewou/eMe8lSjnSZtulVXXt4inh16FOUQQtnZ0hgogEDf9Z4zVkyc8jWQmRbWdSe0X0pqV6CJGhQCHr/tbCbH21ywgjLi2r4PrO1RpEMso09ehgH9yxOwCPHk21/kO3oBnf/OcnD0P07Yy31EtEFne83OAsc4AkhBjf+2ekLblf8k4Tz2junveCa9uaWksjF0suravjjo+lsxBRarh+bL8OG5WtlPK9K4E4cOnMdL1aEH073Agg44yvqaAGK2mKIzUhErqI0oJUDyFCvqkvzBhtJvOi+ovatVU13NhlBJFAr/S9ImJ87tGyAmK7H569WugvVQ0g1fLDe1gX7RRGRBlb8JpF5i9+2WeeHz6j+yAmDRSmpkVRN6/De2QPS9MOGfhoXACGbkjm4YdEL/P4Ma7s2gCH+iX097Z1t4b/7PHpsi4p4solnJs4JPY6S34eOTevjLBTh80ziN68NxJCRNQtGfDVV/cm6j5MI4i4tKiCq1uWIirwbPosVvd314not47vhEf3xvpNr9/8xg8B9+5NuPxJlElIkboM2JO6EOvPt8Cls4x72Is/LlkZD/x7pvGz0hJA7KrmM563ntyGRW+EbJO+vH2tpa5LgoiEYuN713dcfzwIuWielfbd8XaPU4RufF8ZAV+GM147vNs8gyhteGMhRESGXbPsnzYu0h3kG8X4pndqXA6hK2dp16z0tCoixfUSnG7sWWuZ9BsngLh1bYS7Ph7mV01EmcEdbzezHaaNvqoqDSmkVTk9cWXXRkvXQONCT+erdKyLexe8zXuJUp8GkZ0b9FrE8ntcLuJt4N6zOW7aHdMVk7RKQv3V/dst1yCyAmJcV8kLvS6ta+D60b3mWURpxxsNISIy7Dp8x/e3/KKWPdTyy7peCW3fe+/MCcQE+yAqLXfOMrdfRfg4IWTZDB14pEO2jACifce7NzECSPL10Sei9OPawZ06H0lrHaoXgEuragizY19+IZ2vHOVCT35eyvDWxmWN2/ab9xK9WXLR7tKmunEx/2Q1walJBQQtm42osGvmWWnHw9BA+M2eYBlEaK7iyMqie/emCHe2Nc8iSlveeAgRkeE3cGHaKDOEWC7g7YwwcrZfK4Tt36irDLoqEl8IeIOHfl4yCd12P86P6w2HusUsX4O8+mD84JIe9yxIJcrcglfO1wAiL7BI950zHerilpujeW/mFO5iC1fjAi92y4vx3ASvWYjHafhVZsp8pIDbMvvHCCJybWL8fpfvZZnif+PkoTSxbVBeyL2yZ7Nl/IF8P2kXzkL6ecqW0PsB580zidKeNBFChPSIl8E5smVBt2dJQafxTeTctAIC50/AfbeTiAn1TRurIsbnICs0D30ccWn1HLh1lO1X5hBG+SFg/AA4P3m4DgciosxN5oRcmG5pxKEdaqrmx5mO9YwLHGfzjMwl3NUerh3qaACxNO2wgd+sP/R3AFFaIxPU/edMNJtMPLk2kbe+Ewbh5unDb6SDlsz+uHZwB7yGdrWEDvl+Mj4nqUOTVcVAWbHhoE9K49JMCBGyF/P6kd040772UwXr9rUKwbNPS1xeO9e48HeytPKVMJKa9SLGx5KPGS1F8/4euL5jFXyGddKlT+sPJPkBJTNQpAVx9D0WVhJlJjLA74yrKyLimSAedfMGfMcPeHIRY1wouHWqn+m2Sdx0OAFX4+e75UUby3718xMHIToDTqimjEOmil87tBvuXRvHFnvrjofKefWFU9+xfbWzVuT1q+Z7pJwHQQEI3bjMCB9ddPeFbZW8sbtH5Pvq7ID2ltoVonQgTYUQq/sXfIxf2AP1l7V1ud62qnGBX78UzvZrg8vr5uOBl70WglsLwlMkkEjwiPMxIs654PquVfAd0VVXaKTntmUrgWVPs+eAdgh3PJWmC9eIKHnduXMHq1euwqABA+Ho6Ijo6GjznqdFXL/ypBGHvGJpXMy4tK2J60f2mGdkbNcP79YOPfL1y89N2ZomXYf4ai2lFw+CLyJg4VQ4Gb//ddeDceEvL5RKGHGoVxLuPVvoYEAZyqz/XyfHtYDxGJHXLuPage24MHm4NrqxBiD9+Ma1h9RVyWwdaQ2eGkGIKLmkyRAiYh7cx5Ud63TbgjXh655q460MFHLv1ghBCyfhju0+PPR2tKxSBHtbVipeNZToaoeEjrP6WFEBnojwdcZdpyMIXTUbZ/u20mVOLTLVb3zjh5Dx+Ti3qKrFarI3k4gyvpiYGFy5fBnLly5Dvdp1ULp4SWzeuFFvfxHp3e8ztq/5aqr8PLMxLmjKI3TTcjyKijTPylhiHj5A6Iallq228nPc3FcvLzRF3QwzzyJKHx5HR2vnO9lyrUNJ5XrACNZyPSAvLMjfnZqU12sXedFBap1kZUJa9Mv/79F3busWTbnGkS2IlrfGce+urgjKdYR0iJPGDUHL5sBrWDecaVcLTo2Ma49qBfRnh16DmGHe1QgfAfMn436gH18ApXQnzYYQq4chgQiYNwkubWpYvtH1G8/SRUteTXQ2foH7DO2MSytn49axHbjnckxrNSRIxFw6p3UkGk6CvLS4XUKK5TD+LLcZ98WE+BrnndO/S+i4f+YEbp/cgysbFuL8uD46v8ShbnHzVQfLL1BZApXVkPOThuCul5v52RJRRnb37l14eHhgxrTpqFapMvL+lhu/5siBubPnmGe8XMS1Kzj/51DLzzJzFdXe+Fnm99fYDDfM9OHlYFyYNtJSLKs/Py1f7/kpI7gCQuna40cxuHP2DPxmjsOZzg0sq5uVfrdcp0hIkMBt/L8ut8sLp04Ny2h3PI9ezXWGh8+YvvAd2984+mlY8RrcSTtZyWqho3GuY/2S+r6yyiGtgvUxjQAiH0Mez617E1xcOA0PgvwZPijdSvMhxErmbATMmQDX9nU0AOgrDrIVSn65SSgxvlHlG9OjVzNcmDQAwYun4Oqmv3VuR/iRbbh9ao92sbrrcAh3HQ/jjt1+47a9CD+6HTf2rsO1LUsRumwG/KYOhdeANnBuUl4fUx/b/DjyKoT8AHBuWUXDx0374/zmJ8oEzp8/j+3btmFQ//4oWbQY8uT6VQPIb7/kxPAhQ3D/wX3zzMSJvntbt3Xozxbj4kLq3+Rn2tkB7XDT8aR5VvoWZnsEHr1b6AWUFqAbF2VSQ3dx0fQ3UshLlFIehgbh0uaV8B3Xz7J7w/iePl0xt35PW8KIXEdYXsSMG8afP8z75eeC8XfLC575cLrCb7CvU9QIKY1xzrj2uLJ3MyJvcNsVpX/pJoRY3THCSNCqBVp8Jd+oui9SwoIUsUtQkFcNJCwY37jyVrYASCtI9y4NdIq5p/FL8WyflvDo0QTuXRviTLualqFExvtJGz7rqxiW4GE8pvEDwfJYlqnnFxdPxy0XWy2iJ6KM68KFC9i6eTPGjx2HBnXrafDI/Usu2PyeFwXz5cfvuX5D8yZNERoaar5H0jyKjESoceHi1ESGotnoaqv8nJGtHIFLZqXbVRFZ/QhcMlNfzZWLMH2F2PgZ6ty8Mq7sXK/bWYgyIt2q5eOOK7s3ImDen/Aa1lUHlkoAsa2Ux/g+sLyAqluq5Foj7mHcZls1n17T2FbMo983ZzrVg/eoXkZwn4arB7bhvv858yMRZQzpLoRYRVwJRdjpI7i4cKouYVpfUYx9NUFXMCyvOOhSZvUCxje6HNZveuPPcptMRI1d8ZDzLe+jj2UcsvJyYcYYLR59EHjB/OhElNFcunQJx44exeKFizCgbz80ql9fw8YvP/6E33/9Tf9cKL+NHvnz/I4KZcvC3t7OfO9XF+5wAh59WunFib7woS+k2Ogsgqt7txhh5fluW2mR7Gu/vHMjPHq31M/f8nO1iP6c9ezbBrdc7c0ziTIHKRK/6+upuyau7t2MkDWLNJxIy27ZkimNGXz/6K/1JX7GdcbFBVMQsm6JETi2I9zplNaGRN68YT4aUcaTbkOIlbzyIIHktqcLQjcux7mJQ+DWtbEWkDs2KA0H2VdZtzikP791tcRyFNUtAnpfvZJ6rhR+uXaoC5+x/RC8ch7CnU/rMmvMw4fmRyOi9E66VwX4+2PPnj2YN2cuBg8YiKaNGqN2jRooX6YMCuTNh5w//YzcOS2rHtbgYT3kfrl91YoV5iO+voeXQ+D31xjj55FMOzaLt2UVwfjZ5D2iB8JOH9aVk7RICupvnDiAs4MtLctl1UM/fyN8yL52/zkTtA6GiCzfL1qQbhaiyyHbE6WBw+PoKPMsoswh3YeQZz2KeKjf1A9CAvWVt2uHdmk4CVzyl74C4T93kuUw/hy4eIbO9Li6fztuOp7S7hXRt8MtPwy43YooQ5Kp3JERETrX48jhIxgxdBgqlSuvoUPCR3zBI+4h50lwkSL15CQXJ9cO7YR7t8aWIlTjIt66kitbm7xH9jAu9g/qkLK0QD6PG0f3apGtdcisrCTr21pF4NGzBa4b9/PCioiI4pPhQggRUVJdv3YNixYsROMGDVHYpsBTW6+sh9wudSE1q1TFOd+U25v98EooLi6eoTNEtB5Na9Qs20Rln7gUe8sLK3d9PBF1O9x8r9QhHa2kLi9k3WK492puWV2W7auy8mHW4ske+KAV89h+l4iIXoghhIjIdPDAQZQoUjTe1RC5zeb3fFi7ao15dsqSLaZ+s/7Qgm7pyqd1anrRX1jrR6RFuOwnD92yWld9I65dNt8zecnjymT3S1uk+09fLZy3q5bfEj7k8zE+L/n8XFpX061XsgeeiIjoZRhCiIgMTo6O6NShg9Z8yErIs6shv+b4BT27dsed27fN90gdt1ztdBiZS9sasJN6C2sYMetGTkvbcCOoyLYomTUSsn6J1mjc9T2LyBvXEj0E8VFEhE51lxBx4/h+BK9dDL8ZY43H7QSnphVhW/l34+NZ6j1iw0eVvDjTvrbOK7jt6Ww+EhER0csxhBBRprdl8xZUqVBR535ICJHuV3FXQ2QmSLnSZXDq5JuZ4SE1avcu+CB08wp49m0VZ3hqIX0rdSOyFep0hdwaTJyaVoBbpwbw7NcG3sO7aRceGRAoKxUBcyeaxyT4z/oDF4zbZWCatBOVLlZnOtXX1Q59PJl1YLzVLWHmx7OTbWHGxz/bvx0ub1uN+/6+nJdERERJxhBCRJnWrVu3MGPqtNh6DwkeUnjeomlTdOnYScOIhBIJIePGjMGjNNCwIurmddxyc0TAwmlw69IQjo3LaSjQVuTSflzbkdvoli0JEDp3oNLvumoRe7/1kPNkdoHcL+fJ+cb7xX0cCSDS9Uo+jhTNB/49Qz9+WimQJyKi9IkhhIgyJb8LF9C7R08NGBI25Mj762/oaoSPoMBAONjbo2K58roNq3KFCjh/Lm0NCpPVEZm8ftvDGSFrF8NnbF8NCS6tq+sAVtkypasZMiStsiWEWA4jaMQext/NkKLnGbdJ63IZoKhDXrs3gc+4fgjZsAS3PV0Rc/cOOwcSEVGyYAghokznxLHjqF+7jg4hlJUOeVu4QAFM/GM8bt68qeeEhYWhXes2yPH9D5g8aZLeltZJe3IJJdcP70LwmoW63ercxMHwGdULXoM74Wz/tvDs29py9GmtW6qklkTuP2+cJ+eHrFlsvP9u3PE6Y4ScO+YjExERJS+GECLKNCIiInTIYOniJWOnoEsdSMVy5bBu7VpEx8SYZ0K3XvXv0xcFfs+Lc2lsFSSpHsdEI/r2LZ3gHHElxHJcDtG/R9+5zdUNIiJKdQwhRJQpXLl8GWNHj4ZN3ryxKyBS/9G0YSPY2dmZZz1t5PDh6NW9O6KiOHCPiIgoOTGEEFGG5+7urlurJHzky51HD5s8v2NAv34IDg42z3repPETsH/vXvNvRERElFwYQogow5ItVXt370H1KlViu1/JWxlIOGfWbNy/f988M37btmzVAnYiIiJKXgwhRJQh3b59G3ONoFGicFFdAZEAIvUfNapWw55du82zXiwoMCjVhxMSERFlBgwhRJThBAYGon/fvrrtytp+V1ZAOrRpCzc3N/Osl3ssQ/g4iI+IiCjZMYQQUYZiZ2uHZo0ax04/lzkgNnnyYtzoMbh86bJ5FhEREb1JDCFElCFI/ce6NWtiBwxK+928v+ZGmRIlsXrlKjx8+MA8k4iIiN40hhAiSvfCw8Mx4Y/xKFKgIH43C9ClDqRBnbo4fvy4eRYRERGlFQwhRJSu+fj4oFunzshrtt+V7Vdy9OnZk52tiIiI0iiGECJKtw4ePIg6NWvF1n/IKoishvw1fTru3LljnkVERERpDUMIEaU79+8/wN8LF6FUseK67UrqP2T6eeXyFbFt61bzLCIiIkqrGEKIKF0JCQnB8CHDkN9svysrILIS0rZlKzg7OZlnERERUVrGEEJE6YaTgyPatGypocM6/0PCyIihwxAaGmqeRURERGkdQwgRpXkxMTHYsmkTqlSopNuupPuVDB8sXbwEFi9chAcP2H6XiIgoPWEIIaI07fbt25gxfboWnOvgQSOAyEpIvVq1cWDffvMsIiIiSk8YQogozbpw/gL69uqtxecSPmT7layAdOvcBd5eXuZZRERElN4whBBRmnT82DE0qFtPt19J8bmsghSyKYA/J07CjbAw8ywiIiJKjxhCiChNiYqKwqoVK1CmREkNINp+95ecqFC2HNavW6f3ExERUfrGEEJEacbVq1cxdvRoy+BBcwtWnpy/olmjxrC3szfPIiIiovSOIYSI0gQPd3e0b90G+XLnNo48uv1KwsiAvv10NggRERFlHAwhRPRGPXr0CPv27EH1ylV09UOCh2y/Klm0GObMmoX79++bZxIREVFGwRBCRG+MtN+dN2cOihUqjLxGAJH6j19z/IKaVathz+7d5llERESU0TCEENEbcTEgAAP69dOtV3JYBxC2b9MWZz09zbOIiIgoI2IIIaJUZ2drh2aNm+i2KwkfEkJkFWTs6DG4euWKeRYRERFlVAwhRJRqYmJisG7tWlQsVz52/ofUgZQtWQprVq3Cw4cPzTOJiIgoI2MIIaJUcSs8HJPGT0CRAgW185WNOf28Yd16OHH8uHkWERERZQYMIUSU4s75+qJLp0666pHfCB8SQuTo07MXLpw/b55FREREmQVDCBGlqEMHDqJurdr47ZecWvchQaSITQH8NX0Gbt26bZ5FREREmQlDCBGliIiICCxeuBClS5TU+g9rAKlcvgK2b92m80GIiIgoc2IIIaJkd/nSJQwfMkQ7X1knn/+e61e0adESri6u5llERESUWTGEEFGycnF2RpuWLXX1Q+o/8hkhRN6OHDZcwwkRERERQwgRJYvo6Ghs2bwZVSpWQp6cv8YOHyxdrDiWLFqMyMhI80wiIiLK7BhCiOi1hYeHY+b0GShsU0AHD8r2q19z/IJ6tevg4IED5llEREREFgwhRAmIiooy/0Qvcv7cOfTr3UdrPmT1Q47cuXKhR9eu8PbyMs8iIiIieoIhhCiOW7duYfbMWWjepIkO0RvQrx/OuJ4x732xq1euYM/u3fD38zNved6eXbv0sfv16YNLoem/PuLYkaNoVL+BrnoUMMKHrIIUypcfkydNQtiNG+ZZRERERE9jCCEyBQUGoWWz5mjdvCW2b9uGVStW4tdfcuqEbztbW/Os+N28eRMd2rbDV599jhZNm8Vb/+Ds5KyzMrK89TY+ev8DTJ08BTExMea96YvUf8jzU6ZkKS1At9Z/VCxXHhvWrmP9BxEREb0QQwiR4f79+2jdoiW6d+2Km2E3zVuBBnXr4V//73+M+1q8cK7F3j178PP3P+Dtf/1HC7MfP35s3vPE5o2b8OF7WfD151/g80+yo36dOvpx05trV6/hjzFjte5D2u9K5ysJIs2bNIW9nb15FhEREVHCGEKIDPPmzkXVSpUQeinUvMVSE1K3Vi28/e//6MC9SyEJb5+aMulPZHv/A3yR/VMMGjDQvPVpgYGBOjn8k6zZ9DxZNbhz5455b/rg4e6Bjm3b6dBBWf2Q7VcSQgb2H4Dg4GDzLCIiIqIXYwihTE+2UlWrXAUrl68wb7HwOuuFksVK6PapUsVLIiQ4xLznaREPI9CpfQe8Z5z343ffY/Wq1eY9z5P6kiIFC2lgkVqK9LQSsm/vXlSvUlW3Xcn0c1n9KFm0GObOnoN79+6ZZxERERG9HEMIZXoSPsqWKoWgoCDzFovFCxfhm8+/1PqNpo0aITom2rznaT7ePqhQtiyyZnlfC7S9vb3Ne+I3dfJkPbdHt+7JUjtx+9YtDVLxbQFLDnfv3sW8OXNRrFBhDSCyDUtqW2pWrYZ9e/aaZxERERElHkMIZWqy5UoKygf1H/BUkXjEw4fo1KEDsrz9Dr77+mvMnzvHvOd5u3ftxndffY1Ps32kW6we3H9g3hM/qR/J8cOPmD5l6isFh7CwG9p9qkmDhmjSsCGqVqyktSwpMY1ctpAN7N9ft1xZt2DJW3nOvDzPmmcRERERJQ1DCGVqDx7cx8wZM+DwTEH1GVdXfeVfViyk+PrC+fPmPc/7a/oMfPDOu/jy08+eCzPxkU5bBfLlwz4jjLyKO3duY+WKFejRtRu++/Ir/O///f+01uTBgxeHn6Syt7dH00aNNXRICMlrvC1iUxBjR43GDbbfJSIiotfAEEKZmqxESLvZZ/29aDE+/jCrdrFq1rhJgsHi9u1bWg8iNR4SQjZt2GjekzCprShRtBh8XrJt62UkdJQtVRofvPsuRo0Yad76+iIjIrFxwwZUKFsudvuV1H+UL10aq1eujPf5IiIiIkoKhhCiZ9y7exedO3bSdroy92P50qXmPc+TaeHFChfBpx99jJ+++17rQ15m/tx5WpR+/fp185ZXc9bTU1dpfvjmW2zetMm89fXICsefEyaisE0BfWzZfiX1Hw3r1cPJEyfMs4iIiIheD0MI0TPczpzRrUcSLH775Recf8FWrMOHDulqyWcff4Ja1au9NFjIykuPLl0xZtToF84dSYzlS5fp6osEBn9/f/PWV+fr44OunTo/1X5XgkjfXr1x4ULCzwERERFRUjGEED1j+bJl2hFLwkXb1q1x/3787Wdli9Zf06fjkw+z6uyPUSNGaKH7iwQHBaN2jRrYtWOnecur62OEAymcr1enzmsHGglTMhNFuntJ+928v+bWSfGz/pqJ8JtPhjcSERERJQeGEKI4ZN5F9y5dkT3bR8huBAupgUiog5UMGmzfpq2ugnz0wYfYsnmzeU/CNm/arDNJ/P38zFteze3bt1Greg3dMjZm1Cjz1qSLiIjQVsTSojj3LzktU9B//Q2VK1TEju3bWf9BREREKYIhhCiO0NBQlClRSoPFj99+B1cXF/Oe5127elVb8sq2rZw//QwXZ2fznvjJTJBuXbpgYL/+SWrNKx9Htkp5eXnFbvdyNj6WBIavP/8Cu3ft0tuS6sqVyxg+ZKglePyWO7YNb5uWLbU7GBEREVFKYQghiuPChQtaYC4rIdJ56kW1FjJDQ4q2pYtWpfIVEOAfYN4TP28jRJQpWQq7dyZuK1ZoSIi2D27asDGaNGykxewyn8Pezh4rli/HF9k/1a5VwcHB5nsknoSMNi1aIo/x/tbwIW9HDBuWIvNGiIiIiOJiCCGK45yvL7754kut8ahXuw4uveCCXGaHfPvlV1o/IiHh6pUr5j3xW7hgvtZdhIWFmbckTDpRVShTFgXy5de2v7KKIjUomzduQstmzVHOCEjyOdavUzdJU9eldmTrli2oWqmybr+S+g8JMiWLFcfSv5fo9iwiIiKilMYQQhRHQECAzsb4+IOsqFu7thFCQs17nndg/37dDiX1IDLUT7ZNJeSKEVDq1KyFlcuXm7ck7MihQxoMcuX4RQcbPmvh/IU6l0RWQiZOGJ/orV1SRzJj2nQUKVhIt19ZA0i9WrW1MJ2IiIgotTCEEMVx8+ZNNGvSBNmyfIB8eX6Hj0/8cz9k9UG2SUkHLdm6Vb5MWQ0wCZHZGzL08O7du+Yt8ZPaD1mVkMecP2+eeevTTp04iVw/59BalIMHDpi3vpjfhQvo27u3ZdtV7jzaglfClkxdl49JRERElJoYQojikFUF2a4kqwzSeWrJ33+b9zwh50z58080rFffeDtZi9glNGze+Py0dNn+tHLFClSvXAVubm7mrfGTx+3dsxfe+c9/UaZEyQS3d21Yv17bAuc2QsTFixfNWxN27OgxrSeR+hWp+5BVkEI2BTDV+BrCw8PNs4iIiIhSD0MI0TOioqLx58RJ+PbLL/HTdz/g70WLEeDvj8uXLuvgwvHjxmm9hnTOkhqKIQMHaRDJlyePBhEpWJcuW15nvTBpwgTUrlET+/buNR89YbL1SlZfsmZ5H/379DVvfZqEmtEjR+Gdf/8HzZs0xa1bt8x7nhcREYlVRgCS9ruy6iGrH7L9qlK58li/dp3WmBARERG9CQwhRPGQVYmdO3YYF/pNUKFsWTRp1Bjt27ZF3Vq10aZVKzg6OppnQmdprF2zBvXr1NEVDFkhaduqtYaP3t17wNfX1zzzxSZP+lNrPXL88CP27Npt3vo0WR2RVY13//sWpk6enOCQwqtXrxph6Y/YyefyVlZCpKg9vjoTIiIiotTEEEL0EoEXL+LUqVMaSuxt7RKcii63u51xw57de4xjt7bkTSwJE106dcJb//q3hoagwEDznqe5u7nj1xw5tBg+odUVD3cPdGrfQVc9bPLm0y1Y8piyYhMUFGSeRURERPTmMIQQpQEPHtxH6xYtdYVDVlMePnho3vO07Vu34cN330Oh/DbwOntWb7t96zbOnDmjKzIH9u1DjarVNIDIEEIpRC9RpCjmz5330qJ4IiIiotTCEEKUBkh9hqyESK2HhJGY6OfrNSRkDB00CFneehttW7eOLSo/cey4brOaO2cOShYtqvUfEkBk+1WtqtWxf+/eRLfxJSIiIkoNDCFEacSfEyfig3fe1UARH9vTp5Hzp5+R5e13tDje6o+x43Tlo0iBgtr5SrZeyQpIh7bttTieiCg1yGqrk6OTziR6GXlh5PLly9rEg9KWhxERcHF21iYrSSFt6mWFPqFaRaJnMYQQpRHe3t4oVqiwBgopLI9LVjukG5bUd/znH//EvDlz9faTJ09q8Mj9i2X7layCFLYpgHFjxiLsxg09h4joVTx8+FDr4O4lcivn5UuXULZUadSqXl3f72UrsHNnz0bRwoX151lCdXAvI8Hn/v375t9SzqXQSzp0NjOIio5G544dtVvj9KnTtDNkYsydPUdfBJMXyXyM32fSPZLoRRhCiNKQLZs2aRBp2bw59u/bh3179upMkg5t2umE9iOHD+On775Hi6ZNsWjBQg0cP377ndaI/JYjp7YOXr1yFaLZfpeIXpNc4I8cNhxdO3WCp4eneWvCvIwLTxmi+lvOXNi6efML24BLI48RQ4dpjdt3X32NdWvXvtK2UUcHB2264RSnY2Fyklf2ly1ZgsoVKqJNy1a4e+eOec+bJysO4TdffdbT+XPncOH8efNvT+vSsRP++89/oVTxErA7/aSjovw/sWLZMpw9+/z/D/I+n2TNhg+Mf1PZMhwWFmbeQxQ/hhCiNMbJyQljR43C4AEDMcg4Jk+aBL8Lfua9wNrVa3RiugxU/Pn7H2LnfzSqVx+nT54yzyIien3Xr1/TC3DZ4rlp48YXBos1q1fj2y++NN6uMm9JmGzZktVdGc46aMAAXXV5FTdu3EC71m3wa45fMG3KVFx7ZhU5qSIjIuDu5qZfi3xechEuw2GlfboELHmVX+rz3rQHDx5g2uQpaNW8hW6DehXbtm1D3Vq1sHfPHvOWJ3p07apbfxfOX2DeYiEvhP38/fcoXrgIthhB00o+n4rlyuv7FDPuk3BI9DIMIURplGyBuH//nvk3C18fXwzs119/AcjWLGv73b49e+PiK/4iIiJ6kYMHDuDzjz/B919/jf1795m3AteuXcMdc2VAVjF6de+us5HiXqTLlhypZ3s2vFy6dEmDzQ/ffItDBw+at74aqSspV7oM3jaHuMor/Il18+ZN2NvZ62DXEcOGoWmjRroaLYFDHk/DR7aP8OWnn+kMJ5n/JG3QE+PevXvGRfx8bZnes1t348K+22sf8jh9evVCy2bN8I0R+N576210N25/le6H8vm1a9MG33z5JebMmv1U+/lexr/j+0agkBe94urXpw/ef+ddlCtVWlfnrWR4r2wNludt9sxZ5q1EL8YQQpROHD50CPVq1Y5tvys/8OWX5awZf+H2CyanExG9jrt376B9m7b47z/+qYNYrTUYa1auQr3adXDs6FE4OzmhaqXK2LZ1K/z9/HDO1xe+Pj6YOH488ubOra/aR0VG6vsJOzs74wL/Qx3uGm4EgdclH/fH777TNue9e/Z6amuXvEovKy+hISE4dfIkVixfjlEjRui2VlnlkZ+jv/z4k85f+swIW4ULFECzxo0xdPAQLJg3H7t27tKCex9vH/3arJ0JX0Yu6mWeU4d27TB8yFAsMAKJbJfdsG79Kx2y8rB92zaMHjESX3/+hQakzz/Jjh++/Q5rVq02P2rSSEDM9fPPurK+ZPFi81agrxF0ZFVj1YqV5i2WrW/SdVHayPsY/7ZxLV2yRIOaNEgJDg42byV6MYYQojROZoYsWbQYpYuX0MJz2X4lb6tWrIwd27e/cHsEEVFyWG1c5Fr3+t+/Z1mhXb50mdYNyIVn3Zq1ULl8BTRu0FCDRcN69fTIlSOHXixL/drpU0+2i8or759m+xjTpkwxb3k98nOwTatWur2rVLHisR26pD5u4YKF6Ni+A9oZAapbly7o37efrnpM+OMPI2TMw7o1a/Vzlvbnq1au1KYesrIQGSc0vQ55nEePkufntAzNLVqwEL798itdER88cKCuJMm2tFchYa1Th454y/h3LG08b9YVlX69+zwVQuT57dqpsxarS+B8Vu8ePZD1vSzG+/U2byF6OYYQojRMumQNGzIUBX7Ph3xm+10JIG1atsQZF1fzLCKilBUSEqrbgA4fPmzeAmxcvwH//t9/aOF62PUbug1Lajtk5cF61KtdW1+1l05YMeY2LSmoblS/AQrmy4+zHonb2pQYO7ZtwyfZsqFa5SqxqzXysaRAWkKJfD4SCOTzjLtSIn/u37cv3vrXv7UhSFoknbkG9OuvW7DKlCyJWX/N1BbHyUFWZ2QblYQaawjp36evhpDVqyz1Pdu2bNEXwo4fO6Z/j0ueX3nOZVXmxPHj5q1EL8cQQpRGnXF11W4seWT71e95dfuV1ICMHDFCtxUQEaUmuaCXw1pzIduD5BX03j17JtiOVVZDpKOfvIJvJfUgsq2nQ5u25i3JQ7ZJDR4wAHt27zZvSRwJJX1799YakF07d5q3ph0nT5xApQoVUMSmICZP+jPZf/6HGI/XqH59XRWyGtC3n4aQDevXa+2PNEmx1oDI/JC4M0SOHjmi24SlMF2C3svIFjBp4UvEEEKUBm3dskX3V0vHl0L58msBp2wxkO0Pr9pFhojoRR49fqzdpV4030FWGKS+QUh9wtv/+rdu3XlshJP4NG7QQEPI1i1bzVuA9evW6aruvni6MlnJx3mVn3Wv0rlKajfSUgjx9vbRFQn5vGZOn4EyJUtpCDjr+fI2ya9KgmFcQwcPxnv/fUuDpqweBfhbGp+cP38edWrW0gJ9qfkRsqUuW5b3sXL5Cv37ixw9clRX8yWwpOTXQ+kDQwhRGiK/eP6aNl2XxeUHtWxXkABSt1ZtfbWJiCilyLakzRs3onuXrjh3zte89WlSkCz1FEJWN6QOQAqVhwwciJHDh+t9cQ+pYfvlp5+faucqRe5VKlZM8FXzS6Gheo48nhTFxyWfY9ytVAmRACMX1omp60jtEPKyz3/+3Lna5atzh46QVrlS+B+XrEa9zrySI8bvElllb9Wsub6Vo0unTmjftq0eHYxDivW/+CQ7KhlhQf4tpB6kbatWKFe6ND75MBs+eOddXT1xsLfXmhKZ9yLhRM6xPqb1kGYG+tjG40hTlY/e/0Dri6pVqgx3d3fzs6LMKNOFEPmhF7cNHVFaEeDvj769eusrhHLkz/27bsGStozSaYaIKKXJSkjrFi30BZBtW7Y+d8G8ccN6/L1okf55x7bt2q61ZrXqepvM1li5YoUeq1eu1LclihbDzz/8oOFGSHcpmSNRslhxDRnDhwzBMOOwvh3Qr5/Wi8gAQ2mJO+uvv54KErfCw/HnxIk6DPFFv8ulk9PCBQsSNbU7pUKIPK61QN5KVmpkxWDa1Kmx9RfPkra+2bN9hE8//jj2uY5LViAkpMTd4pYUIcHBGD/uDwweOMh4/MX6b7N71y59oWvKn5N14KB0CpN/A/k3kRAktUDS6UvaNUuHsRMnTuhzLKthNnnz4sdvv9V/74MHDhqPtTv2kC1c0rJXQseXn36OGdOnw9nZWbeYycwRdtLK3DJNCJHwsXL5cu2A0bN7d3gwfVMacuL4Cf1/U/ZJyyuHv+f6FYVsbDDV+IWQ2HaQRETJwdPDQ0OIFJQvXrjoqQ58clG6x7hgFVs3b8Fb//w3evfoiQdmIfizpCZEZoFsXL9e/z5n1ix8+9VXmDh+gl78yu1yyJ8llHz8YVbdiupiXKjKFHSpjYsbJGQVQIqkbfLmQ7dOXeAfZ5BrXNKGd7bxsRJLwo8UpsedfZGQ8+fOY97cuQgOevEFtKwatWnZGosXLETgxYu6xUxCnVy8FzCe3wZ168W7EiDbbqUAvUrFStqcJC6Zy9K1c2edD5Ln199w+NBhfU7kRSx5rMiIxHf0ejZgStiTmSbSrlcCiPz7S5vic77nEgxM0sL4q08/099XCQ1NdDT+HaV9b9FCheHhwWsveiLThJD1a9fqN7UMHZKEX7N6tVduaUeUXOSXq7xiWLZUKd12JUvVEkQqla+AjRs2yG8J80wiotTz1/S/8LHxu1J+Lrm4uOhtkVFRaNqoMdzOnNG/S3j4z//+U9uyWjtfPUtqQuSCVqaty4uBMqFbXmg5cfT5LkvSKlc+ZpeOncxbEjZr5kzj3KwoUaSo1hnEdSMsDJMmTNCVmgvnz2sdg6+vL7y9vOB19izOxjnk725ubmjbuo0WYi+YO888x/Op8+Tw9vaCna0t6tepi3//7/+iY7v2WrSdECngL1GkGLJmeR9lS5bSUGUlQSN7tmwaRp4tpJfBifKctWnV2rzFQkLC2NGjtf5CAkKNqtV0pSQqKlILyKWGcFD/ATpTyjpEMimm/PmnbquSINKscRNk/+hjDYRFCxZG9SpVdFVKnhsreYGsdvUaOrVdBiY+u23MateOndp9S7Z2+SUQGilzyjQhZJiR5mWIkfTWlm8G+cF6LJ5Wc0Sp5eqVq5gw7g8NHrL1yhpA5Ae6g529eRYRUeq7cvkKCtvY6O/M7cbFvPD09ESbFi21m5JYu3q1zgmRi1Z5Jf7G9et6yKv3sq3r6pUrqF2jhk7klmGCmzdtQvOmTTQgbN64SR8jLun8JMMCR40Yad6SsIjICA0BsiIgv89le4+VvZ0denTrhnNGCBgycBCKFy2qK82d2rfXiePSzct6yDYsua1k0WJ6bSCrE9KeVgYexj1PDpkWLrNIpFC8YtnyWguzZPHfCRbDy3MiBdiyZU0Ky+U5sbpz965+PvL5582dR8ON1ZpVq/D9N9+gtfFcW8nHmDJ5sgYa+XoXG+EjbuG+bIv66rPP8c5/3tKgeP0F4Sg+8nXIFrA6NWvqdi35N5DPe93atdi/bz+KFSqCf//PP3QmjJ2tnb6PtOP98dvvsNP4/0NWneQFtfjqXZYtWaIv/jYwwltY2OsPpqSMI9OEkHmz5+g3r/SxlrfyAyehpUOilObu5o7OHTsht7n9SlrvSv2HdCQJCgoyzyIienNkhaN4kaLwu3BB/75m9Sr06tETt27d0r/Llid5cU8uTCWIyGTwls2b64V9D+PCXrYN/ZYzlwaZ0SNH6c+3fXv26grFVOOCWrYRxdWrRw89d9HCheYtLyYrMtLAQzp0DezXHzHRlm1jC+fNx/Chlg5eri6uOgfj4P4DcLR30PeR7dixh4eHcY6LFlS///Y7mDtnjoYtD3ePp88zDvm5LR2dZHuSBBzZbuXt5Z1gCJEtWLKSIAMUT518MqjRSm6TACJBRGY/WUltTdwQIhf2M6ZNxycfZtUwFXdFxUrqNSzT3gvCNk6gSQyZxv7NF1+hYf36WrMjZCaJDG9cu3qN/l3mUsmKvUzNHzJokG6/k9kqEizu3bun29OkS1Z8z8WfEyZqoGnfps1z/+aUuWWaEHL9+nUMHjBQlyvLlSqtPwSJ3gQp1qtZrcaT+o9ff9Pizflz5yW475aIKLVdvnQJZ1wtW6+ErCpImLBeSC5etFhXQlo0baqzH6RQulB+G/Tr0xf2dvbaOale7Tq6siBbfWRKulyk7jWCiAw+fPaCtVb1Gvj5+x/0gjoxpFZlUP/++Of/+x/dhiSfl/wMlS5MUmidFEmpCUms4OAg1KxaDe8aIUSmmj9LPl/pHGV9Dq2sIaRDu/b6HE2fOg05f/pZJ7wntI1cHl/qaeQ5vHz56Xa7L7Js6VL89O136Napsw5EtJJQJy16Vy570nZXCtfz5Mql4cPV2VlDifXfaunfS3T1yTokMi5ZaZKgJcGGKK5ME0KE7L8PDQnV5WKi1CY/nGUYlLTfleAhAUSCiOyplR/kfIWIiNKqe/fu6lYlqVewOrD/AMaMGvVU974ZxgWzpRB9g/5d2uTKq+YSDuQVcyHbeKRgPe52Ipm6XdimgK4IS/1GYkkdQu5cv+pWL3H61GlUr1JVX3hMrJTqjiXbmuTnu6yExBdChASO0iVKaqcoK5mjIp3BGjdsqF20alWvbvyO2BfvVicreX/paiWTywMDL5q3Jkzqc6Ybjy3Pt3QbezY8SKj7z//+Q1eR4tLtWcbvKwmjw4cOi/29JcGyRrXqz4Ukub+Wcbt8bjNnzDBvJbLIVCGE6E2RV8RkCTu2/W6e33UbgWxh4MAmIkrrpEtV6RIl4Ojw/FaguDw9PHVbUIe27Z5qoevv7xdb9+Dv76/NN/zMrT9Cthjl+vlnrbNIypBCOVe2PVnb+I4aMQLdu3TRPydWioWQkBAd6veiECKfvzwPcQOGrE5IkPv+628wsF+/59r8xkfCWPZEhhDZciWrEvK5ScvdZ8kLtoMGDNBQEbcQ3crZyUnnhsQdcCj/7uXLlNVta3FJ8brN7/n065GWz0RxMYQQpTAHOwftNCKrH1J8Lq88yZaF8WPHJenVOiKiN0WKjksXL6EX03Kh6XbGTYOJtNKVOgt5MUVqJqR9rtSByDYjJwcH44LVWV+ll+5K33z5FbYa90vnJqmVkK5JVqtWLNeOUDIo71XdvHnTuAivnKjJ3XGlaAipWeuFISQu2V4mz091I0hIkXnuXLn0xSvZ1vYysrqUPetHLw0hEhak7a40AXi2/a+QMLR61SoNidu3bsW9eLYIy5Y1D+PfOi4JShXLlcMq4/+TuOT/jxw//qS/+9zd3MxbiSwYQohSyKNHMdi0cRMqlCmL3MYvZem7L9uvypcugzWrVj/1KiERUVolW2qkHkS2Y0n71yYNG+oWopbNmqNn9x5o3MD4uxFQZItV7x490LxxE3Tt1Em39Azo2w+dO3bUEFK1UiWd06XD9po2xaTxE82PAPTt1UtXUObNmWveknQya6R4kSKxxdVWcnEvq9EJeWz8J3UOUhOyd88e89anhYXdSHK9SFJCiBTH9zKeSxlC2LZ1a/xiXLjL0MYJ48frFl4ZLCgBIiHSHUy6W70shEhwfNHjyAtjUvwuRfqlihXXVY/Eqle7trbqjUu2c8nk9Qply8VbL0KZG0MIUQqQV+QmT5qke5xl21WB3/NqEGls/FI5fer5LilERGnVlcuXUblCRQ0ickEvP8PkYl1WOaR+QzpmSQvWfr37aAAIDgrCxYAAXLhwXtvUyt9DQ0P0olzuDzd+PkphulxwC1kZkToOGWgnF+OvSgrS6xgX/c++wCP1D82MjyVdmqSb1cWLF3VLmBzyZ+l21a51Gy0Qlwni0qFQumda75f5It06d9FgsHzpUvNRXy4xIUQef8yo0ShbqrQRhPrp1rJtW7fgh2+/1RbEQl60+vmHH1Egb378NX0GwuIpTk9sCHkZe1s73Tr1SbZsGDlsGO48sxVMVork3zY+QwcNQUUjbNw2u6cJCaEy10SCKNGzGEKIkpkUaXbr3Bn5fntS/yFH31699RcMEVF6YnvaVguL5QI9PkMGDdYZG3KxHJ/AwEDzT08sXrhQBw0GBwdrPYhsVy1ZrFhs8XpSybTwgvlstJPUs6TuQlrhyudYvWo1tG7ZSlsJyyFzmVo0ba7bw6Qdcb06ddGqRUvjvhaW+40/ywrQd19+hWzvf4BcP/2c6M5bcUOIrCBZyZYn6Tw29c/JKFa4iB4b1m9AZKQlPFm7Y8nnZrV/3z59ISvre++jZrVqOGD8PW4dSWJDiAQ0qc2RECntkqUpiqzwSEiSQ2pQPnj3PeT/PS9WrViJE8bjSt2IbPeaN2eONgGQjy9tjJ8lNR+y7coauO7fv4caRrj8zHjelyyO//8dytwYQoiSifxCkBaGdY1fOrL6Id2v5K38opVXr9h+l4jSI2mv+3HWrHohHB8pQpf2sNJtSfb9y5Yfae0rtSKjR45EsUKFsXXz5tjicSHnyKA7CS4yY0IufGVFIO6FdVL8MXaszgGzTnePSwqtZXK5XKTLwD8pqI49QkP1rXTNvBV+S+sk9LZQ6/2XcOrkSa3jk+1i8op+gJ+/+cgvZg0hMktl7+49uHUrXLdCSatduViXug8ZfiiT1eN6dk6IlQQZeUFL5nfIqsyCefNj2xwnNoTI87t2zRptACB1H00aNdIGKbKtTlaSpBhePnaTho10YGOPrt3QvWtX9DH+LOMNZFVDVkpmTJ9uPuITQYFByPHjjzoPRtieOqXBKedPP7EBC8WLIYQoGcird9InXfbQWgvQpf5DfiHs2rHDPIuIKG2Ti3ApJg4JDtE6iOPHjmszDRlIKKHiWfKzT2oIJIRITUDTxk20ZqSpcXErNQ0SNLJmyYKWzZrhWpwp3tKSt0yJUqhcsSJqVquuF/gya+RlpD5FPmbclubHjx3TF31kS1N8czQkhJQpUUJrE6TzVFLJ9iMJIfIzPb7nICESQmR7mAzqk2L5gf3747uvvtEVFXleZv31V7ydwBIKIUJmseT8+WcduiyrEjIdXiRlO5Y8Hz7e3vpcycpItHHI8ykF6RIGJYzIlmIJONZD/u1kEnuWt9/BwvkLngqUVvK1yMcvX6aMDrScMW2afp4yhd0alojiYgghek2hxi+aEcOG6S9B2YIlb+XVH+kOI6/2ERGlF54eHhg2ZIjWSDSqXx/FChbCh+9l0aAhKwPPkiJzKUrPmzt37AyumEcx+oq71HoUNi7e5dXxg88UdctF6cTxE/SCXAKMBJe4tQQJkQtdKUAfPmQoJhnvP23yFG32IYXU40aPibfhh1x0S/vYL7Jnx9+LFpm3Jp6sVFgbi7xKCJFBfbKKJNvZsmfLhgL58uncj4S8KIQIWYWQVR95XFlFElKn8zo1IdLdqlzp0siV45fYVspxybatL7J/qqshCQ1DlH/z+cbn8/XnX2j3R+kKKaFm8Ss855Q5MIQQvQYJGW1bttLQoSHErAEZNWKkDsYkIkpvZHL2jm3bdEvOpx9/gg+NC0npehTfBb68Mv/Td9+jjfFz8NlXx+WVdvl5WMjGBhcDnr8wdrCz0xUBuaCW1rSJIa/Yu7m5YfHCRRqM5CJXaj0kyGzfus0862nyeUlhvVxEv24IScoLS3FrQmSOh5CPL6sWLyLbpV4UQmQlSJ7vf/zf/y92AKCsIr1OCJFVGXl+JDw8SwJKs8aNdVvZEiNIPXrBljmZKyKDFmXyvRzy759QITsRQwjRK9q2dSuqVaqsv5hk+5Vsw5LtWCuWLWMrQiJK90JDQ1G2VCmdnyG1HfGRadtycSrbnJ6t5/D389ctQ9I2N+5WLKu9u3frq+YSIGR1I6lu37qNYUOG6vtLLYOjY/yDFCWESIvgNxlCXtaiNy4NIcbX06rFk8L0Z501LvZlovpB83FfpzvWOePrK1ygIL798ivMnzsPgRcDtQua1Yply5EtywdatH/16vP/jnHJ776O7TtotzRpZjBp/HhZIjHvJXpapgsh9+/di3cvI1FiyatQf02frgXn1hWQ33/9FXVr1caxI0fMs4iI0jcJFdKaVi6ip/w52bz1CWkVKzNCJEhIG9tnubq46qA62S71bE2Aj48PShQthq8+/QzffPElShp/lovhpJIVAFkJkZoVecz4REVG6XTwL9NgCJFtVBvWrcOhAwe0eFs+Vo9u3Yyv6SPdEvcit+/cib2eeZ0QIluKly1ZioH9+qNpw0b671XfCByjR43CgnnztCZIVrt2bN9uvkfCZEtey6bNYkPIOiNQESUk04QQSedLlyzRb6xuXbrgTBL2dRJZyZYCGaql266MQ344y9HT+KUh/fKJiDIKqaWQblBZ3nk33m5IssVIVhd6dO2KqKjnX9yTOgJ5Rb9BvXrmLRayTathfctWqkkTJmLOrNl6wSo1BPGtmLyI7anTyG68b6niJXDh/Hnz1qfJhXqtGjXSZAiR1sJjRo9GhTJl8LNxoS9bmGRFQkLI+HHPb41KyOuEECsJirL1ShoTyPYs6WomAU8+fwkh/fv01dqWa/FMWhcPHzzU4ntpyZvjhx80XMougcOHDptnED0t04SQtatXQ9rhyTepFMLJ0qxMBiVKrJMnT+qrftbtV9J+VzqmTJs8GeHh4eZZREQZw/1791GlYiUNC7Nm/GXeaiH1ITJcTy5SpTuVdNWSF/dksKFc9D98GIHhQ4dpSBk8YID5XpauWDJN/QMj2EhbWJklIRevUlv3wTvv6YC+pASRtWvXIstb72jhub//05PSreTzkYtz+VzWrFpl3pp48jXJ4Nlfc/wC1xTajiWrQL26ddfP8V3jfCn2T2hlJz7WECLzTpKjBkNqffL8+ht+NsKENFmRz0dmlMj1U/06dZ4bKikDIccaYerDLO+jYrlyes0lXbakM5gU4u/ZHf8kesrcMk0Ikb7Vsm/V8grDx7p/31ooRvQiUdHRWLVyBcqVLoM8OXPpK2ISQCoZP2g3b9yEx4+ftIokIsoopKZDXnSRuRTPDgF0dHDQbVj9+/bVjlUXLlzQ+RdtWrTU3QYyYyLXTzl0Cvr2bZZtPLJVp0vHTtptq1ePHrhpBBIraRkrW1zlQleGB0qB88tIuBg0YKA+nrSF9fO7YN7zNDlPwtQXn3yK9m3barcmGZaY2EO+rpw//qQX5c5OTuajvtwVI5hJHYWEkLjDChMiF/K9e/bUWVPy/CaFzDKRECJfp0x6f1USAOXrlWYBZUqWNMLDbr3d3c0do0eOQq6fc+Ctf/0b9WrXid1id914n0H9B2hYlW3JHu4eeru38W9aoWw5besrKzwyL+sWX7CjODJNCJG2cZLg5RtLCqykgPgip1fTS8hqmXQLkVdyZNuVrIBIHUjLZs3hlMRfEkRE6cn2bdu0e5VcREs7XSvZ3iwzQGTSd9wLXmnhu+zvJVoj959//BPZjHAgW7VkW1dQYKB2e/oy++cYN3ZsvMNbpW2tDOF737iYLW1cAMsgw4iHEea9z7t65Qoql6+gheklihZNcEusfHy5GP784+xoWK8eJk2YoIX2iTlkCKIM6pOtUvLipaN94n/uS71Hwfw22kpXBtkmhvzOkRkdSSVtdeUF1orlyuN8AtvSXkbCooSYH779FoMHDog3zJw4dhzVq1Q1vq78+nc/I3zKNjr52AP69tP6kricjNAm11vSYe2L7J9pK+bNmzbF22mNMp9ME0KkgG7Y4CF6ASk/jHbv3GXeQxS/sx6e6NShg65+WGtA5K38fxQcFGyeRUSUMUmXJtnX/8//9z8YOsgyBVtIYw55USahV/dlzkWBvHkxeeIk3ap66sQJVChTVlv1bli/AdFxOi89S7oLfvfV13rhLpO5O3foiJDg+H/eyguJOX/6WV9glNVpD3d3856nSQgpXaKkDitctHChFtzLq/iJOaRLlKzSyAq4fKzTp14+UFHI1928SVMNSHKBXql8eW15LBfhLzqkI1Zr40jMuZZDzmuEqpUq6UqIbEvz9vI2P4uXk+fmyOHDukKUL/fvuvXK9rStfu0JkRUsWXnZtHGTBgxpCrDR+HeVx4qPg729XnfJc5HVCKYSNKtVqaIBzyuehgaUeWSaECJkSfby5ctPLQETPUv60MsSdK1qNTS0Sp9z+QUn3VsWzJ2Phw8fmGcSEWVcsnohF6WyGiKrB0JeLZeBdZte0FJXLkZl1oi0+JWWryWLFUP3rl0T9Qq9BIQZ06ZrYBk3ZqzWm8S3aiKkvqRV8xb4/utv9Wd1QvUaEQ8foniRonqR/iqD8/z9/LT+T4qzE9tqVy7id+/cqWFMgoG8+u/k6IhTp04l63H69GnYGxf5C+bN169PVl5cnqnXeJZs+wo0Atxu4/dc106dtY5EVjGkriS+Ce7PCroYiOFDhmjhuhSr+12IvxYnLk9PT12FkqJ1maL+0/eWWhNui8/cMlUIIXoZ+WW3YP58FC9cBHl/za3td2VPdJ2aNbF3DwvriChzkW0zss1KuiYdPHAALZs1w56X/CyU7ld7du3W+o8ObdvphfuzM0ReRH4OBwQEIDHvISsOu3bsxKYNGxOsN3hoXHT/ljOnrkjI6k5SnfP11aJ0qYGR5yApHBwcktRR61VJgJC2uHVq1NIp9gmRYnl5DvoZ4aF3jx5Yu3oNLl+6nKh/H2nDLL8fmzRoiF7duyepPkZIMJXuklLzIu8rQU1e9KPMiyGEyCSv+slWq3y/5YFNnrwaQGQrVlfjF6mnh6XQjogoM3rw4KEOrUvMBfXJ4ycxeMBAbeeaFsir+7LdaNqUqXrBnVSyEtKlUydM+GO8ru6kRW5nzmDU8BEv3d4kHcxOnTylgx4TS3aRyPar4cOG4Y+x416rHlJWYaSWh0gwhBAZ7O3s0aJps9j2u1L7USBffkw0fumwlTMRZXZJWcmQC820ROo6pC70VT24fz/Nd3WKO+E8ucn2OpkdEhQUZN5ClDwYQihTk1+sUlxXsWw53VOs8z+MtzIxVoorEyq0IyIiIqJXxxBCmZbsJZ7y52QUzl9AWy/K9isJIjKQUIr9iIiIiChlMIRQpiSFht27dI1tvSvtJqULVr8+fbQ2hIiIiIhSDkMIZTrSErBurVq6+qHDB3/Jqe0bZ874C/fu3TPPIiIiIqKUwhBCmYYUSy5bslSHK8ncDxk+JYXo1SpXwc4dO8yziIiIiCilMYRQpnAp9BJGDh8Omzy/x9Z/SBBp26oV3BOYsktEREREKYMhhDI86WvftmUrDR1S95Hvt9y6CjJ6xEgdnkREREREqYshhDIs6Zsu26yqVqqsXa9k9UNWQUoXL4EVy5bpACsiIiIiSn2ZKoRERUXh4sWLuHb1qnkLZVR3bt/GXzNmoHjhIk9tv6pfuw6OHjlinkVEREREb0KmCSEy9XrcmLEoUaSodkbat3eveQ9lNBcDLqJvr16W9ruy/cp4K0GkZ/fu2pqXiIiIiN6sTBNCFi5YgI/e/wCffvQxPnwvC0qVKIGg4GDzXsooTp04qcMGf8vxi9Z9SPgolN8G06dOQ1hYmHkWEREREb1JmSaEDB00GO/+9y18++VXGkRka47Mi6CMQeo/Vq9chQplyj4VQCqWLYetW7bo/URERESUNmSaELJ65Up8+eln+CRrNmTL8j6qV67CzkgZhKxwjB83DoVtCsTWf8jbFk2bwdHBwTyLiIiIiNKKTBNCpBPSvDlzUalcebRu0QJOjo7mPZSeeZ89i87tO+B3s/1u3t9yaw3IsMGDERISYp5FRERERGlJpgkhVo8ePQIePzb/RunVY+PfcP++fahdvUZs+908xtsSRYti0fwFOh2diIiIiNKmTBdCKP27d+8eFsybp53OZOWjQN58WgdSp2YtDSZERERElLYxhFC6EhQYhGGDh2j4kO1XEkBkJaRrp87wOnvWPIuIiIiI0jKGEEo37O3s0bp5C/z2S07dfiW1H9IFa8If43H92nXzLCIiIiJK6xhCKM2TOp6NGzagUrkKT+o/cv2q7XjXrl6NyMhI80wiIiIiSg8YQihNCw8Px7QpU1DIxiZ2C5YEkaYNG+H0yVPmWURERESUnjCEUJp1ztcXPbv3iJ39Iduv5Ojftx8uXrxonkVERERE6Q1DCKVJMs2+Xq06uuohdR+y/ap44SKY9ddM3L1z1zyLiIiIiNIjhhBKU6S+Y/nSZShdvIQGDwkgUoguE+537dih80GIiIiIKH1jCKE04/Llyxg1YoS23bVuwZK37Vq1hoeHh3kWEREREaV3DCGUJri7uaNNy1axxefytlB+G4wcPgLXrl0zzyIiIiKijIAhhN6omJgY7Nq5E1UrVdZVDx0++EtOlC1VCsuXLEVUVJR5JhERERFlFAwh9MaEh9/CnFmzULRgodjtVxJA6tepi+PHjplnEREREVFGwxBCb0SAvz/69e5j2X6VO49uwZIg0rNrN5zzPWeeRUREREQZEUMIpbpTJ0+hcYOGuupR4Pe8GkQK2xTAX9OmIywszDyLiIiIiDIqhhBKNY8ePcLa1atRoUxZbbsrAURWPyqVK4+tW7aw/oOIiIgok2AIoVRx8+ZN/DF2rK54SPCwbr9q2aw5nBwdzbOIiIiIKDNgCKEU5+3lhS4dOurwQevsj/y5f8fwwUMQEhxinkVEREREmQVDCKWo/fv2o3aNmvgtR06dfi4BpESRoli8YCEePnhgnkVEREREmQlDCKWIB0bAWDBvHkoWLaYrIBJAcufMhTpGIDl44IB5FhERERFlRgwhlOxCQkIwdPBg5MuTB/ly59EtWBJEunbqDO+zXuZZRERERJRZMYRQsnKwt9di89w5c2rxubTflVWQSeMnIOzGDfMsIiIiIsrMGEIoWUh73c0bN6JS+fKxBejShrdC2bJYu2aNtuclIiIiIhIMIfTaboaFYfrUqdp+17r9SgJIs8ZNcPLECfMsIiIiIiILhhB6Lb4+Pujdoyfy5Myl4cM6/2Ng/wEI8A8wzyIiIiIieoIhhF7Z0cNHUL9OXcv087z5NHwUK1QYc2bNwu3bd8yziIiIiIiexhBCSRYZGYkVy5ajTImS2nZXVkDkbfXKVbBr507ExMSYZxIRERERPY8hhJLk6pWrGD1ipAYP6Xxl3X7Vvk1beLq7m2cRERERESWMIYQSzcMIGW1btdbwISFEwkeh/Pkxyggl165eM88iIiIiInoxhhB6qcePH2P3rl2oVqly7PRzqQMpV6o0li9bpu15iYiIiIgSiyGEXujOnTuYPWsWihYs9FQAkYL040ePmWcRERERESUeQwgl6KK/P/r36auzP6z1H/Lnnt26w9/PzzyLiIiIiChpGEIoXranbdGkQUNd/ZDwkffX33Q1ZPqUqbh9+7Z5FhERERFR0jGE0FMiIiKwbs1aVChTVgOItf1ulfIVsHXzFrbfJSIiIqLXxhBCsa5fv47x4/5AIZsCsduvJIC0atYCzo5O5llERERERK+HIYSUt7cXOnfsGLv6ISFE6j+GDxmK4OBg8ywiIiIiotfHEELYv28v6tSsiV9z/KLdrySAlChSFH8vWox79+6ZZxERERERJQ+GkExM6j/mz5uP0sVL6LarAnnz6QDC2jVq4tDBg+ZZRERERETJiyEkk7oUeglDBw82gseTrVcSQLp26gxvLy/zLCIiIiKi5McQkgk5OzqiZbPmuvoh9R8SPgrmt8GfEyciLCzMPIuIiIiIKGUwhGQi0l53y6ZNqFy+ghagy/YrCSLSjnfDunV4/PixeSYRERERUcphCMkkwsPDMWPaNBQ22+9KAfpvv+RE88ZNYHvqtHkWEREREVHKYwjJBM75nkOvHj1ip59bW/AO6j8AgRcvmmcREREREaUOhpAM7ujhw2hYt56uekgAkfqP4oULY87s2bh75655FhERERFR6mEIyaCk/e7yZctQpmRJDR6y+iFBpGa16ti5YzsePXpknpl5sOaFiIiIKG1gCMmArly5grGjRiO/ETxk9UOO3Ll+Rce27eHu5maelfncvHkTx44ezTQtiIMCA7ndjoiIiNIkhpAMRkJGh7ZtY4cPWovQxxih5OqVq+ZZmdOl0FBUqVRJV4XGjRkDRwcH856MQVZ6AvwDdNDkXzNmoGrFSqhcoSJ8fXzMM4iIiIjSBoaQDGT3zl2oVrmyEUByxrbfLVuyFFYsW47IiEjzrMzr2tWrqFe7Dt7513+1SP/A/v3mPelPVFSUrnKcOnkSa1avxoQ//kDnDh1QsVwFfPPFV/jvP/+F9956G2/969+oUbWahhMiIiKitIIhJAO4d+8e5s6ejaIFCyFPzl/1lX4JIA3q1MWJ48fNs+j69euoX6cOsmX5QNsVJ7cHDx6Yf0o6qdGROS5yREdH48HDh7h8+TK8zp7FcePfcOP6DZgzaxZGDBuGju3ao1G9+qhUvoKGzZ+++w4/fPsdCuTLj1rVqqNb5874Y9w4zJ45E/PnzsOMGTPg7u7OmhgiIiJKMxhC0rmLFy+if5++sW138+XOozUgvbr3gL+/v3kWCakJaVC3Hj764EOsWbXKvPUJCQDPXqjL3194mOedPHESzZo0xd49e5Nc9H/t2jUNC8OHDkM/49+yR9duGjQ6te+ALp06a6joaryVo1ePnqhQthz+87//MAJVXRw8cECDivxbX7p0CWE3bmgojYmJNh/dQoINERERUVrBEJKO2dvaonGDhrHdr2SLUfHCRTB96lTcvcv2u8+6desWGtVvoCFk+dKl5q1PXL16FSuXL9dVEllZ+nvxYixeuBCLXnDI/cuWLNFA8OG77+GXH37U25MSRKSTWVBQEEJDQjSQXDcOeXvDCBQSnG7fvq3/nrLSEhkZiRXLluk2q+FDh5qPQERERJS+ZMgQEn3nFh4EB+COjwduudrjxomDuLJ7Ey5tWYXQDUsQsu5v488rcXnnBtw4tg+3nG1xx8sNDy5eQFR4mPkoaZdctG5Ytw7lSpXWACJbcn7LkVMLkbdt2WKeRc+6e+cOmjRsmGAIked18qRJaFC3LmrXqInaNWti5LBhWsT+skNqbz7Jmg0/ffc9/pwwUcNCSlm7erWGkGFDhiAqKvEfx/a0LRYtWKhfJxEREdGblCFCSMz9e7jj6YprB7YjcNlsnPtjANx7NoNzi8qwr1UEtpV+h22VvMaRD7ZV5chv+bMcxn12NQrCqWkFuHVtBJ9RvRCwcCqu7NpkBBg7RN28YX6UtEFeIZ/wx3jteCXbr3QFJGcutGreAq4uLuZZFJ/79+6haePGyPb+B/GGECvZuuRgb4+pU6bg/v375q0Ji4yKQpuWrZDl7XfQu0dPPE7h0ovNGzfiP//4J0aNGGne8nJHjxzWmpHsRlCSr0sK24mIiIjelHQbQh5FR+kKRpAROmo8/a8AACx/SURBVLxH9YRr+9qwq1kIpyv8puHCrnoB2NcopCHEvnZRy9v4Dut9xvvK+0hAOV0xN+yq2cClVTV4DemMi/On4MbJQ4i+92a3OMl8iy4dO+nqh9R9WOs/RgwdhpDgYPMsSoiEi5bNmmsIWbVihXkrcCs8HKNHjcLO7dvNWwAPDw+MGD4c/n4vr6vxMv5dypYqjY8/zKqdqhIjMDAQI4eP0H/P7l27onuXrujWpctLD6kXkW5Xn370MUoVK6HvL7fFd64c+ridu2jHtPffeRcfGId8ntMmT8HDhw/Nz4aIiIgodaW7EBJx46puq5JwICHBrqqNZTXDGjqMMGFfs7CGC4e6xeFQrwQc65eEY4NScGpSDs7NK8K5WUU4Natg3FZa75Nz5FxLIDHeVx/DDCWV8+oh7+PZrw2CVszFg8DUL/iWdrJ1atbSqefWIvSSRYtp3cK9u/fMs0hqKKRQ++wzh7e3N9zc3FC/dh29CJfVJF9fX5w5cwa9evTAO//+L3LlyIHtRhCRAnUp8u7Tq3eiVpcOGv82P373HT7/JDucnZ3NW19M6jyk7qR9m3aYOH48liz+G2vXrMH6deteeEgb5j69eiHre1m0Hmj1qlXYtHFjvOduWLceG9av1z/v2rHT+H/ogBay79yxAydOnGAIISIiojcm3YSQB0EBGgDOdKyngcG2Sn4NCXZG8NAAYgQIp8bl4NKyCjx7t4Dfn4MRvGQarm5egvBDW3DH/iDuOR996rjjeAjhx3bg2tblCF3+FwKmD4fXgLZwbVMdzk3K68exfIyCxtuCupXLwfg4rq2rw3/2eNz19cTjFO46FBHxEAvnz0fpEiW07a4EEFkJkUBy+OAh7dBET1wMCECHtu1QsVw54yK9AZo2aowmDRuhWePGOiNEnsOvPvvceD5L6n1yIS/dpsqULIXiRYqgeZOmurIhheXSoUou2l9GitPf/e9b+v6hoaHmrYnzKrUjG41gIXNARg4fbt5CRERElL6k+RASce0yQjYsNYJBTcvqhBEIZLXCrpoRDoxgoCsUPZvCb8pgXNu2DPdcjiHivCsiz59BpJ8bogI8EHXRE9GBZ+M95D45J9LPHZEXzuj73vc4jbC963Fx1hic7dsSrq2q6uqKbVUbyyqLhBIj/DgZQSVg/mQtaE8JMidi2OAhGjxk65WsfkgAkVatsjWLnifhITgoGAFGGJGOUnGPE8eOo5CNDT77+BMNdtbbIx4+1BoJCQTSgcrazla2OS1bknDtiJD3Gdh/AN75z3+1la60x31VV65cwaXQS+bfEiYrHxJCRo0YYd4Sv/DwcGzfug1hN2+atxARERGlDWk2hDwyLgqvH9kNz94ttT7DusVKw4cRANw71zeCx1Bc37UaD70cLIEiwBIoovzd9ZAQoocRLl54WM8zgoi+rzyGPJbxmBJKwg5uwsXZY+HZpzns6xSzhBHdulXE+Hzyw7VdLYRuWp6snbWcnJy0fiHu6ocUo/85cRLCwtJ+B6+0aP3adbpl6uvPv9BWvC8jU8jHjh6NqBesdkngqVa5iq6ELFq4yLz11UixvLT6lQn3x44ejfc4fvwYRg0frvUdUgwvKzXxnXf0yBH9/OXrbdGsmRFavc2PQkRERPTmpckQ8iDQD34zxxkX/BI6bOBgXPhLCJGVD4+ezRC8eArunN6P6CBvRAd7Pwkc8QWM1zrcEGUEk+hAL8SE+uLemRO4tHoOvAd3sASiGgX1c9MtYVXzw2dkT9xyczS/ilcj26u2bNqs7Xal/kOCh8z/qFCmLDas36D1CpR0jx7F6LTx94yw8O2XX+msjZdZs3qVbsmSAYAJsbezwzdffKnHqVOnzFtfzdq1a/DV55/jq08/Q8/u3TGwf3/069v3qWP4sKG6FS971o9QplQprQ8Z8Mx5A/r109vLlCiJ7Nk+wi8//oT9+/abH4WIiIjozUtzISTs1CENGlIMrkXierFfCG6d6iFk+UzcdTqCmGAfDQbxB4eUO2TrloSRBx6ncWXDYnj2aQk7WaGpVURrReRzlmL5y9tWa/eupJJi5WlTpqBowUIaPKwBpFnjJrCztTXPolchW9tk/sdH73+gIWTp30vMexJma3saVSpWxIXz581bniaBcfECSz1IzWrVERISYt7zajZv3IQfvvlWV79ku518zlIgH/eQFs1S0P7uf97SgnqZmP/seZeNIzg4WIcZvv3vf2PcmLGcmE5ERERpSpoJIY8iIxG6fikcG5XVVQXrSoMUm/tPH447DgcRHeSlR8qseiT+iL54Vldg7rudRMiSqXBtXU2Dkn3tIpYieSOUSOF6VHjiZ4xcuHABvbr30G1X1ta7UgMyaMAAnaZNr0fmfvya4xd8kf1T3Y5VqlhxzJw+44WF5DduXNcQsjWBAZBST9KyeQvjQv8/GDV8RJKmpMdH6jd+/PY75DX+/WWmSULWr12rNSGysmNEIcuN8Zjy55/49//8Qye4ExEREaUlaSKERN++Bf+5k+Ag8zq08Ny4mDcu6j26N9aaD73wl5qPNxw+njqMz8Va2H7rxC54D+tsqRORlRHZOlatAHxG9cT9l7TzlVfTjx89hoZ16+kr4BI+ZPWjeOEimDd7TqKG5dGLyXP896JFyJrlfe2MJe10pbhftjPJatPsWbNw5fJl8+yntWreHH179zH/9jRp8Zvjx5/w5aefY9vWreatr27Xjh34+fsfNHxGvaBr1qYNGxJVmD5t6lT853//qSsnRERERGnJGw8hkTdv4NzEwbrqoUMDjfAhrXHP/9FXO13phb7UfMQXBNLAoTUjF8/ioY8TAudN0Mnrshoi27PkrRTW3/XxML/ap0knJpkPIXv3ZQVECtDl1fpa1Wpg186d5ln0umR2SJOGDbUrlqyCfP/1N1i3dq0W/8vWNynyrlapMo4ePmK+xxOTJkxE+dJlcOvWLfOWJxYtWIgP38ui9TvJsVq1b+9e5Po5B3L+9DN279qF48eOxXuMNsKHFqa3aoXDhw4+d/+J48e1ML17ly5461//xpxZDCFERESUtrzREBJx9TJ8x/W3bGHSi/aCcG5SDsGLJyPinIsGkPgu/NPiYW0FfHXLUpzpUDu2oF7eundrgjvezwcRaaHarnUbvegskDefFqJ36tABbmfczDMoOTg5Ouk2LAkTpYqX0D9bu2PJRXvuXLmQ5e13kN8IgadPn9bbrY4eOYqC+fNj7+7d5i0WMuivVvUaGgYs26Jen3S6klWw7776Gh3bt9fidJ2mHufo37cvalStqgXnsqVMVnSePU/+LtPSy5cpo/Uqs2fOMj8CERERUdrwxkJI5I2r8P1jgF6kWwJIAbi0rIwrm5foyoJc0Md3sZ+WD1mxiQnyRvjRbfDs2eTJ1yZBpGdz3LvgY371T0jgqFqpsl58jhszBlevXjHvoeQgdRqTJk7ERx98iMkTJ6FLx05anC7tcK3mzp6j27TkHBl0GNet27d1a1yn9h3MWyxktUEK3GXl4vChQ+atr0cmmsvjyba8AH9/Dak3w8KeOu7eu6czTmQuiWwTk21kz5138yauX7+u27X++89/YuaMv8yPQERERJQ2vJEQEn33Di7MGGtepEv9R0Et7r6xe412vUrL269eekitSJAP7tjtx9k+LcxVniI6bf3s4E54GBJoPgtPHNi3H6tWrNBX1yl5yQV6kQIFUbJYcXi4u6Nzh47IluX9p0KIFJg3ql9f2/fKdPVn9ezeQ2tHvM4+GRDZvUtXXQVp2qiRDjtMDvv27tN2urI1757xOSVk3Zo1us1Kul89fpxwMfzkSZPw33/8C9OnTjNvISIiIkobUj2ESJFw8JqFuvXKWoDu0qqqFqBbis/TcQCxHhpEvHDXCCKevZs/CSJV8uH8n0MRfef5+gJKGVL7IduvpLZD/t+TQnMJIcvihBAhHbBkFSK+C3bZJiWPMXK4pRDc1cVVi8e//PQzDQTJZc/uPcjxw0/62A8fPDBvfd6Gdeu0MH3k8OHmLfGbOnmynjflz8nmLURERERpQ6qHkOuHdsGxXklLBykjgEgh99VtyxAt26/S8wrIc4ele9atk7vh3rXBk9BVzQaBy2bj8Wu2c6WXk5WlqpUqoWTRYjpLw8ggOoVeQsjSJU/PCYmIiMD8efNwMSDAvOWJW+G3UMJ4jMIFCmoAGT50mK6CVK9SFXfv3DHPen27du4wQsiP2pzAwc5OZ4XEd0i4eO+tt7UexN3tTLzneHp66tDCt//1bw1gRERERGlJqoaQe36+cG1bI7YTlkO9EghdMUvrP9L1FqyEDrONb9j+DXBpWQV2NQsZX3dhONYvhRvHOcE6pW3csAE/ffc9lvz9t/49MjISLawhxLwtMWQFZc6sWdrit3LFSihsU0A7bclwweS0ZfNmDSFSn9K+bVv06NoV3Tp3furo27u3EX6q4NOPPtYtZp07dnzuPClO79KpE8qVLh07w4SIiIgoLUm1EBJ9/x58xva1rAhIsXaNwvCfNgyR5y2dpeK9iM8Ah2wvi7p4FpfWzDXCR0lL694aheDWpSEeBF80nx1KbtL+uEHdelrjYZ21IrUbLZo2M0LIB0kKIUKGSZYoUhSffJgVn2TNpisq9+8nvGXqVaxcsUIfW8KFu7s7/P399ePGPYKDgzBj2jStX5EWvN7eXs+d5+fnh3PnzmmXrA/ffU8L2YmIiIjSklQLIaFbVlrmgNQqDNuqNvAa2Bb3PU5rIXp8F+8Z6YgK8NRVEf+pQ7U+xKGOdAOzwYXpo7gtK4WsWb0apUuUhLvbk3bHsj2rRdOmGkL+XrTYvDVxrl65gppVq2kIka5Yp06eMu9JPtJxa96cOXB1cTFviV9iJ6Yf3L8fmzdtwp1k3DJGRERElBxSJYTcDzgHty4NYGeED9mK5dKyKsIObEJMiE+8F+0Z8YgO9Nbhi1KoblutgNbEODYui7BTh81niZKLv58falarhqV/P133IasjzZs0Qbb3kxZCoqOjMXbMGN0m9fkn2bUgfcTQYfp4b4I1hEh3rBeFEKstW7boKotsKyMiIiJKC1I8hMgr/RcXTIFdlXyWlZDaRRE4f4LWSsjqQHwX7Bn1kNB1bdtyODUup/Uh0i3r7JDO2rKYkoesdkwY94d2joqJiTFvtZBtWc0aW0LI4oWLzFtfbsWyZRo+pGtV/z59teWvDAuUIGLd6vWqpCD+6tWrCAsLQ9iNG7h+7ZrO/kjwuHJFV0tkTkifnr0QFBSY4HmyerN2zRr8+O13+vn/vXix1sUQERERvWkpHkJuuznCuXkl2NcoqLUQHj2b4oGHbbocRvi6R5QRuqL8PXF+4gB9LmQ1RELZ5R3rzWeLXpezkxP+GDtWB/Y96/69JyFk4YIF5q0vtnvXbr2Il/kdsrVJLF64UAvTP/3oI/Tt1Rs3rt/Q219FSHAwevfsqSs3bVq2QtfOlgnovXr0iPcYOKA/alavriFItpv16NYNfXr1eu48uU2mpleuUFGn8cs0eJmgfvLECfMjExEREb05KRpCHkVGwn/2eNhW/l0vth3ql8TVLUssqyDxXKRnhiP6ohdundwD1zbVdWuabeW8ODuwAyJvvvqFLD0hKwCBgc8PhBQyALBpo8YaQhbMm2femrDduy0BJNdPObBj23bzVsv2rGGDh+jjfPJhNi129/b2Nu9NOqkFkdWbDevW49DBgzh96hTs7OziPVxdXXRrWJa330G7Nm1w4sRxODg4xHuuHI7GfS7OznrY29vDy+vJwEUiIiKiNyVFQ8hdH0+dA6LbsGoWhtfAdojwcczQ3bBefrghyghh/jNGaDCzPDeFcG3fVvNZo5Ry5/ZtNG7QUMPD/LlzzVvjJ6Hju6++RvHCRXDk0PN1O7du3UK/3n20m1VW4/FKlyiB9evWIcYIKCnt6cJ0IiIiovQnxULIY+NiLHDpbK170FWQOsVwbfsKyzasZKoF0e1NiXisxJ6XWoeEsDt2B+DSqoqlW1jlvPAZ1QvRt57fQkTJR4JDo/oNNITI3I/4PHr0CIsXLcIP33yLhvXqwdfX17znebdv3Uafnj11a5TMEJGZJJ3ad0jxLU+rV67EW//6N4YOHozIyAjz1sSROpmdO3bA0dHRvIWIiIgo9aVYCIm4ehmu7WrpRbZsO/Ia0AYP3E/rKkB8F+aJPaL93YAgLyDEG48DPS1/DvZCTDzDDmF8LDlP3+p53ogJePNDEXUwoxGK/KYMia0Lsa9bHLdc7cxnj1JC+M2bRrCoryFk5oy/zFufuHH9uk4Zz/nTzxjYr7+Glpe5d+8exowapW175XE//jCrFrC3btECa1atxjnfc1osn5w2rFv3yishy5ct04BVq3oNXDh/wbyViIiIKHWlWAi5fni35eLaOGQ2xqXVcywB5DVWJCRMPL7oiYunD+LI+qVYO2sKdi6ZiwvH91jCiRFK5DxZ9ZDAccX5OE5tXoV1s6ca582Dz+Fdep88xrOPndqHDDC8eWizTk/X56hqfgQumYnHz3R0ouQjHahkgKGEhWlTppq3Wrg4u+hWrYrlymP7tm26IpJY1tWTfLnz4KMPLEFEPsZvOXOhRpWqsLd7Ei4ltMgqxLGjR/U4cvgwDh86hEMHE3fY29ljUP/++H//5//oqs7ePXtx9MjReM+1HvL4cs7kiZPwRfZP8d9//BP/MY7aNWrC18fH/MyIiIiIUk+KhBBpy+s7rr/lVf4ahXCmfS3cPmUEBSMYxHdB/tLjvKuGinAPO8wbPwr1q1RGrYrl0aJuLVQqWQLF8ufDrDHDcNPdFo/MVY/TW1ajQ5MGqF+1MlrWq41mdWqgdsUKmD5ysJ4XHc/KSWoesi3tgactvAe115oQea7cujZEVNh181mk5Hb9+nXUq10HWd/Lgonjx+ttsvohReqyMjB8yFBcvnRJb38VJ44dQ706dXR7VrlSpbV2Q1ruxp3PIUFooBEibPLmQ7XKlY3g00AL21s1b5Hoo3WLlmjTqpW+je/+hA6Z8i6HvK/8XULXxg0bkhS4iIiIiJJDioSQiKuX4NKmhtn9KR/8Jg00goSlFiK+C/KXHbLd6rLTcfRo1VzDx5qZkxHmdhq45ItLjkc1jHyc9SOM6NUVCPXBsQ3LUaV0KcwYMRg35Lzr/nDcsR6lChUyzvsYU4cP1BWRNxlEtE7FCCKhq2bqSpF9bcsMlVuu9uazSMlNOmdVqVgJ7/7nv5g+dSoc7O0xesRIDB00GCeOJ08dx7Wr1zBn1uynVj+eJe2Dz5w5g8uXLz83y+RN4BBDIiIiSm0pEkKuHd4Np4ZldCCfXa0iuLxmLh5dOhfvxfjLjkfGhfqtsw7obgQQWdEItD0IXL2Axxc9LNuuQn1xfONK3eee88cfMWfsMDSoWhnTRgwyQso545Pxg9+Jfaheriyyf/QxPvs4u/HnMrjn44RHb7hLV3SwD8KPbodz0/JaOyNH4NJZclVoPpOUnC5duoTRI0di9sxZ8Pf3x+lTp3Hk8BHzXiIiIiJKLSkSQmQ2iGwxsqteEGc61NYL7eigpG/FsoQMHyyaNAY1jBBx/tge4PI5vd16joSUEPsjsMmTG5998ik+z54dzWvXxFWXE0CIj66WbJg3He+9k8W47zN8YgSR9o0b4sE5l3iL2ZNy6GqKrGjE+XySckhdyH3XE7olS1dDjOfs7IB2Ol+Fkp9MC09MsTkRERERpazkDyGPH+vwPWnNa1s1P3yGdMRDmQ3in/RVB+ls5X14J6qWKY01s6boCsizF/xSZO5zZBfy//Yrsn/0ia52LJk8DrhinCuPYYSQo+uX47efc2gHI6kfOblppRFeZCXl6Y+XmEOCiwQjeVypU5GPL7e9ShCR94kK8MTF2WMsrYxrFIJLy6raWYyIiIiIKKNK9hDyMDQQbl0awa6ajYYQ/6nDEBPqG+9F+IsOubCPCfDAxEF9Ua9qZYSftdeWvM+eJ7ftXbEAuX76CR99mA0lCxWEy+6NGhTkflmpeHjOBSc3rjTCyR8aamQb1quEBunAJTUmTjvXG8FmGfatXIRVM/7E0XVLcd/H+ZVqTGIuncfl9QvM4vRCcGpSDuFOp81nk4iIiIgo40n2EHLT4ThcWlbREOJYrwRCl89ATEjSQ4isMFw/cxI92rTAggmjgCvnnztHgoS07Z0/fpTWhLz/Xha0qlcbt70cnqr3kPPk8eRc2b71KgFEDgk8Z/ZuQZNa1TX0fJb9U7z79rvo1rIp7ng56mPH934vOmJCvBF2YCNcWlXV7WsO8pxtWmE+m0REREREGU+yh5DLO9fr7AsJIS4tKuP6zlWIDvKK9wL8RYesYNwxwoTz7o247HhMV0WePUdDiHER369DW3z+yafI9mE2jOrTXbdiPXuu9fz4bk/sIe9/+6w9fI/txuYFf+H7r78xgs/7mD1muPGFn3+lx5fZKXfsD8KjZ1PYVrXR4nS/WX+YzyYRERERUcaT7CEkcNkcLbKWQ4rSb53Yra1o47sAf9mhISPYW+s3ZFbIs/fL9ifpclWrQnl8+P6H+OWHH7F+zjQjECR95SWxh3xMWZVx3bMZ33z+JXL88AP2rlgY70pNYg5pW/zAwxbegzvo9jUJb94jjCBFRERERJRBJXsIufDXWJyumFtDiHvXhrjvevyV54O87JChhE47N6BIvry6IiH1IJ4Htxu3n433/OQ4JITIMWfsCK1BqVKmNM4f3/PKHzNK6kjOn8G50T21OF0mp3v0bolHMdHmM0pERERElLEkewg5P2mIEULywLaaDTx7N0fEORfLhXY8F+Cve0i73iVTxuPHb7/Dh1k+1OnocvurFIgn9ogJcEfEeVe0aVgP773zHro0b6Ih63U+ptTM+P05CKcr5dUQ4t6zGaLv3TWfUSIiIiKijCVZQ8jjmBj4/tEftpV+161FXv3bIErqQV6zFiO+I+qCGx4bIWRAp7bI+v6H+PLTzzGsR2edDZJQbYYUq79uQJHHuOZ6AoXz5dWVkGnDB2nr4PjOTezx6PIF+E8fjtOV8+l2LPdujRFx45r5rBIRERERZSzJGkIePXwIn9G9NYRobcOQjpai9BQIIdKJ6prLCZ2OLluxZFr6hnkzdFtUfPM/JDzc9rTHXS/HRBWQaz2K8blLkbuEDD1CffW2I+uW4efvvsevP/2MfVIPYrYDftXj0aXzCPhrVGxNiFvnBnh4OcR8VomIiIiIMpZkDSEx9+7CZ0QP2FbOa1xMF3jtECJBQLY/xTfXQ4YFntq8CoXy5kXWD7LCJvdvWpuhRexxzpNDZo488HXBuH49cHD133hsfE4vCiLWdr5n9m7GjJGD0a9Dawzs3B47l87T22eOHqZDEcsWLaLT2l+lNW/cgyGEiIiIiDKT5F0JiXgInzF9nqyEDO7wyiFEQoJc3EtL3OtnTmkYiRsccM0PS6eMx2cfZ0f2jz9BzYrljKDhrOfFfRw999I52G1dg6L58xkhZLGuaDx7jhw6YT3YG1ecj2NEzy4oVagg+rRrhdUz/8TCiaPRvG4tI4AMRZOa1bQbV+sGdV8aaBJzPBdCujRkCCEiIiKiDCt5a0IePcK58QNia0LOSk1I4NkkhxC5qJe5IHuWL0DV0qW0+9W8P0bq5HNdGTHCyT0jcPRq0xIfZHkfX332Ofq0b63v92zNhzyOBIuRvbqhdf06uOlui8fyOcU5Rw7ZwiUzR84d3Y1GNarimy++xKzRw3DX21Hb70oR/Jm9W1G3SkVk/+gTfPvlV5gq9SDGY792CImtCZEVJKkJaYLIG9fNZ5WIiIiIKGNJ1hAinuqO1asZInydktwdS0KG/8n9KFGoILJ9mBVZ3n0fVcuU1tvkol8CgfPOjcj/22/4JNtHGhjGD+zzXAiRv0uAOLFxBSqVKonDa5fqqkjcj2U9ZBp6iMMRNK5ZDe9n+QBj+vZAtBF4EGwZtCjDE3HNH5OH9jc+5sc6MV1qQ2R71rOPldQjJtgHfpMGPt0d6/498xklIiIiIspYkj2E+M0cpyHEMiekAe65HE3SnBDZEiU1GQdWLsJP332Hzz7Jjvffy4KuLZogzMNOA4gEjb7tW6Ny6VIoW7SwTkrv17EtEOQZG0Ki/SWAXIDfyX2oV6UyxvbriUdG0IivO5bUjMjto3p3w3vvZkHFksXhd3zvcwXnuOqnNSISfIrmz49rLifjrUFJyqEB7Zwrzo3q8WROSJ9WePwoxnxGiYiIiIgylmQPIUEr5sGuRkEjhNjgTPtaCD++K8kT0yWEeB3agVw//oQvPv0M7RrVh98JIxTcCtZAM2lIP5QuUghnjXM2L/gLX2T/FAXy5MG5Y7uBG/6W7VPBXji6fhkaVa+K3u1a4aaHbYIF5PLxnHdvRO5fftFVl2HdO+OxEUDibrOSUCNfR6dmjXU+SJsG9fT2+GpQknLoxHT30/Ae1N6sCSkAn1G9zGeTiIiIiCjjSfYQcmX3Jjg2KK0X087NKuLa9hWW4vR4LsATOmRVItrPHXPHjUBOI4g0r1MLK2dMwuyxw7Suo3al8jixcaUWmEdccMW88SPx2885dAXjr9FDMX/8KHRv1RyVS5XA+AG9EWZc5Etr3fg+lm7ZCjyLET27aq3Hbz//jF3SBevy09u25P0lCFUpXRIfZf0Ic8YO18/zdetBoo2Pfcd2Pzy6N9bnzL5WEfjPnmA+m0REREREGU+yh5Bw59NwaVVNC6wd6pZA6NLpOhE8vgvwFx3WLVKnt6zG5MH9tUtVzzbNMW34QFw4vscylNA4z9q+13HnevxpnCerHrI1a8rQAbDduiY2ZMT3MeSwtO91RvVyZfDu2+8ZIaMUgu0PP7dqgsvnsXflQuT68Ud8/fkXxue1Rh9XPkd5jLjnJuWIMb6OsH3r4dK8EuyqF4RD/ZK4ZHzeREREREQZVbKHkIgroXDvKq/q59ftRX6ThyAmgZa4Lzu0s5VxkR5x3hU3zpxCmNtpveiXrVZxBxJazvPWUCLdr8KMQ8OHcZvcF/cxnz0kbFw8fVDb8b791jtoUqs6YozbpBA97nlSDzJn3Ah8kOUDFMmXD6GOR/XzkI5d0kFLPse45yf2iLl0HpfWzNUAYl+zEJyalMOtMw7ms0lERERElPEkewh5/BjwGtJJi6wlhEitwwMvO0T5v3oBt6w0SFiQQ0JIfOfIIfdJobgcLzov7iH1IAGnDqBEwQIaMPp3bKPbvOJus5KPK8MOe7dtpfUgXZo30fklMkV936pFWDLlDw1Aif2Y1iPK3/gYfu4I+GukPl/2NQrpKlJk2DXz2SQiIiIiyniSPYSIgPmTYV+rsL6679quBm4e3oLoYO94L8Tf9CEBR1YxKpUsgY+zfoRJg/vGbvWyniNdttz2bUHhvL/jow+zac1JjHTFCnA3QktbjOrd/bngkphDZqjccz0Gr/5tYldCzg7uhMdRUeYzSURERESU8aRICLlx4iCcGpfVi2q7GoUQunImHiUwn+NNH9aakbH9emjA6NuhtXbXku1Y2uY31AfX3E6hVYO6ulIiLYP3rlgIhF2E75FdaFqzumVeyCt8fdHBPhrQnBqV0dAmR/Bq47FlOYmIiIiIKINKkRASGXYdru1qa6te2WZ0flwfRPg6J2leSGoeUtweZHcIZYoURqHff4fL7o1mPYm7FrfLjJIRPbugaa0aeOetd7Bp3gwjQHhh9phh6NG6BR4aj5HU4nQJP7JFLWTpVMhMFfvaReBQtzhue7iYzyIRERERUcaUIiHk8ePHOD95GOxrFtbDtXV13Dq+K81uydLVkCAveBzYhrYN62kb3qHdO6N7q2b69/WzpyLCCBmuezbrfTJ9vUuzxujQuCF8juxKsP3viw6ZOSLzQc72a20+T4Xg0as5osLDzGeRiIiIiChjSpEQIsJOHYJD7aKwNw7bajYIXTYDUQGeiExi3URqHZYgcha3zzrAbd9W7Px7Lg6vW4IQ+8PaYUumrcvb62dO4sCqxdjx9xwE2x3GY+P2+B7vZUfUxbO4sW+DtjHW56hKPgSvXoDHjx6ZzyARERERUcaUYiFEOjy5dW5gKVCvWQievZrhvnEBL8P54rsoTyuHdNaSYCFbsWSblnTPshacy1v5u3bqkmAixenPvH9ijihz69aFP/paVkFqFYFDw9LcikVEREREmUKKhZDHMTEIWfe3vsLvULuYcaFdFFc2LrbUhaTR1ZC4h9ZsxHN77H2v8TXIVqzbJ/fAuXlFDWmnK/2OcxMGIebeXfPZIyIiIiLKuFIshIh7/r4698JaG+LZuwUenrVLswXqqXFEXTACTIAnLkwaqCsg2hWrdlFcP7zHfNaIiIiIiDK2FA0hj2OicXHRNNhW/l0vtB3qlcDltfMsW7LSwWpIShzRgV64eWQbXFpW1uGEtpXzwmtYN0TduWU+a0REREREGVuKhhBxx9sNLq2raxtaqQ1x79oA912PI/pi2q4NSYnDWgtybnTP2OGEDvVK4tqBHeazRURERESU8aV4CBGBy2bBrqpN7PYj/xkj0k1tSPIdbogJ8cHl9QvgWL+Ubk+zrZof3qN6IubhA/OZIiIiIiLK+FIlhDwIDYR7z2Z60S1bkJybVsD1nav0ojz+C/aMd0QHeeOO/QG4d2sIu2qWVSGnZhVxy8XOfJaIiIiIiDKHVAkh4sr+rXCoV9yyAlDNBp69m+GeyzHj4jzpg/7S2yEzQWRivEyOlwDiUKeoTpO/uHCq+ewQEREREWUeqRZCHkVF4vzUEXrxLUXqdjUK4fz4vnjo44joi6828C89HFH+Hrr1LPjvKUb4KKYDHOU58OzTCpHXr5jPDhERERFR5pFqIUQ8CA6AW+eGWqSu9SHGBXnQgklaG5Ih2/YaX5cU4F/bthxOTcpbWhUb4Uv+HO502nxWiIiIiIgyl1QNIeKm/XE4NiprXIwXhJ1xUe7YoDQurZmnIcTaPSpDHBJAAr0QdmATzrStYVkBMoKXdMUK3bjcfDaIiIiIiDKfVA8h4tLW1boKooP6jCAiKwNXNi7SVYMMEUQkgAR749bR7XDrVM/SjtcIIFIL4zdzHCejExEREVGm9kZCyKOIh7i4aHrstiypD3FqagSRDRJEPNP11qwoCSBB3gg/shVunSWAGF9jbSOAVM0Pn3H9EHnjmvksEBERERFlTm8khIioW+G4MH20bsuyBJGCcGpUFqErZhoX8u7aUSq+i/y0fMgqjkyDv7F7Ddw61IZdNRtLEb7x9uygTnh4Kdj86omIiIiIMq83FkJE9G0jiMwYo5PDZWuWrIg41i+JgBkj8OCsnaV9r186GGioBeieiLrghksrZ8GlZWVLK14JINUL4OzADngQFGB+1UREREREmdsbDSEi+t5d+M8eb6kRkTAiHaRqFYH30I64fXofonR7Vtpt4Stbx2T1477bKfhPHQbHBqVii9DtjQDiNaybEUD8za+WiIiIiIjeeAgRUiMStGo+HOuVhF1VcwtTjUI406E2Lq9foIP+pM4iTRWtm7UfkcbnFLZvPTz7tIgNUBJC5Dg/eTgirl02v0oiIiIiIhJpIoSIx48f4+reLXBpVdUIIvksQaRmITjUK4HzY3sj/Mg2rRORrlNveouWrHzI53HHbj8C/hql3b0kdOj2q2o2uhoStGw2u2AREREREcUjzYQQq9sezvAa3BG2EkQkhNQppvUVrq2q4eKccbh9ao+uQMgMjtQNI266NSwmxBf3nI8iZMk0uHWuD1vjc5PVDwkgtlXy4kzHerh+eLf51RARERER0bPSXAgREVcv6UqCDDW0q25jBBGpFymsYcStY10ETB+B8KPbzXoML0T5exiBxD15Q4k8lnHIFjBdgQnywh2HgwhaMBEePZvpdjFd/ZCQZPxZCusvTB2Be+e9za+CiIiIiIjikyZDiHj86BFuudrDZ2QPS5G3Wewt3abk4t+1dTX4juqOK+sX4v6ZEzqfwxIYPM1idnMCuxkm4g0acsQNG/I+cd5fbn9w1h7Xtq/AhQn9jQBUxzLzQ1rv6qBFI3wYAcTdCCXXDu9CzIP75mdPREREREQJSbMhxCr63h1c2bsF7j2amluzbCyrENWl+LsQnBqVwZl2NXFuTE9cWjMXt07uwX3303jo7YCI8y4aLqw1HDEhPsZbyxGjb2Vblzml/byr8T6OeOBpi7v2B3F18xL4TRoIt0514dSknGUlRgYPGsFD538Ygci1XS0Er12EyOtXzM+WiIiIiIheJs2HEKuo8DBc3r4GngPawdEIHraVf7eEAelIJSsSUpdRrwQcG5bGmY514TuyOwJmjUbo8r9wdesyhO3bgPDDW3Ublx7Gn8MObNJVjkurZmu9yflxveHRrRGcGpeDo/FY2jZYtlqZAcS20u9wqFsCbj2aIWjFXDy8FGR+dkRERERElFjpJoRYRd+/j2uHduL85GFw69xA60ROV8yjb3WLVO0iGkgs4cR6SP2G5XCoW1zDip0EC7lNAkzcc+V9zUNWWyTs2FbOC9e2NeE7rh8ubVuDyBvXzM+GiIiIiIiSKt2FkLjunjuroUAKwmW7lqxcnK70O+yq5tcAYV0h0RWN2MMMGXFvk79rKCmoqyv6GMafpdPVuQmDELp+CW67O+FxdLT5kYmIiIiI6FWl6xBi9SgyEvcD/XDT4QQubVkF/zkT4DWkM850qqdbt3RLVYJHQTjWLwnX9rVxdkB7+E0fbYSOpQg7eQj3Lvgg5v4986MQEREREVFyyBAh5FkygT0y7LrWbNwPOI87Z8/gpv1x3DhxADeO7bMcx/cjzPaoziW5738OD0MDEXnjKjtcERERERGlsAwZQoiIiIiIKO1iCCEiIiIiolTFEEJERERERKmKIYSIiIiIiFIVQwgREREREaUqhhAiIiIiIkpVDCFERERERJSqGEKIiIiIiChVMYQQEREREVGqYgghIiIiIqJUxRBCRERERESpiiGEiIiIiIhSFUMIERERERGlKoYQIiIiIiJKVQwhRERERESUqhhCiIiIiIgoVTGEEBERERFRqmIIISIiIiKiVMUQQkREREREqYohhIiIiIiIUhVDCBERERERpSqGECIiIiIiSlUMIURERERElKoYQoiIiIiIKFUxhBARERERUapiCCEiIiIiolTFEEJERERERKmKIYSIiIiIiFIVQwgREREREaUqhhAiIiIiIkpVDCFERERERJSqGEKIiIiIiChVMYQQEREREVGqYgghIiIiIqJUBPz/YeuynvGNPM0AAAAASUVORK5CYII=;" vertex="1" parent="1">
          <mxGeometry x="130" y="130" width="256.73" height="200" as="geometry" />
        </mxCell>
        <mxCell id="lTiDjZVNJuKrlllw1HD_-8" value="" style="shape=image;verticalLabelPosition=bottom;labelBackgroundColor=default;verticalAlign=top;aspect=fixed;imageAspect=0;image=data:image/png,iVBORw0KGgoAAAANSUhEUgAAASEAAADOCAYAAABxeLT4AAAAAXNSR0IArs4c6QAAAARnQU1BAACxjwv8YQUAAAAJcEhZcwAAFxEAABcRAcom8z8AACfsSURBVHhe7Z0FeBXX9vbv993eFofiWtzdLbhDcJdAkELRBJdCcXcLFgpBggW34F6kxd0hheDuuv77XZlD7Bwa0jMzJ8n6Pc88cPZMjs5+97K9939IEATBRESEBEEwFREhQRBMRURIEARTERESBMFURIQEQTAVESFBEExFREgQBFMRERIEwVREhARBMBURIUEQTEVESBAEUxEREgTBVESEBEEwFREhQRBMRURIEARTERESBMFURIQEQTAVESFBEExFREgQBFMREYrgfPjwgbZt3UaTJ06kUSNG0phRo+n6tWvaWUFwfESEIjjv37+nVT4rqXmTphQ/dhzKnT0HXTh/XjsrCI6PiFAkYe/uPZTup9TUtFFjto4EIaIgIhRJmOnhQUkSJKSRw4ZrLYIQMRARiiS0b9eOUiZNRlu3bNFaBCFiICIUCfD396fyZcpSnhw56f79+1qrIEQMRIQiGB8/fqR9e/fRvLlzafmyZfTq5Ss6fOgQx4OaNGioXSUIEQcRoQjE0b/+IlcXF3Lv0oV8lq+gmR4zaPiQoTRk0GBKGDceTZk0SbtSECIOIkIRhO1btyl3Kxd16tCBHj58qLUSW0MZ0qSjVEmT0f79+7VWQYg4iAhFAM6dO8fxHsR9ggoQQDwoe5asVChffrp9+7bWKggRBxEhB+fz58/0S9u2FDt6DJo1c6bWGsiJY8coZZKk1LbNz/T69WutVRAiDiJCDs5ff/5J2TJnoXy5c9OZM2e01kDmzvGkODFikse06VqLIEQsRIQcnDmzZ1NcJTJ1a9XmzFhI2rRqxfGgndt3aC2CELEQEXJwxo4eTdH++x116dRZawnk+fPnHAsqWbw4+d28yW0XLlyQWiEhQiEi5ODMmjGTEsdPQKNHjtJaAtnq60vJEyeh1q4tOXYE8enVo6fMohciFCJCDs6JEycoe5YsXBsUlCuXL1Mt5+oU438/0MD+A7htx/bt1KNbd/6/IEQURIQiAFMmTyanIkXJd/NmuuPvT8uXLad+ffrQksXeVLRQYXJt3pxOnTpFfXr2piOHj2h/JQgRAxGhCMCnT59ox7ZtNGTQIBo6aDD97ulJN65f53Nnz56lEUOH0W/KGoIlJAgRDRGhCATE6N27d9qj4MgaQkJERURIEARTERESBMFURIQEQTAVESFBEExFREgQBFMRERIEwVREhARBMBURIUEQTEVESCdQPHj/3j26c+cO3Q1xoM3eR8jXCOuBlRlfvnypvWtBMB4RIZ3Ajqi1qtegGtWc1b/VtaMG/1utchWqUrGSXY+qOCpZjsrqNSqTc5UqVL1q1SDvIeD1gx4Vy5WjkSNGWl2rSBCMQERIJ7Zt2UrJEiWmxD/G5+U2kidKQskSJqLUyVNQTWdnXqSsdo2a//qAkFQuX4FKFXeiQvkLUK5s2SlrxkyUKV163gYIGyImjPcjLw8bL2YsSqTeD96X5T0liBuPcmXPQSeOH9feuSAYi4iQTrx584b69OpFSVWHT5c6DaVXR9pUP7EwYI0gyzywt2/f/usDr/Xq1St2q7DQ2ePHj+n69et06OBBWunjQyOGDaMWzVyU1VOesmfOwqKUIklSfk848HjMqFG8JpEgGI2IkI4gJlTLuQYliZ/gS4dPlTQ55c+dh44ePapdZRz37t6lbVu30vChQ6lMyVIskD8pywzWUolixWS3DsEURIR05vChw5Q3Z65glkfSBAl5QTIEhc0CltLkiZPYhUuq3ES4aAvme2lnBcE4RIQMYK6nJ1scaVKmYhGCS5ZECVG/3n3os3LLzOTM6dPUrHETjg0hYA73ThCMRETIAN6/f09unTuz8FisodQpUrIoLVm0WLvKPBBD6tmtO8es1q1Zo7UKgjGICBnELT8/qlyhIrs+FiFCLAa7ZRx3gMzU2zdv6OfWral506b06aO51pkQtRARMpBdO3dStkyZWXwsQoSdNBrWq0/Pnj7VrjKPv//+m9P+skxs1APWOjKrDx88oL/9/uadW4zKlooIGczUyVM4SG2JD8EFgnU0dPBgTtubjfdib/KYPl2KF6MQG9at5xKOxg0acv1aiaLFOINq1D0gImQwCPy2bd2GCxct1hDiQxnTpqM1DhCPwYh49+5dhxBEwRj+OHCARo8cSe3btuV7EYWtUyZOEksoMnPl8hWucEZaPEOatCxEqGAuVrgwXbxwQbtKEIzl+LFjlCNLVr4X9+zerbXqj4iQSWzauJGnVqRKlpxFyJK2h1nsCPEhwXwwCdr/9m2uhjcC70WL+H4s5eRE165d1Vr1R0TIJGDqjhoxkuNDiAtZ4kMYhcaPHatdJURlkCioU6Mm7d61S2vRl+5du1LMH6JR2zZt2C03ChEhE3nx4gU1bdQ4WP0Qihozp89A27Zs0a4SoioXL17kQcln+QqtRT9wL9as5kwxvv9BDYLjtFZjEBEyGeygWqRgwWDTOnDjlS1Ziq5fu6ZdJURFLl26xG766pWrtBb9+OvPP3l6Ee4/hAqMRETIAVi5wodn2sMKwk2AGw9pe2TRjIoHCI6HkSLkNX8+xY8TlxMmfn5+WqsxGCZCqDnwu3mTJ06+e2d9fhJWCIyK9SlIh2MveQiPJT6EOqLkyjqaPm2adpVjc/PGDc6u4Df8R2ykfvE93FT3yLNnz7QW+3D1yhUe6ZF5/BAi1oHlVM6fO0dH//qLYzCOhFEihPhk3969Kdp/vyOXJk257dXLl3Tm9JmA70VnUTJEhO7fv0d9e/XmtWzSqy+1m5s7PXr0SDsbwN49e8i9c2deGycqgu8DhWJI21vcMmQq8J3t3m1MYDI8IIPjNd+L3Dt1pl9+bkvVq1ajVT4rbQ4mF86fp949etL6teu0lgDQESC4qJdq7drSLkKEQW/k8OHk1rkLde3ixpXpXbt0oWtXA9xcy/le3Xvwgfc/Z+Ysh1nu1igRQnU0FsdDbHLyxIm8DtWvffpSN/eu1PGX9lS9WjWuIwrZZ+2F7iJ07+49atqoEcWNGYtjHclVJ4sfOw61auH6ZdREAK5e7Tq0ZfNmfhxVOXb0GK81FHRaB76vSuUrcKrWEZkzaxZ1bN+ebigLF/ZN4wYN+H2fPnUq4IIQdHN3p//85z/URYlWUBAYdSpSjOLFik0p1Oc/fPCQdiZ8XLp4idq0ak3TpkzhdZQArLXihYtQPSX2Z86coU7tO9Bs9f7fK2sIVhBWEcA0mlU+Pny92RglQpi7iGQIatZaNm/OwrPV15c+agWra9es4QHRXQm5HkaCriKE0fC3X/tToXwFaNaMGVyZiUW1Bv32Gwde27X5mYYPHUZlS5WmGdOna3/1bWAERQpz4IABNGTgIBoyyE6Heq7f+venzZs2GVo9vNBrAceGULmKzoybECMUZuE7mqt6+vRpatq48Rc3BpNgsSxInOgxaOkSb24LygM14mISL2IPM6Z7aK0BwKKaMmkyf24Iwc4d4Z+/ho4Cgfl97lytJZBf+/bjwbBYocI8ulvopayz6P/7nuLGiMnC6ggYJULLlizlewzfC36/W7duaWcCadKwIYcLNm/cpLXYD11F6Mrly2o0aqX8ytCrCL55/Zr27d1L1SpVpv7qxsBNGB4gELNnzqQKZcuSsxrJnKtUtc+hnqtC2XI0bsxYQ9fYef/+A/Xo2o0XPrPEh9AxIUxYl8iRwAATdPBAQBOWHNbV3rRhg9YayP59+yhLhozsYu7bu09rDQTi0aZlK+4QiOGEF8/Zc6i7+g6t3VP9+/3KIlkgb146r1xDC+PGjqW0KVPx/KnL6r51BIwQIQxsvXv25LXHy5UuwxatNTDIY41yd+Xa2ruGSFcRevTose00s7JgJo2fwBM3/20GCEIEfxUj7YMHD+xzqOd69PChKdbHHX9/Fueg8SG4aLlz5qQjhw9rV5kLBKeJ6rBnz5zVWpQVt2Ahj6ZFCxaia1Z+97lzPCl29OhUpkRJevrUeswHHS5n1mx0+ZJ1IYBQzVRW9Txl5SCoHJKH6jdr3rSZ1ZUA8FsiDPD9//v/XJAX9Ld9+vQpHfzjIM+b+xoYkGApec6Zo/vgdEO5jxAhTDDVi+fKDS5fpgwlUNYpJi7bYsCvv7JQIXaE/mFPDAlMhwQ3z+iRo6hfn770Un0JQmgO7N9POVRntMSH4K/DHK5RrZpDrAWNERP1JEE7YvNmzSjWD9E58BxSvDF6dnVzV1ZITHbDbbHVdws1qFNXicITrSU4mNOEVSBLFivG+6aFBN8NOq21gQ0xSMR9EJOcMH681vptHFDWHNzFYoUKhet3gHWG9wGR/tpx+/Yt2rVrF5duQPT8b/tbvS7oAbcYHsa3cOrUKbZOEXvcv2+/1hqan1u15s9dslhxXurDnhguQljFD7EWZCWkBubrzFJuZiolQkGndUCIJk6YoF3hOCDNXTBvPnalVq4IXeGLwDpif7CUvhZzmekxg3r16KE9Cg0ssEG/DeRgqbVY3dfmfSMmifWc0OnCu2YS4iWDBw6kVStXhitWiHR35QoV+LfMnCGDzQPbNmVOn55/d8wxzJpJPbZyneXIkCYN5cud+5snns6fN48LZbHRAYTMGm+V0VCpfHkW/8oVKylLPQxlGN+AoSKEG8itU2eaqNwwI+emRFQg0h3a/fLFLYNVlC93Hi5ncDSQeMBNil08kIUKyZFDh75M1j1+9JjWGhxYCUgNL1qwQGuxL+hwWKbCSY3mcNvM4LWyVLAn3RJvb1q+dKntY9kymjp5MrtjKG9ZoR5bvU47li5ZwsKMdPu30NXNjeLEiMnuqa3M19kzZ3iAgQWJjOOrV/YtYTBMhC5euEg/t25Ds2fO4oyWvYH5j5vYnocZ8aCQwIKAz469wVBDgxHY0cDNi9qeGP/7nty7dNFagwPrBzEFxINs1ZugAyE9HDTOZC8w6PXo1o07HNLQEQF/5bZBhHw3+2ot9gVhkZrO1emH/35HY0eP1lpDA/HG+0D5xLSpU7VW+2GICJ06eZKzHj5WzHQLqBMJT6eHoK30WUmuzVz4NaDUdjnUc7m6uNACLy8WJLNADVXRQoW5A89Qroojgork0k4l2FLDiBwS/EYQJ1hKiAvZsoK3b91G7ZXl9/lzaDcHbjziZJcvXdJavg3UCpUvU5bd2WlTrHckdEpbIYInT57w619Sv4dR6J0dQ2wKgwK+E2ySaQ30SVjjiOXlyZlLWbH23y9PdxHCJn+uauRBfZAtTp44QePHjWMh+lbgly9T5igyIq1btgwQIjsceK4W6jl/9/S0moUxglu3b3EgFSPQ4IGDHMIys8YfB/7guAVS738eOaK1BoJiwLq1avHnwO6ztsAWSKiTCgmmW6B2a/iwYdSgXj3Osn0rx9R9mCZFKp4Oc0i5htZA1m2nlVgRhA9ZXOxki6prxOr0sOZDorcIYd87LOWaLVMWrpK2Bj67k7oGFmSPbt3DFQf7J3QVoXPnzvHuDSj4swU6OCZqDh085F99QFgreK737+1z4Lk+vDfPAsLI6+rSnGMYHZSL4shB/C2+vpT4xwRUIG8+um2l0A3fJSZGohBwzepVWmtwMKcQC7qFrAxHR0HcYueOHVzW0aBuPQ4u28pMIbiKpSjWr1sf7H6a4eHB2Z3CBQrS3Tuh0/D4Oyzyj3s2KEjZo8qbl1ZRr49iPrjFN2/c1K7QD71FCH0GtXA5smSj48es7/iC2jTMdihepAi/Hz3QTYTw4zlXrUo1qjnTpAkTadGChWzKoqoWYCTBD49K4NLKJLQVmY+KoNP26dlTddpYVKdmLVN3ag0LB//4gwPOWArC2mRH3OAZVMeFJYQVA6wxctjwUFXz2Bhy7JgxX9a3QX1K+dJl+HVQSxUSCDfm38F1zZE165eaH8SsqlQMqNSuVb0GPX0SeuXKYUOG0oQQ6+jgHkUm0lJZDZcQFd9YAlXvSZ3AiGJFuFr47XbvDD0/EX0SW1Ihk7d+3Vqt1f7oIkJYnvSXtu3IRVlBiNh7L17M/jjM9faqHaYtKloRcUd6cO3q1dpfCgCijeIxmMF6jT725Knq/E0aNqKEceOFigmhCBATlhvVb8AigImiIVm3di116dgpVGYHNS9Tp0zhXWIBJsaiBADBa2vAmkKn/TF2HGrUoAG902JPnrNns5VVrlRpypcrNz24F/x1Fi9cSKjsvx+iHTVQ06dO5XAB2LBuHWcqkWAxAiNE6LByTVGRPyHEap74LeB6psYGnd6hp+DYE7uLEOIW49TohZgK9jGygMXdUQUc7bv/cTQ+drToXAuBdW2FQBDfwo2OqmFbfrojcvLkSR5onIoU5XQyLIXDhw/zrHVMIn308BHP58qcLj0vX4uAO2qLYP3AGrYmtriX4IbCInn39h11VKM2gts7d+zUrgjOa3Vti2bNKH+evLRxwwYuqMRrd1Sve+/ePdqlXLo8OXIqK7MXx5kgLrCAIGoIrock2Osr6xRTFpCm3uJrzKqXRogQQOFw4fz51b23jJdSwaCACeVlSpYIcIN1xu4ihPoLLAdgrVYENwVGwvp16vC8I2TNhECwOSI6aZqUKWnD+tBzrxydJ4+f0DzPuZwBg8XbuUNH7kCW7CKyYsiQwur5uWUrPo+SjbDU7ECwULyHFQVgXdkCLtuc2bOou3tX3sIGtTaYgmMBwoNapPbt2vE1CITDjfsnIAgoGIQ7qNeSFiExSoTAhvXr+XfBciaYu+g1bz67n0aga2BaCDsQ5EJqNEoSPwF3TCE42AcLQXqPaQFxI1g9WCZGj2yNNTCvCq8/edIkfgxXUe/92RBDxcRlR1laRC9EhBwAWIgIeFpS8VJNHhy49aVLlGBXCmtyg3Vr1vButkakyuGSwdVEQNpivW9Ulipid3qK0LWrVzmGBdcyMiMiZDJwBVq1aEGxokVnFwZl/UJwsKwH5pzh+wHv373nYLdRC7LDhYNFgqpw8OnjR3ZZEDvREwTGjx07ZtoUE6MQETKRgFR8L4r1QzQOBCJ4ajawLFA0apSbExYQREYGB4FhxCkQ58E6T0ZVsiNojVUMIIKP1aDhMW0ajRk5SixWOyEiZCITxo3jQjDUSV29Gjo7Ywa+mzdzxsqRRAjCuGzJEvq5dWsa8Gt/nixr9DrQCKhjOQu8Pr6foJlf4d8hImQSqE1BKj53jhxc7OcIoGOhngZ1XY4IslzIuhoRB7IGMm94fUcS6MiAiJAJYB5dlvQZKF2q1LRujb5xhW9h9KhRXFn80KAUtCAAESGDQZCzcP4ClCR+QodZUB0s9PLi4OuwIUO0FkEwBhEhA0E1KortUC0+fOhQ09yKoKDAEHOzfkqWnLJlzsIb3gmCkYgIGQQmTbo0acILf3Xu0OGb1wK2N8jMrV+3jmo5V+f5e5iT1cIlYiz2JUQuRIQMAPUe3d3cuRgRS0F8bdqB3iDdDDfQ1aUFpUudmpIlSsRr7GBBMkdctVGI/IgI6QxcrjGjRvNeXFjoHXOgAGpM7HW8UyKHIkekrV88f8EFkKg5+vvWLTpx/Dj5LF9Bw4cMJRclgEULFeKaGyx3AfFJnzotr/1comhxh18yRIiciAjpDAK+ARZHYqpepSrvAIpFsux5dO7YkRcqd23uQk0bNuJ1g7EMCJZOQZEdJkEi6IyqY7heAeITsJ8ZjkTx4vN0EUeIUQlRDxEhHdm8aTMvV4I1fLEwFFwerO5n7wPxHBx4HRwQPIgNXg9WDgQoNQ5lAUGAgh64BisFYga/IJiBiJBOYFIqrJFkiZJwJ4dF4ogHRKtpo8b0/JlUAAvmICKkE9gddMF8L/KaP58WeC1w2MNzjicdPuQYW0sLURMRIUEQTEVESBAEUxEREgTBVESEBEEwFREhQRBMRURIEARTERESBMFURIQEQTAVESETwOTSE8dP0OvXr7QW4zl16lSYNv0TBL0RETIYLOvRsF493rd97+49Wqv+YEvjhw8e0N49e6hf7z6UOX0G2rZ1m3ZWEMxDRMhgIELNGjWmOjVr0Q0rW2XrwcEDB6iVqyu5urhQj27dqGC+fDxnbMd2ESHBfESETODlixe8q6dR3Lt7l47+dZSuXbvG+3a5Nm+uidB27QpBMA8RoShIy+YtRIQEh0FEyEDevHlj2K6htvj08ZNyy8QSEhwHESGD2Ll9Bw0eNIi6urnRhvXrOVBsBiJCgqMhImQAEJ1e3XvQhfPnaejgwZQ9SxbOUgUFAeuVK3xopocHzZk1O1zHTI8Z5L1o8Vf3tBcREhwNESGdwQqLbVq2oqtXr/LjUSNGUjIlAPPm/s6PLbx6/Zq6u7vzDqg1nZ3DdVSpWInatm5DV68EvJY1RIQER0NESGewuuLkiZP4/8iKOVeuQtkyZaaTx09wW1Devn1DL9Q14T+e05vXb766YL2IkOBoiAjpzKWLl+j+vfv8f99Nm3jh+eZNm/FjMxAREhwNESGDQFasZ7dulCBuPFq1cpXWajwiQoKjISJkEJcuXaK8OXNR8cJFuGAQQJg+ffrE/8e/d+/e5f3q/fz8wnXgb/1v+/MWz7YQERIcDREhg5jrOZdiRYtO48eM5cfYLXX+3Hl0/36Aq/ZKPUZQuUjBglTKySlcB3ZXbVS/AQueLUSEBEdDRMgAUKTYoG493ucL2zKDdWvWUq8ePb9M30Dd0JHDR2irry9t37YtXMfWLVvowIEDHKT+Gq1auLIIhSwTEAQzEBEyAFg5ZUqUYmvl8aNHdPv2bXLr3IX279unXaEvcPsePnzI9UMoFShfpizF/D4azZ4xk+74+9N91Y497AXBDESEDAIbDVYqX54mjBtHg34bSKtXrdbO6I/fjRvUt1dv6tKxE++2WrFsORYi5ypVqX3bdtSpfQfyXrzYtCpuIWojImQgx48dp6VLltCpkye1FmOAJYbXxIGqbRRQ+t28SVeuXKGzZ8+q93WMlxX5Wn2RIOiFiJAgCKYiIiQIgqmICAmCYCoiQoIgmIqIkCAIpiIiJAiCqYgICYJgKiJCgiCYioiQIAimIiIkCIKpiAgJgmAqIkKCIJiKiJAgCKYiIiQIgqmICAmCYCoiQoIgmIqIkCAIpiIiJAiCqYgICYJgKiJCgiCYioiQIAimIiIkCIKpiAgJgmAqIkKCIJiKiJAgCKYiIiQIgqmICAmCYCoiQoIgmIqIUCTjwYMHtGrlSvKaP5+WeHvT8mXLaMXy5bRs6VJa6ePDjy1tS5csoQVeXnxcvXpVewZBMBYRoUjGnt27KW2qn6hurdo0euRImuExg+bMmkUd2rWjlEmTUa3q1VWbB82aOZMmjhtPbVu34faZ6jpBMAMRoUgGrJuaztXpyeMnWksAW7dsoVjRotOo4SO0lgA+fvpEvbr3oP79+mktgi3ev39PN2/epBPHT9AfBw7Q5k2b+HtFuxB+RIQiGZMmTKApkydrjwLZ4utL8WLFppHDh2stgWzfto169+xJr1+/1loEa+zds4cqV6hAJYs7Uf7ceSl96jRUqXwFevPmjXaFEB5EhCIZK5Yto507d2qPAvHdvNmmCF2+dInmzZ1Lz54901oEazx58oQOHTzI1mbRAgUpQdx41LljJ/r8+bN2hRAeRIQiGbY6xNdECODvpDOFDYiRU5GilCRBQvJeuFhrFcKLiFAU4Z9EKKKDGM35c+e1R/ry55EjlDpFSkr3U2o6dfKk1iqEFxGhKEJkFqFXr16RS5OmNLD/AK1FX5BJTJowEceD7t+/r7UK4UVEKIoQmUXo6dOnVKdWLerm5q616Etr15YUJ0ZM6tWjB3348EFrFcKLiFAUIbKLUP26dalnt+5ai348fvyYs2Oxo8cgr3nztFbh3yAiZBAfP35gt8FevHz5Uvtf2EARY9yYsWj82LFaS/jB6P/ixQt6+/at1hKajx8/2vXzfg0jRWjXzp2UJWMmypw+Ax3Yt19rFf4NIkI68+rVS/Je7E1t2/xMzZs1o9/6D6Ddu3Z9NRPl7+9P837/nadThIw5PFCPx48dRy2audC0KVO/KkZPnzyhTRs30uKFC6lj+/YU4/sfqHrVqvy8y5cupVt//61dGTYunD9PUydPoXbqszSoW4/atGxF48aMpQP7AzsjxGmh1wK+pknDhjSgf3/as2ePdlYfjBQhVJn/GDsO1ahajV48f053795V3+Uy9b1MVt/zIvLz89OuFMKKiJCO3L1zlzsqRs0+PXtR44aNKE70mFzkNnvmLKtCBJHB38SNEZNi/RCdJijBsQDLo5t7V4ofJy4lihefg6Nz1PPY4v69e/S7pydNGDeOJo6fQJ5z5tCUSZPV4/EsZJcuXtSu/DqfPn3iaR75cuehAnnycoX1xPHjlRDVpQRx4/Lnw/NduXyZ2rVuQ1kyZCS3zl24cLK0UwnKmC69eh9ztWezP0aJEL4HTHOJ9t3/yK1TZ66Y7tyxoxLiMfzd4lzZUqVpw/r12l8IYSFSiBBM/+dqVEKx3fPn9jkCnus5u1Hh4d27d9S+bTvKkDYdl/YDTCJNkSQpJf4xPuVXHfrc2bPcHhTcwKg/SZMyFY+4A5UlYeHo0aOUO3sOSp44CaVPk4aSJUpMtWvU1M7qAzreiGHD+DVRVY2R3wK+oxrVnJUg/sjz1YoWKkzZM2ehjes38Pnz585RhTLl6MdYcah44SK6TZI1SoQwZaNiuXL8vRcrXJhf78Tx49pZoufq+8CUmSwZM9LJEye0VuGfiPAiBGti/rx5VLVSZapVvYbqlPY58FxVK1Vi9yM8c4PWrFpFyZSl4jF9utZCPKE0odZhUyVLzvGFoKDDDxs6hBIpkcI1KVTH9160SDtL3InLlCjJ51Gjgs5QqVx57aw+rPLxoVRJk3H625rl1qpFCxZW1M3gfcHdBLDaMIkW5zBBNle27LR/rz4xFKNEaMf27ZQhTVq2QJs3bUa3b9/WzgQCVxdBa2TqJHMWNiKFCPn6+vIo3a9PH/q1b1+7HHiu3sqFWq3E5FtFCHGRMiVLcVWtxXJAbAejJCwKdEycu3DhAp+zAMuiXu063GlxFMqXn44p6ycohw8dompVqvBz4Lka1a+vnbE/t27dYgsGx7Nnz7XWQGDtVVQiiPfxU7IUlDNrNvrzzyN8Dp8bbhpEF+5jtcqV6dHDR3zO3hglQjPUgIJJwEULFWKryBqbN26kBOoz58mZS2qIwojEhHTg1ImTVEy5JqOU5WNhx/Yd9FPyFGzBoGN2c3NjNzIoV69cYXcGVgVcsjo1a3LwMyToAI3qN+Dn6d2rl9Zqf/bu2csj/xLvJVpLcM6eOUsF8+YLEM0kyahC2XJfMmawAmD5FVDnaynx3b9vH7frwadPn6lRgwY8cOgFJve2b9eOXWT3Lm5aa2h8VviwRQgBPinV1GFCREgHkLE6ffo0x5QArLW+vXuz+wSBQWDaZ8UKPheUtavXcCwIB0z+r43smHAaL2YsWhzEXbM3sMyOHztGb5XFY43FixdTxrTp+DNBiHp276GdCQR1NbCYvhUI9O6duzjThuzeIhvHUm9v8pw9h93UurVr8/fhvWix1Wv5WBDw76mTp7RXChvIJBYtWIiSq99w4YIFWmtokCVLHD9BQAo/SNZQsI2IkAHcuXOHihQoyHEgCFFZ5ardu3dPOxtI/779+BpYTBnSpuXOYovhQ4exUJ1RYmcWfXv34Q6H+BVEyJqwhpcvgX1liSHbljVjJpsH6nYypEnHghjQZvv6zOnTc7bOY2pgrC4sHNh/gD/j1+aLQTg7/PILJVVWLN7zxRDutmAdESEDQFYsneqoFouhhxULB+6Lc5UqHF+BEOXJkZPOnTunnQ0OLJS6NWtRlQoVv1hbRoPXbVi3HosQLLdsmTLT+fP2m0AK6/HRw4d088ZNddxQLqit4yadOXOGajg7U4d2v1g5H+JQz+V308+qm/s1MF8MLjJS8CijsAZiU6WcnPi6Uk4leLa98M9EChGC+3P92jXOHl27es0uh+W57NHJ3Tt3YXGBCGVSo/CWzb7amUAwaiIQnVLLJiHga6si+azqdBAqFAqaxckTx6lwgQL8XhEkRybsiXK9zADfU8P69bkWSy+6urlRgjhxqXPHDjbdyz2793wJxiM+FTLmJ1gnwosQ0tpIoxfOX4Dn9GAEsseB54ILBbfHlhiEBdyI6KBwneBm5ciSVY3EoTMrWPkQ53ANBKZnd9vxoMkTJ3Jc6cjhw1qLfly8eJHmzJ7NgfWgKXosmg9hhXuCQCxS+PgtQoI2xGwWenlpLfZH7+wYPkOLZs24gNRj2jStNTQDfu3PvzN+G6zCKISNCC9C6Bh//fkXzZjuQbNmzODKXrsc6rmQkkVw8d+MaDDdK5QpywFNiAsqiJ+pThMSb0uQVxOhWTYqoWGZFVKCi6pqvetQIHIlihWjZAkTs0BiCoiFYUOG8oifXokQXDIEg62BOWvomKgw1gu9RQj3GKahxI4WnXcysQYKFVGrhqkxiAu9fyfrTocViQnpDGqGKleoyMFKuC4ogrS2JjG24UEQ1mIJLbWRFkdsAoHVnTt2aC36AIHr2sWNhQbvJ2HcH1mUATJelctX4M8D0cyWMROLTUjwHC1cmvPnClpZbG+MqBMaOmgw1wjBArQG5o8h6YCShdOnrGfesED+qBEjaZXPynBlDCMrIkIGgHVnEKxEp4UVc8ffXzsTADor4kaWDo/rhg0eop0NBOlyWCRI9+sNhNK1mQt3LLyfqpWrfJnwumjhIv48lmpozCfDewsKrEd0XFR9eyp3Tk+MECEshYIaoalTpmgtgSDQ7VS4CMf81q1dq7UGB8WbyIqimhq/sS3LMSoiImQACHLDGkLsBBZFp/btOeiNzoMCxR5du/GcMMy0R5YJC6hDbDD1AxmWR48e8QiMuBemC2B2vN7ABZnr6cnvJWe2bLTFdwu9VFYdFtLPlC4DuSoLB+8XrhY+E+aXwUJ6/Ogx7d+3n1c6ROp+5LDh9OG9vm6jESKE5EfTRo2pbKlSPDHZAmJmNZ2dKUfmLLTahqsGMLkX8TPMG4ypXLbGDRqKNaQhImQQECJkTMqXLss1JPly56biRYpSvly5qVzpMrR+3Tq2HlauWMGV0uj4mVVnR+W1U9Fi6toi1E9ZQBAko8B6QHAfMDG1VHEnnmpSIG9e6urmzoIDgRw6eDC/P9TgFC5QkD8TrD1MbF2zerX2TPpihAgBTDiuV7s2x+NQQDl92jSeZ+jSpEmo6TUhgWU5csQI9XsWotJOTuTavDndvnVLOxu1EREyGJjl2OcL28Yga7RyhU+wmekAnf/gH38oq2M5zfOcy9eaWZSIzmfZMvrw4UNaayDXr1/n2f/z5v7OBZZ79+6ltwbuxWWUCAFYocuWLOUpKciU7dsb9ukosC5h+eK3/G3AALaOBBEhIRLw7GnAEhqIq0UE/vbzI/cuXQy1ah0ZESEhwoPYCqaQRJT99LGy5tfqwKIaIkJCpAAuWUTZjhlB/KA1V1EdESFBMBCsB9W1sxu9NmgTgIiAiJAgGAQmz2JlAMwxEwIRERIEg9iyeTOvqCAER0RIEAxCihOtIyIkCIKpiAgJgmAqIkKCIJiKiJAgCKYiIiQIgqmICAmCYCoiQoIgmIqIkCAIpiIiJAiCqYgICYJgKiJCgiCYioiQIAimIiIkCIKpiAgJgmAqIkKCIJiKiJAgCKYiIiQIgqmICAmCYCoiQoIgmAjR/wHvKv/PrYeNcQAAAABJRU5ErkJggg==;" vertex="1" parent="1">
          <mxGeometry x="264" y="61.38" width="119" height="84.82" as="geometry" />
        </mxCell>
        <mxCell id="lTiDjZVNJuKrlllw1HD_-9" value="" style="endArrow=classic;html=1;rounded=0;" edge="1" parent="1">
          <mxGeometry width="50" height="50" relative="1" as="geometry">
            <mxPoint x="260" y="200" as="sourcePoint" />
            <mxPoint x="310" y="150" as="targetPoint" />
          </mxGeometry>
        </mxCell>
        <mxCell id="lTiDjZVNJuKrlllw1HD_-10" value="" style="shape=image;verticalLabelPosition=bottom;labelBackgroundColor=default;verticalAlign=top;aspect=fixed;imageAspect=0;image=data:image/png,iVBORw0KGgoAAAANSUhEUgAAAKgAAABOCAYAAAC0Vl0rAAAAAXNSR0IArs4c6QAAAARnQU1BAACxjwv8YQUAAAAJcEhZcwAAFxEAABcRAcom8z8AAA7BSURBVHhe7Z1nWFTXFobvn3tvcu2KqGA39o6CWBK7IiIg2NMUNPYKNqKJgC2JLRo1ioK9Q+xC7Bo7liRqxF5QscReQVx3f4ttojIzzJwZ4Bj2m2cek3UmEzjz7b3qPvkXKRQ6RglUoWuUQBW6RglUoWuUQBW6RglUoWuUQBW6RglUoWuUQBW6RglUoWuUQBW6RglUoWuUQBW6RglUoWuUQBW6RglUoWuUQLMgyS+S6dy5c3Tv3j1pST+Sk5Pp6tWrdE28tKAEmsV48eIFzQ+PoC/8u9K1a9ekNX2J3rSJ/Dp3pqNHj0qL+SiBvgO8FH+djouj1VFRtHL5ctq9axfdvXNHXjUfiHPWzJnk1qQp7dq5k16+fCmvpC/PnyfSlImTycPdnWIPHZJW81AC1TlPnz6heRHh1Kh+A2rfti2NCAqiTzp2ooCBA+nKlSvyXeaxauVKqu3sQpGRkdKScTx9+pSGBASSl0crunD+vLSmjRKojsGXOvvHWVSkYCEaHBBAjx8/pnt379KYkBAqXrgIi9VcDh08SM7VnSgkOJh30swgPj6ePN09yL9zF3rw4IG0mkYJVMccOniIKpUrT2VKlqTY2Fi2YRcqZJefcv4vG3Vq14FtaXEjIYF8vLzJrWkzSrhxQ1ozhy2bN4vfqRx9P3mKWSGGEqhOwe45dvRoyvHe+9S2tQ/FX4lnO1x07mw5qICdHX315Qi2pcXM6TOoiIMjrV+7VloyD2T1/fv2pepVqtLJEyek1ThKoDrl7JkzVL9uXcqdPQcNGzyEkhKT2D5ndhjvhl+PGGFWDBp36hTVqlGTOrXvQPfv35fWzCVWhBvVKlWm3j16phluKIHqFGTZDvYFyC53HgqbNUtaiZKSkuj6tev0+NEjaTHO8+fPaUxoKBXIZ0eRIkHSC3Dtfp93pvKly9CObdul1TBKoDoEoVn4nLlknzcfVShTjqI3bZRXLCMuLo5dqXuz5nThwgVp1Qc/RUWJ2LoU76KmUALVIY/E7ohkKH+evNS4YUM6pqHAjV1qyaLFlO2/71Hw16OkVT+gGoHQA69zJspOSqA65IbItD1auFO+XLnpk06d+J8t5c6dOyLubE8fFC8h3PsqadUPWEC9uvegUsWK0w9Tp0prapRAdciFixepQtlylCtbdho+dJi0Wsbx48epqKMjNW3UmE6YkS1nBgsXLOA4GwmcsWTJ5gJ9+PARbdu6lcJmz6apU74XsUZkhgwlvMugaI148YQQFUov8yIiuBAPFz8kMDDlmrDj+uVLl7hUkxboGuUWAu/y2edcsrKW06dP08rlK2jRgoV08MBBaU0N2rAYRDGHI0eOUFEHR2pcv4HRGNmmAl2/bp1wSR+Tp4cHBQ4aJGKfr2lA337clrt+/TpPtHz3zTccID+zwU37p7Bu7VpqJVx64wYNqVnjJuTq7EIlixZjkdasVp3c3dzETtiImoh4dEhAAD158kT+m4ZB9v7l8CDKmyMXDRsyVFq1s2H9BnJr0owK5benPNlzUB2XWhS1KnXYcPjwYWrt6UX79u6VFtPcvHmTqlWuQlUqVBT3YJ20volNBHpXBLyho4KpdIlSHDvhB3zVJcAPMWzIEOrTsxeFBgfT+//+DzVv0pTOnT3L1xUp2TbKQNihlixeTJ4tPcixQEFyrelMkydNolUrxLUVK/i1Y/t2LjWZAh6rlXtLKuZQmH6YZjy+M4cN69dTpXIVKMf7/+NyVUG7/JQ3Zy6qWqkSRUVGyXcR7+y+Pj68AT179kxaTQPP4evdmt38xG+/k9Y3sVqg98XNGDRgALsjrB5DI1xX469Si2bNqUKZsmQv3vdx+47CltIZsQb0djHhs3D+fFq8cGG6vBbxn4vYdaUlDFvRvk1byidE4OPlJcR2V1rN59atW1S1YiWuMy5ftkxaLeeMcOu1XVypnmttmiIWCnZNLKDhQ4fy4sHuNzokhGZMn8ELolf37rxZmcuTx4+pb+/e3IwIFF7WEFYJFIEtBhawqlxq1KRDJmKTSRMm8krBjYfrNyeOSovwOXPIqWpVqly+Incm0utVuXwFcm/enG7fvi3/y+nHdbHAq4svHglSN39/TfcJ3SNk71UqVOKwSwuJiYn0zbhxvOmcFzHl60kMymAXzl+gn2NixPc6QYQejYVA3S2aUgKJIhQJHTWKBdrNz89gomSVQFeI1Vm21AdUuKADryRTRISHs9tCUIxdyRZgt47euJFdYKRY3enxQrIRFRlJ+/fuy5AddO+ePVTug9JkL9zpqJFfSatl7Nyxg0oUKSriVyfavnWbtFoGRIgs++BB45sOCA8Lo44iC0cCZylYfNOnTuNyWgfhNW6Lnf9tNAsUbhuxJOIRBPKmfhEE9YGDAjiGqVe7Dh3Yv19eUbzNPLGQkSChy4JsXgtIOIo5FqY6zrVov8Z7jRzCVJ8c15HRYzYVyZEW8Blzw+ZQ/tx5yNujFV26eEle+RvNAsW4FG4k3HtrT09KTEqUV1Jz6+YtLiXkyZGTPunQif7MAFf5rhI0dBh7GnRYdu7YKa2WgYSraCEHql+3Hh3//XdptR0Q7oL5C7hiY+1mA2+K/KWlWwsuZb2NJoHiuIGvlzfZia25dImSNFHEIaY4euQovw/xpyVDtlkNuLw23j7s8po1akzxly2bmH/FsiVLecgZU/hIdGwJaqo/CLfs17kL/fbbb9KqnaVLlvDMAWZV/zh5Ulr/RpNAY2KiyaW6E7ts1LBM9Yp5GxfJDFwO3NZC4RYUhkESVsfVlZOG9m3amHSxpkDcXETsoA3qfagpNjQGKgohIqnx7+Indrs4abUO5CYQKO+gcak/U5NAJ0+cJBKjQvzCSsdRBGMgG+z5RXcWc31xw2JjtcUrWYH9Bw5wBl9Q3Cs0OrSCwj/HoLVq8VEPW4B5gICBg8R3+YWIFS9Kq3XAY0z7fiqPFHp5eBjsJmkSaNCwYRxPotOBTlGiiewWdbEPRWKUsiu0TbMLYgm4aVu3bKU1q1fT2jVr0+e1eg1/4WjLad3RzAXxGKoiKBHh9KVWUMxHFu/s5MQZvbVcuXyZ+vbqzYkuOoK2AlWR8WPGckjTzreNwaEYTQId0K8fCw6TKLNmzPyra2QIlGe4QC+28aGDB0trCih+o9iulblz5lKNqtU5zDBUv7TVq7L4/JZubuleB/165Ej2SthFt27eIq2Wg1gOIsfPvmmjtlnSV6Dj16NbNwoNHmWyCP9UbDyo5CRYIGB0nEYMD+L2adcuXehFko3qoOgkQKC4CcZ6qK/AKBVWM3aG18smCAs6f/qZ2X1bQ6CAvHzpUo5xI+bOTZcXmgGIkzbHxHCPOz1ByQZlO3RuLl1KXXIxF7SX0VxAJwm1aq3A5foL4YwfOzZNz4eGQDc/fzprQQsbn9m/T1/WErqRhtAcg6IrhB10967d0poabOEYpUJ7E/HQ64f2UZ6AQE/H2TbLfFdBZQR1ZXxZ2K2tCSdw9gidLwf7gjTBSI87LdAu7d2zJw+boGhvCjzapp2vLw0OCKQkC37uhw8eUlsfXx5C+Xb8eGl9E00CxaNM4FaRKcaIvzdE8stk+nHGDN45UYjFDXvw2qEttMhwXsZUgpWVwLHi2i61uK6M/rQ1wHUODRzMpz/xWaZCMEOglBQoEiK0kUeHhHLNOyZ6E8eir4/u4btDnRVD1XXFrm/p5D9CphrVqvPR6jU//SStb6JJoNiacfgewoPI3garH0/D+LTTx9Two484g/ds2VJeTWmjYdobgx6KFFYsW04Vy5bjcOhHEddby9IlSzmRRWJ6y4LY+YXwehO/myAWiwuNDAriOB8ix0ZTv049nqNYtGABJ3SoaSNexjl9hEKWgqFqVBtQ3Tl79oy0vokmgYJ9e/bwisdAApKdV2DgFkMGfp91pl+P/Uo/x0TzD+Hq7MyuAOIdN3oMD0JofeLZPxHEeUiQkFDu3m08bDKXY8eO8ec1/PAjOmJBaQ8TS6ifonLxCnxnM6ZP56pNnuw5eZdH2IaBFscChcT3PV7TUDSmxBzyF6AObdsZnXPQLFCwRWSaiDFbNG1Gg/oP4AcJ9O/Th//ERA3AL4fOQ5OGjXi6G+/DkdP9+/bxdUUKPbt35x0PY2xaziC9DWJIb09PkciWNPtM0rWr10Si1pHmz5snLX8DAYXNms2Vgbw5c/JOj9nfeeERmif2kSAhj0FOYwyrBAoSEhJovcjkZ4oVhvPbv4jVn5ycOuZBgoRseG5YmEWZXlYAJxx9vb25HojFa4upKQ6zhHhwqhPD5OZwI+EG/SK8IZorhkBhHdNWSxYt4qeUWPM94lAfJvNrOjnRmTOG3TuwWqAK6zksXDDiMGSzOA9vaVJjjJPHT3AC4tWyFSc4egINEMxnIJcxhRJoJvC2ADHPitgTc6CnTv0hrdaDui0SGTRJVhvJkjOLrn7+nHht+XmztBhGCTQDQWw5IuhLdufLly77S6ihwSGcfGBmwdZlt8OxsRw3YqfSy+la1MCdqlSl7l27pdn8UALNQNDKLC6SCxxA827lySdbHz58yB0ku1x5KCY6Wr7TtkwRSUgxB0c+opHZII7tJxJplNR+PXZMWo2jBJqBeLRowbVjlGlwFBts27KVXR3KbnfvWv5Yb3NA2xR1aB9PL87uMxMskmoVK9O4MWPNSgaVQDOQgf0HUCF7e+rTqxdn7jiD07Fde3IV2exJA8O6tgRTX+jP43RmZvHn7T/5cB0ml8xdKEqgGQjagr169ODEBWU5uDq0CTPqjBbqm85ONWj9uvXSknE8efyEvUaTBg0NDiYbQwk0g0H3bH5EBI0dPYYFY8v5yrRA/IcZCDzBxFaDzObwPDFR7NyT+Ul9lk6vKYFmMZA1T5s6lbp28aN4C/8vIVrZsG6dCGXa0V4No5VKoFkQJCcIKyx5Cog14OCeOc+jN4QSqELXKIEqdI0SqELXKIEqdI0SqELXKIEqdI0SqELXKIEqdI0SqELXKIEqdI0SqELXKIEqdI0SqELXKIEqdI0SqELXKIEqdI0SqELXKIEqdI0SqELHEP0fSRbOxlrKnyYAAAAASUVORK5CYII=;" vertex="1" parent="1">
          <mxGeometry x="383" y="118.60000000000001" width="59.44" height="27.6" as="geometry" />
        </mxCell>
        <mxCell id="lTiDjZVNJuKrlllw1HD_-11" value="" style="endArrow=classic;html=1;rounded=0;" edge="1" parent="1">
          <mxGeometry width="50" height="50" relative="1" as="geometry">
            <mxPoint x="340" y="200" as="sourcePoint" />
            <mxPoint x="390" y="150" as="targetPoint" />
          </mxGeometry>
        </mxCell>
      </root>
    </mxGraphModel>
  </diagram>
</mxfile>
